<svg width="1440" height="711" viewBox="0 0 1440 711" fill="none" xmlns="http://www.w3.org/2000/svg">
<g clip-path="url(#clip0_1685_20838)">
<rect width="1440" height="900" fill="#0A0231"/>
<g opacity="0.9" filter="url(#filter0_f_1685_20838)">
<circle cx="1144" cy="133" r="424" fill="#4532A4"/>
</g>
<g opacity="0.9" filter="url(#filter1_f_1685_20838)">
<circle cx="88" cy="476" r="424" fill="#5C3BA0"/>
</g>
<g opacity="0.9" filter="url(#filter2_f_1685_20838)">
<circle cx="742" cy="603" r="297" fill="#7A3BA0"/>
</g>
<g opacity="0.9" filter="url(#filter3_f_1685_20838)">
<circle cx="512" cy="52" r="424" fill="#7E57EC"/>
</g>
<g filter="url(#filter4_f_1685_20838)">
<circle cx="1291" cy="843" r="339" fill="#2D58C8"/>
</g>
<g filter="url(#filter5_f_1685_20838)">
<circle cx="-164" cy="391" r="339" fill="#2D58C8"/>
</g>
<circle opacity="0.2" cx="718" cy="250" r="833" fill="url(#paint0_linear_1685_20838)"/>
<circle opacity="0.1" cx="884.5" cy="69.5" r="745.5" fill="url(#paint1_linear_1685_20838)"/>
<circle opacity="0.05" cx="1052.5" cy="-65.5" r="515.5" fill="url(#paint2_linear_1685_20838)"/>
<g clip-path="url(#clip1_1685_20838)">
<g opacity="0.2">
<path d="M-82.1725 543.887L-82.3495 543.788C-82.3624 543.705 -82.3472 543.62 -82.3064 543.547C-82.2655 543.474 -82.2014 543.416 -82.1241 543.384L66.6151 432.711C66.6656 432.67 66.7258 432.643 66.7898 432.632C66.8538 432.621 66.9196 432.628 66.9806 432.65C67.0428 432.678 67.096 432.723 67.1346 432.78C67.1731 432.836 67.1956 432.902 67.1994 432.97L40.2036 509.193C40.189 509.302 40.1336 509.402 40.0486 509.471L-81.6947 543.921C-81.7636 543.978 -81.8516 544.006 -81.9405 543.999C-82.0295 543.993 -82.1125 543.953 -82.1725 543.887ZM66.0317 433.876L-80.2005 542.668L39.4817 508.824L66.0317 433.876Z" fill="#DDC2FF"/>
<path d="M-82.175 543.886C-82.2542 543.876 -82.3264 543.835 -82.3773 543.774L-106.299 477.443C-106.323 477.397 -106.336 477.346 -106.335 477.294C-106.335 477.242 -106.323 477.191 -106.298 477.145C-106.28 477.058 -106.236 476.979 -106.171 476.918L66.4245 432.573C66.5321 432.53 66.6516 432.526 66.7618 432.562C66.824 432.591 66.8772 432.636 66.9158 432.692C66.9543 432.749 66.9767 432.815 66.9806 432.883C66.9889 432.955 66.9744 433.028 66.939 433.091C66.9036 433.155 66.8492 433.206 66.7834 433.236L-81.7842 543.839C-81.8211 543.881 -81.8701 543.909 -81.9241 543.921C-81.9782 543.932 -82.0346 543.926 -82.0851 543.903L-82.175 543.886ZM-105.472 477.506L-81.8365 542.982L65.026 433.714L-105.472 477.506Z" fill="#DDC2FF"/>
<path d="M87.6303 538.954L39.5682 509.436C39.5155 509.408 39.4718 509.366 39.4421 509.314C39.4123 509.263 39.3977 509.204 39.3999 509.144C39.3991 509.088 39.4129 509.033 39.4401 508.984C39.4673 508.935 39.5069 508.895 39.5549 508.866L129.454 428.772C129.467 428.683 129.512 428.603 129.58 428.545C129.641 428.546 129.7 428.563 129.753 428.592C129.806 428.622 129.85 428.663 129.884 428.714C129.93 428.772 129.957 428.843 129.963 428.917C129.969 428.991 129.953 429.065 129.917 429.13L88.0857 538.91C88.0714 539.008 88.0213 539.098 87.9448 539.162C87.8787 539.158 87.8147 539.137 87.7595 539.1C87.7043 539.064 87.6597 539.013 87.6303 538.954ZM40.4035 509.008L87.6849 538.024L128.912 430.159L40.4035 509.008Z" fill="#DDC2FF"/>
<path d="M87.6331 538.954C87.554 538.943 87.4818 538.903 87.4309 538.841C87.4063 538.747 87.4189 538.647 87.4662 538.563C87.5135 538.478 87.5917 538.415 87.6845 538.386L259.295 471.799C259.365 471.763 259.444 471.749 259.521 471.757C259.599 471.765 259.673 471.795 259.734 471.844C259.79 471.902 259.828 471.975 259.843 472.054C259.858 472.133 259.849 472.215 259.818 472.288C259.807 472.368 259.766 472.44 259.705 472.491L217.144 501.748L88.0687 539.064C87.9963 539.107 87.9097 539.12 87.8281 539.099C87.7465 539.078 87.6764 539.026 87.6331 538.954ZM256.693 473.494L95.5271 535.97L216.729 500.887L256.693 473.494Z" fill="#DDC2FF"/>
<path d="M87.6324 538.954C87.578 538.909 87.54 538.848 87.5243 538.779C87.5086 538.71 87.5162 538.638 87.5458 538.574L129.45 428.901C129.465 428.858 129.489 428.817 129.519 428.782C129.55 428.748 129.588 428.72 129.63 428.7C129.672 428.68 129.717 428.669 129.764 428.667C129.81 428.665 129.856 428.672 129.9 428.689L259.685 471.752C259.736 471.751 259.786 471.764 259.831 471.788C259.875 471.813 259.912 471.849 259.938 471.893C259.96 471.939 259.972 471.99 259.972 472.042C259.972 472.093 259.96 472.144 259.938 472.19C259.906 472.272 259.864 472.348 259.811 472.418L88.1495 538.977C88.0742 539.034 87.9812 539.063 87.8868 539.059C87.7923 539.055 87.7023 539.017 87.6324 538.954ZM129.933 429.402L88.4263 538.006L258.555 472.115L129.933 429.402Z" fill="#DDC2FF"/>
<path d="M352.717 516.775C352.618 516.761 352.528 516.711 352.464 516.634C352.479 516.515 352.54 516.407 352.633 516.331L442.092 437.383C442.132 437.336 442.183 437.301 442.241 437.281C442.299 437.261 442.361 437.257 442.421 437.268C442.488 437.26 442.556 437.273 442.615 437.306C442.675 437.339 442.722 437.39 442.75 437.451L473.736 566.111C473.74 566.172 473.726 566.234 473.696 566.288C473.666 566.341 473.621 566.385 473.567 566.414C473.519 566.465 473.458 566.5 473.39 566.515C473.323 566.531 473.252 566.526 473.187 566.5L352.894 516.874L352.717 516.775ZM442.105 438.251L353.521 516.462L472.772 565.64L442.105 438.251Z" fill="#DDC2FF"/>
<path d="M473.193 566.436C473.137 566.375 473.102 566.298 473.094 566.216C473.086 566.133 473.105 566.051 473.149 565.98L575.808 423.484C575.84 423.421 575.89 423.368 575.951 423.332C576.012 423.296 576.083 423.278 576.154 423.28C576.237 423.267 576.322 423.282 576.395 423.323C576.468 423.364 576.526 423.428 576.558 423.505L569.761 512.118C569.744 512.236 569.684 512.344 569.592 512.421L473.753 566.383C473.721 566.426 473.681 566.462 473.635 566.488C473.589 566.514 473.538 566.53 473.485 566.535C473.432 566.54 473.379 566.534 473.328 566.516C473.278 566.499 473.232 566.472 473.193 566.436ZM575.542 424.793L474.632 564.986L568.837 511.934L575.542 424.793Z" fill="#DDC2FF"/>
<path d="M473.193 566.436C473.097 566.414 473.01 566.365 472.94 566.295L441.954 437.635C441.958 437.586 441.973 437.537 441.997 437.494C442.022 437.45 442.055 437.412 442.095 437.383C442.099 437.338 442.113 437.295 442.134 437.256C442.156 437.216 442.186 437.182 442.222 437.155L575.895 423.268C575.94 423.27 575.985 423.283 576.024 423.305C576.064 423.327 576.097 423.358 576.123 423.395C576.163 423.421 576.196 423.456 576.219 423.498C576.242 423.54 576.254 423.587 576.255 423.634C576.253 423.679 576.24 423.724 576.218 423.763C576.196 423.802 576.165 423.836 576.128 423.862L473.441 566.408C473.393 566.456 473.335 566.493 473.271 566.515C473.207 566.536 473.139 566.543 473.072 566.534L473.193 566.436ZM442.843 437.766L473.518 565.259L575.242 423.964L442.843 437.766Z" fill="#DDC2FF"/>
<path d="M681.651 516.787C681.564 516.769 681.485 516.725 681.424 516.66C681.423 516.604 681.437 516.549 681.464 516.5C681.491 516.452 681.531 516.411 681.579 516.382L783.544 398.902C783.573 398.829 783.627 398.768 783.695 398.729C783.764 398.69 783.844 398.676 783.921 398.689C783.999 398.701 784.07 398.74 784.123 398.798C784.176 398.857 784.208 398.931 784.213 399.01L808.677 565.928C808.675 565.989 808.659 566.048 808.63 566.101C808.6 566.153 808.558 566.198 808.508 566.232C808.455 566.266 808.394 566.29 808.332 566.3C808.269 566.311 808.204 566.308 808.142 566.293L681.699 516.88L681.651 516.787ZM783.546 399.731L682.45 516.305L807.823 565.32L783.546 399.731Z" fill="#DDC2FF"/>
<path d="M808.11 566.175C808.053 566.13 808.009 566.071 807.982 566.004C807.956 565.937 807.948 565.864 807.959 565.792L842.949 421.629C842.972 421.533 843.02 421.445 843.09 421.376C843.131 421.351 843.177 421.337 843.225 421.335C843.273 421.333 843.32 421.342 843.363 421.362C843.458 421.386 843.546 421.435 843.616 421.503L880.553 513.937C880.566 514.015 880.552 514.095 880.514 514.163C880.475 514.232 880.415 514.286 880.342 514.316L808.414 566.046C808.333 566.127 808.224 566.173 808.11 566.175ZM843.372 422.891L808.876 564.979L879.811 514.02L843.372 422.891Z" fill="#DDC2FF"/>
<path d="M808.109 566.175C808.011 566.16 807.921 566.11 807.857 566.034L783.37 399.036C783.372 398.976 783.388 398.917 783.417 398.864C783.447 398.811 783.489 398.766 783.539 398.733C783.588 398.69 783.648 398.661 783.713 398.65C783.778 398.639 783.844 398.647 783.904 398.672L843.539 421.461C843.622 421.505 843.688 421.576 843.724 421.663C843.76 421.75 843.765 421.846 843.738 421.936L808.764 566.01C808.752 566.091 808.709 566.165 808.644 566.215C808.579 566.265 808.497 566.288 808.416 566.279L808.109 566.175ZM784.232 399.451L808.438 564.04L842.906 422.002L784.232 399.451Z" fill="#DDC2FF"/>
<path d="M880.049 514.484C880.005 514.48 879.961 514.467 879.922 514.445C879.883 514.423 879.849 514.393 879.822 514.357C879.821 514.301 879.835 514.246 879.862 514.197C879.889 514.149 879.929 514.108 879.977 514.079L975.396 410.833C975.464 410.766 975.553 410.725 975.648 410.718C975.744 410.71 975.838 410.736 975.916 410.792C975.965 410.83 976.002 410.881 976.022 410.939C976.043 410.998 976.046 411.061 976.031 411.121L975.018 550.75C975.017 550.809 975.003 550.868 974.975 550.92C974.948 550.973 974.909 551.018 974.86 551.053C974.812 551.087 974.756 551.11 974.698 551.118C974.639 551.127 974.579 551.122 974.523 551.103L880.049 514.484ZM975.383 411.985L880.874 514.016L974.341 550.24L975.383 411.985Z" fill="#DDC2FF"/>
<path d="M974.523 551.103C974.444 551.092 974.372 551.052 974.321 550.99C974.302 550.912 974.313 550.829 974.352 550.759C974.391 550.689 974.456 550.636 974.532 550.611L1109 461.256C1109.07 461.196 1109.16 461.163 1109.25 461.164C1109.32 461.156 1109.39 461.171 1109.46 461.206C1109.52 461.241 1109.57 461.296 1109.6 461.362L1132.17 525.61C1132.16 525.66 1132.14 525.707 1132.12 525.751C1132.1 525.794 1132.06 525.832 1132.02 525.863C1132 525.908 1131.96 525.945 1131.92 525.973C1131.87 526 1131.82 526.016 1131.77 526.02L974.771 551.075C974.694 551.112 974.607 551.122 974.523 551.103ZM1109.03 461.97L976.248 550.21L1131.24 525.426L1109.03 461.97Z" fill="#DDC2FF"/>
<path d="M974.523 551.103C974.464 551.071 974.416 551.023 974.384 550.964C974.352 550.905 974.338 550.838 974.343 550.771L975.298 411.01C975.315 410.892 975.375 410.784 975.467 410.707C975.519 410.674 975.577 410.655 975.638 410.648C975.699 410.642 975.761 410.65 975.818 410.671L1109.28 460.985C1109.33 460.986 1109.37 460.999 1109.41 461.021C1109.45 461.043 1109.48 461.074 1109.51 461.111C1109.53 461.152 1109.55 461.198 1109.55 461.246C1109.55 461.294 1109.54 461.341 1109.52 461.384C1109.51 461.463 1109.47 461.535 1109.41 461.586L974.905 550.952C974.851 550.992 974.787 551.015 974.72 551.019C974.653 551.023 974.587 551.007 974.529 550.974L974.523 551.103ZM976.087 411.615L975.058 550.143L1108.42 461.528L976.087 411.615Z" fill="#DDC2FF"/>
<path d="M1131.59 525.986C1131.51 525.943 1131.45 525.872 1131.42 525.787C1131.39 525.703 1131.39 525.609 1131.42 525.525L1185.41 402.024C1185.44 401.965 1185.48 401.914 1185.53 401.874C1185.58 401.833 1185.64 401.805 1185.7 401.791C1185.75 401.778 1185.79 401.775 1185.84 401.78C1185.88 401.785 1185.93 401.799 1185.97 401.822C1186.01 401.844 1186.04 401.874 1186.07 401.91C1186.1 401.946 1186.12 401.987 1186.13 402.031L1200.83 557.11C1200.8 557.237 1200.74 557.352 1200.64 557.438C1200.59 557.478 1200.53 557.501 1200.46 557.505C1200.39 557.509 1200.33 557.493 1200.27 557.46L1131.73 525.862L1131.59 525.986ZM1185.47 403.685L1132.18 525.585L1199.96 556.76L1185.47 403.685Z" fill="#DDC2FF"/>
<path d="M1131.59 525.986C1131.5 525.966 1131.42 525.922 1131.36 525.859L1108.88 461.523C1108.87 461.451 1108.89 461.378 1108.92 461.315C1108.96 461.251 1109.01 461.2 1109.08 461.17L1185.53 401.861C1185.58 401.824 1185.63 401.798 1185.69 401.785C1185.75 401.772 1185.81 401.772 1185.87 401.786C1185.99 401.801 1186.1 401.861 1186.17 401.955C1186.16 402.034 1186.12 402.106 1186.06 402.157L1132.07 525.658C1132.04 525.728 1131.99 525.788 1131.93 525.829C1131.86 525.87 1131.79 525.89 1131.71 525.888L1131.59 525.986ZM1109.53 461.488L1131.75 524.75L1184.81 403.383L1109.53 461.488Z" fill="#DDC2FF"/>
<path d="M1200.25 557.55C1200.19 557.502 1200.15 557.435 1200.14 557.361C1200.13 557.287 1200.14 557.21 1200.18 557.145L1287.9 401.915C1287.92 401.819 1287.97 401.732 1288.04 401.662C1288.14 401.683 1288.23 401.732 1288.29 401.803C1288.38 401.883 1288.44 401.984 1288.46 402.096L1296.59 509.529C1296.59 509.6 1296.57 509.67 1296.54 509.732C1296.5 509.794 1296.45 509.846 1296.39 509.883L1200.54 557.68C1200.43 557.672 1200.33 557.626 1200.25 557.55ZM1287.87 403.157L1201.29 556.341L1295.88 509.199L1287.87 403.157Z" fill="#DDC2FF"/>
<path d="M1200.25 557.55C1200.2 557.524 1200.16 557.485 1200.12 557.439C1200.09 557.392 1200.07 557.339 1200.07 557.283L1185.33 402.279C1185.33 402.23 1185.35 402.181 1185.37 402.138C1185.4 402.094 1185.43 402.056 1185.47 402.027C1185.47 402.027 1185.55 401.875 1185.73 401.909L1288.05 401.766C1288.14 401.787 1288.23 401.836 1288.3 401.907C1288.36 401.953 1288.41 402.017 1288.43 402.09C1288.46 402.163 1288.46 402.241 1288.44 402.315C1288.44 402.346 1288.43 402.376 1288.42 402.402C1288.4 402.429 1288.38 402.451 1288.35 402.467L1200.67 557.621C1200.63 557.685 1200.57 557.736 1200.5 557.767C1200.43 557.798 1200.35 557.809 1200.28 557.797L1200.25 557.55ZM1186.16 402.511L1200.68 556.067L1287.5 402.454L1186.16 402.511Z" fill="#DDC2FF"/>
<path d="M1380.98 505.388C1380.93 505.353 1380.88 505.303 1380.85 505.245C1380.82 505.187 1380.81 505.122 1380.81 505.057C1380.81 504.992 1380.83 504.928 1380.87 504.873C1380.9 504.818 1380.95 504.773 1381.01 504.742L1555.84 411.635C1555.93 411.616 1556.02 411.631 1556.1 411.675C1556.18 411.719 1556.24 411.789 1556.27 411.874C1556.3 411.935 1556.32 412.003 1556.31 412.07C1556.31 412.138 1556.29 412.204 1556.26 412.262L1511.43 516.428C1511.39 516.494 1511.34 516.55 1511.28 516.59C1511.21 516.63 1511.14 516.654 1511.06 516.658L1381.09 505.484L1380.98 505.388ZM1555.25 412.76L1382.43 504.807L1510.89 515.834L1555.25 412.76Z" fill="#DDC2FF"/>
<path d="M5.47347 626.379C5.39431 626.368 5.32212 626.328 5.27124 626.267C5.27518 626.207 5.29238 626.148 5.32162 626.096C5.35086 626.044 5.39139 625.998 5.44029 625.963L87.5966 538.538C87.606 538.489 87.6307 538.445 87.667 538.412C87.7494 538.403 87.8323 538.421 87.9046 538.461C87.977 538.501 88.0352 538.563 88.0715 538.637L168.71 656.997C168.747 657.058 168.766 657.126 168.768 657.197C168.769 657.267 168.752 657.337 168.718 657.399C168.674 657.456 168.615 657.5 168.548 657.527C168.48 657.553 168.407 657.561 168.336 657.55L5.61397 626.425L5.47347 626.379ZM87.7475 539.218L6.37931 625.825L167.612 656.649L87.7475 539.218Z" fill="#DDC2FF"/>
<path d="M5.47423 626.379C5.40743 626.34 5.35459 626.28 5.32298 626.209C5.29136 626.138 5.28253 626.059 5.29767 625.983L39.4059 509.015C39.4051 508.959 39.419 508.904 39.4462 508.855C39.4734 508.806 39.513 508.766 39.5609 508.737C39.6107 508.741 39.6591 508.756 39.7027 508.78C39.7463 508.804 39.7842 508.838 39.8137 508.878L87.8758 538.395C87.9276 538.429 87.9692 538.477 87.9963 538.533C88.0235 538.589 88.0351 538.651 88.03 538.713C88.0261 538.763 88.0115 538.811 87.9871 538.855C87.9628 538.898 87.9294 538.936 87.8891 538.966L5.90435 626.321C5.85336 626.383 5.78065 626.424 5.70083 626.435C5.62101 626.446 5.54001 626.426 5.47423 626.379ZM39.9024 509.789L6.37294 624.827L87.1838 538.804L39.9024 509.789Z" fill="#DDC2FF"/>
<path d="M168.196 657.505C168.148 657.461 168.113 657.405 168.095 657.342C168.077 657.279 168.078 657.213 168.096 657.15L216.504 501.227C216.529 501.144 216.584 501.074 216.657 501.029C216.731 500.985 216.819 500.969 216.904 500.986C216.97 500.985 217.035 501.001 217.092 501.033C217.15 501.066 217.198 501.112 217.232 501.169L278.678 630.95C278.666 631.039 278.621 631.121 278.551 631.177C278.547 631.227 278.532 631.275 278.508 631.319C278.484 631.362 278.45 631.4 278.41 631.43L168.43 657.502C168.355 657.53 168.272 657.531 168.196 657.505ZM216.907 502.346L168.824 656.795L277.744 630.959L216.907 502.346Z" fill="#DDC2FF"/>
<path d="M168.197 657.505L168.07 657.434L87.5191 538.858C87.4822 538.808 87.4594 538.749 87.4531 538.687C87.4467 538.625 87.4571 538.563 87.483 538.507C87.4789 538.455 87.4901 538.404 87.5152 538.359C87.5402 538.314 87.5781 538.277 87.6239 538.254L216.648 500.909L216.8 500.994C216.878 500.975 216.961 500.986 217.031 501.025C217.102 501.064 217.154 501.129 217.179 501.205C217.162 501.261 217.133 501.313 217.095 501.357L168.653 657.163C168.654 657.224 168.638 657.284 168.609 657.337C168.579 657.39 168.536 657.435 168.484 657.466C168.442 657.494 168.395 657.513 168.345 657.52C168.295 657.526 168.244 657.521 168.197 657.505ZM88.3877 538.845L168.317 656.28L216.335 501.828L88.3877 538.845Z" fill="#DDC2FF"/>
<path d="M278.177 631.432C278.098 631.421 278.026 631.381 277.975 631.319C277.953 631.263 277.944 631.202 277.949 631.142C277.954 631.082 277.973 631.023 278.003 630.971L352.57 516.328C352.602 516.269 352.654 516.222 352.716 516.196C352.779 516.171 352.849 516.168 352.913 516.189C352.979 516.188 353.044 516.204 353.102 516.236C353.16 516.268 353.208 516.315 353.242 516.372L381.212 646.993C381.206 647.047 381.19 647.1 381.163 647.147C381.136 647.195 381.1 647.237 381.057 647.271C381.017 647.317 380.966 647.352 380.908 647.372C380.85 647.392 380.788 647.397 380.728 647.385L278.227 631.46L278.177 631.432ZM352.757 517.36L278.956 630.807L380.414 646.581L352.757 517.36Z" fill="#DDC2FF"/>
<path d="M278.176 631.432C278.097 631.421 278.025 631.381 277.974 631.319L216.517 501.499C216.496 501.443 216.487 501.382 216.492 501.322C216.497 501.262 216.515 501.203 216.546 501.151C216.584 501.098 216.636 501.056 216.697 501.031C216.758 501.007 216.824 501 216.889 501.011L352.904 516.085C352.97 516.084 353.035 516.1 353.093 516.132C353.151 516.164 353.199 516.211 353.233 516.268C353.234 516.324 353.22 516.379 353.193 516.428C353.165 516.476 353.126 516.517 353.078 516.546L278.55 631.177C278.518 631.231 278.471 631.275 278.415 631.302C278.358 631.33 278.295 631.34 278.232 631.331L278.176 631.432ZM217.464 501.762L278.343 630.3L352.203 516.687L217.464 501.762Z" fill="#DDC2FF"/>
<path d="M380.679 647.357C380.592 647.339 380.512 647.295 380.451 647.23C380.457 647.165 380.476 647.103 380.508 647.046C380.539 646.99 380.583 646.94 380.634 646.902L473.109 565.992C473.162 565.945 473.227 565.916 473.297 565.907C473.367 565.899 473.437 565.912 473.5 565.945C473.544 565.96 473.584 565.983 473.619 566.014C473.653 566.045 473.681 566.083 473.701 566.125C473.721 566.167 473.732 566.212 473.734 566.258C473.736 566.305 473.729 566.351 473.713 566.395L436.152 664.712C436.125 664.798 436.065 664.869 435.986 664.911C435.907 664.954 435.814 664.964 435.728 664.939L380.723 647.514L380.679 647.357ZM472.506 567.311L381.568 646.892L435.583 664.13L472.506 567.311Z" fill="#DDC2FF"/>
<path d="M380.678 647.357C380.591 647.339 380.511 647.295 380.45 647.23L352.491 516.649C352.497 516.584 352.516 516.521 352.548 516.465C352.579 516.408 352.622 516.359 352.674 516.32C352.727 516.274 352.793 516.244 352.862 516.236C352.932 516.227 353.003 516.24 353.065 516.273L473.487 565.905C473.533 565.921 473.575 565.947 473.61 565.98C473.646 566.014 473.674 566.054 473.692 566.099C473.711 566.144 473.72 566.192 473.719 566.24C473.718 566.289 473.707 566.337 473.686 566.38C473.675 566.46 473.635 566.532 473.574 566.583L381.124 647.507C381.073 647.545 381.013 647.571 380.949 647.581C380.885 647.592 380.82 647.587 380.759 647.568L380.678 647.357ZM353.393 517.052L381.098 646.366L472.683 566.218L353.393 517.052Z" fill="#DDC2FF"/>
<path d="M435.611 664.908C435.543 664.858 435.492 664.788 435.465 664.708C435.439 664.628 435.438 664.542 435.463 664.461L473.018 565.975C473.028 565.896 473.069 565.823 473.13 565.773L568.97 511.811C569.048 511.791 569.131 511.802 569.201 511.842C569.272 511.881 569.324 511.945 569.349 512.022C569.378 512.053 569.4 512.089 569.414 512.129C569.429 512.168 569.435 512.21 569.434 512.252C569.432 512.295 569.421 512.336 569.403 512.374C569.385 512.412 569.36 512.446 569.329 512.474L436.081 664.839C436.022 664.902 435.944 664.944 435.858 664.957C435.773 664.969 435.685 664.952 435.611 664.908ZM473.661 566.366L436.845 662.814L567.534 513.494L473.661 566.366Z" fill="#DDC2FF"/>
<path d="M528.687 658.752C528.618 658.741 528.555 658.706 528.51 658.653C528.506 658.582 528.522 658.51 528.557 658.447C528.592 658.385 528.644 658.333 528.707 658.299L681.73 516.234C681.787 516.184 681.858 516.154 681.933 516.148C682.008 516.142 682.083 516.16 682.146 516.201C682.216 516.237 682.272 516.296 682.304 516.368C682.336 516.44 682.343 516.521 682.323 516.597L663.122 646.648C663.131 646.725 663.115 646.803 663.077 646.871C663.039 646.938 662.981 646.993 662.911 647.027L528.889 658.865C528.849 658.865 528.809 658.855 528.773 658.835C528.738 658.815 528.708 658.787 528.687 658.752ZM681.369 517.357L529.958 658.136L662.491 646.295L681.369 517.357Z" fill="#DDC2FF"/>
<path d="M528.688 658.752C528.617 658.715 528.562 658.656 528.53 658.584C528.498 658.512 528.491 658.431 528.511 658.355L568.887 511.962C568.914 511.885 568.964 511.818 569.032 511.772C569.099 511.726 569.18 511.703 569.262 511.707L681.818 516.017C681.895 516.033 681.966 516.072 682.02 516.13C682.09 516.166 682.146 516.225 682.178 516.297C682.21 516.369 682.217 516.45 682.197 516.527C682.195 516.572 682.182 516.616 682.16 516.655C682.138 516.695 682.107 516.729 682.07 516.754L528.89 658.864C528.811 658.851 528.74 658.811 528.688 658.752ZM569.443 512.57L529.485 657.441L680.825 516.788L569.443 512.57Z" fill="#DDC2FF"/>
<path d="M662.464 646.877C662.386 646.861 662.316 646.822 662.262 646.764C662.243 646.681 662.256 646.593 662.297 646.519C662.339 646.444 662.406 646.388 662.487 646.36L808.134 565.658C808.217 565.645 808.301 565.66 808.375 565.701C808.448 565.742 808.505 565.806 808.538 565.883C808.582 565.95 808.602 566.031 808.594 566.11C808.586 566.19 808.55 566.265 808.493 566.321L775.571 604.796C775.562 604.845 775.537 604.889 775.501 604.922L662.764 647.11C662.697 647.105 662.633 647.08 662.579 647.038C662.526 646.997 662.486 646.941 662.464 646.877ZM806.721 567.122L667.105 644.497L775.111 604.076L806.721 567.122Z" fill="#DDC2FF"/>
<path d="M662.464 646.877C662.41 646.834 662.367 646.78 662.338 646.718C662.309 646.656 662.296 646.588 662.298 646.52L681.487 516.43C681.493 516.375 681.51 516.323 681.536 516.275C681.563 516.227 681.599 516.185 681.642 516.152C681.69 516.126 681.742 516.11 681.796 516.106C681.85 516.101 681.904 516.109 681.954 516.127L808.347 565.512C808.392 565.514 808.437 565.526 808.476 565.548C808.516 565.57 808.549 565.601 808.575 565.639C808.614 565.703 808.634 565.778 808.633 565.853C808.631 565.929 808.609 566.002 808.569 566.066C808.569 566.066 808.484 566.217 808.47 566.243L662.891 646.883C662.832 646.935 662.755 646.963 662.676 646.962C662.597 646.961 662.521 646.931 662.464 646.877ZM682.125 516.951L663.092 645.869L807.478 565.822L682.125 516.951Z" fill="#DDC2FF"/>
<path d="M775.176 604.675C775.096 604.664 775.024 604.623 774.973 604.562C774.975 604.491 774.994 604.422 775.028 604.361C775.062 604.299 775.111 604.247 775.17 604.208L880.017 514.068C880.054 514.025 880.101 513.991 880.153 513.969C880.206 513.946 880.263 513.936 880.32 513.939C880.391 513.938 880.462 513.956 880.524 513.991C880.586 514.025 880.638 514.076 880.674 514.137C880.66 514.246 880.604 514.345 880.519 514.414L831.934 605.226C831.902 605.285 831.853 605.333 831.794 605.365C831.735 605.397 831.668 605.411 831.602 605.405L775.341 604.734L775.176 604.675ZM878.997 515.718L776.32 603.988L831.428 604.646L878.997 515.718Z" fill="#DDC2FF"/>
<path d="M775.174 604.675C775.107 604.614 775.067 604.53 775.062 604.44C775.056 604.351 775.085 604.262 775.143 604.194L808.065 565.719L880.035 513.913C880.106 513.871 880.188 513.848 880.271 513.846C880.342 513.845 880.412 513.863 880.474 513.898C880.536 513.932 880.588 513.983 880.625 514.044C880.633 514.116 880.618 514.189 880.583 514.252C880.548 514.316 880.493 514.367 880.427 514.397L775.567 604.563C775.517 604.615 775.455 604.652 775.386 604.672C775.316 604.692 775.243 604.693 775.174 604.675ZM873.717 519.3L808.497 566.192L778.706 601.014L873.717 519.3Z" fill="#DDC2FF"/>
<path d="M831.472 605.335C831.418 605.331 831.364 605.315 831.316 605.288C831.268 605.261 831.227 605.224 831.194 605.18C831.181 605.102 831.195 605.022 831.234 604.953C831.272 604.884 831.333 604.831 831.406 604.801L974.324 550.563C974.402 550.55 974.482 550.564 974.551 550.602C974.62 550.641 974.674 550.702 974.703 550.775L1013.11 623.758C1013.14 623.819 1013.15 623.886 1013.15 623.954C1013.15 624.022 1013.13 624.087 1013.09 624.145C1013.05 624.191 1012.99 624.227 1012.93 624.251C1012.88 624.275 1012.81 624.287 1012.75 624.285L831.27 605.52L831.472 605.335ZM974.54 551.246L833.151 604.88L1012.61 623.411L974.54 551.246Z" fill="#DDC2FF"/>
<path d="M831.475 605.335L831.349 605.264C831.303 605.206 831.275 605.135 831.269 605.061C831.263 604.987 831.279 604.913 831.315 604.848L879.915 514.012C879.934 513.97 879.961 513.932 879.994 513.901C880.027 513.869 880.067 513.845 880.11 513.829C880.152 513.813 880.198 513.805 880.244 513.807C880.29 513.809 880.335 513.819 880.376 513.838L974.824 550.443C974.9 550.484 974.962 550.546 975.002 550.621C975.043 550.697 975.06 550.783 975.051 550.868C975.034 550.986 974.974 551.094 974.882 551.171L831.809 605.389C831.754 605.412 831.694 605.419 831.634 605.41C831.575 605.4 831.52 605.374 831.475 605.335ZM880.406 514.617L832.401 604.328L973.764 550.68L880.406 514.617Z" fill="#DDC2FF"/>
<path d="M1012.93 624.086C1012.85 624.071 1012.78 624.031 1012.73 623.973C1012.72 623.901 1012.73 623.828 1012.77 623.765C1012.8 623.701 1012.86 623.651 1012.92 623.62L1131.56 525.505C1131.68 525.523 1131.79 525.583 1131.87 525.674C1131.94 525.778 1131.97 525.903 1131.97 526.028L1111.09 619.974C1111.08 620.053 1111.05 620.126 1110.99 620.178C1110.93 620.231 1110.85 620.259 1110.77 620.257L1013.11 624.185C1013.07 624.183 1013.04 624.173 1013.01 624.156C1012.97 624.139 1012.95 624.115 1012.93 624.086ZM1131.18 526.614L1014.23 623.42L1110.7 619.321L1131.18 526.614Z" fill="#DDC2FF"/>
<path d="M1012.93 624.086C1012.86 624.076 1012.79 624.041 1012.75 623.988L974.343 551.004C974.3 550.897 974.296 550.777 974.333 550.667C974.359 550.617 974.397 550.575 974.444 550.543C974.49 550.511 974.544 550.492 974.6 550.485L1131.63 525.444C1131.67 525.431 1131.72 525.427 1131.76 525.433C1131.81 525.438 1131.85 525.452 1131.89 525.474C1131.93 525.496 1131.97 525.526 1131.99 525.562C1132.02 525.598 1132.04 525.639 1132.06 525.683C1132.06 525.754 1132.04 525.824 1132 525.886C1131.97 525.949 1131.92 526 1131.86 526.037L1013.23 624.126C1013.23 624.126 1013.15 624.278 1012.92 624.215L1012.93 624.086ZM975.248 551.045L1013.21 623.218L1130.45 526.31L975.248 551.045Z" fill="#DDC2FF"/>
<path d="M1110.67 619.903C1110.59 619.887 1110.52 619.848 1110.47 619.79C1110.46 619.713 1110.48 619.637 1110.52 619.57C1110.55 619.503 1110.61 619.448 1110.68 619.411L1200.21 557.03C1200.27 556.993 1200.33 556.972 1200.4 556.97C1200.47 556.967 1200.54 556.984 1200.6 557.017C1200.66 557.05 1200.71 557.099 1200.74 557.159C1200.78 557.218 1200.79 557.286 1200.79 557.354L1201.5 610.278C1201.51 610.361 1201.5 610.446 1201.46 610.519C1201.42 610.592 1201.35 610.65 1201.28 610.682L1111.1 620.013C1111.03 620.049 1110.95 620.058 1110.87 620.038C1110.79 620.018 1110.72 619.97 1110.67 619.903ZM1200.03 557.89L1112.21 619.105L1200.72 609.841L1200.03 557.89Z" fill="#DDC2FF"/>
<path d="M1110.67 619.903C1110.61 619.861 1110.56 619.802 1110.53 619.734C1110.51 619.666 1110.5 619.592 1110.52 619.52L1131.39 525.575C1131.39 525.521 1131.41 525.468 1131.44 525.42C1131.46 525.372 1131.5 525.331 1131.54 525.297C1131.59 525.301 1131.64 525.316 1131.69 525.34C1131.73 525.364 1131.77 525.398 1131.8 525.438L1200.34 557.036C1200.38 557.035 1200.42 557.045 1200.45 557.065C1200.49 557.085 1200.52 557.114 1200.54 557.149C1200.57 557.181 1200.6 557.22 1200.61 557.262C1200.63 557.305 1200.63 557.35 1200.63 557.395C1200.63 557.441 1200.62 557.485 1200.59 557.524C1200.57 557.564 1200.54 557.599 1200.51 557.626L1111.01 619.996C1110.95 620.01 1110.89 620.009 1110.83 619.993C1110.77 619.977 1110.71 619.946 1110.67 619.903ZM1131.96 526.158L1111.41 618.758L1199.64 557.276L1131.96 526.158Z" fill="#DDC2FF"/>
<path d="M1200.96 610.538C1200.88 610.515 1200.82 610.477 1200.76 610.425C1200.75 610.359 1200.77 610.292 1200.8 610.234C1200.83 610.176 1200.88 610.128 1200.94 610.097L1296.09 509.351C1296.15 509.287 1296.23 509.246 1296.31 509.233C1296.4 509.22 1296.49 509.238 1296.56 509.282C1296.63 509.331 1296.68 509.401 1296.71 509.481C1296.73 509.562 1296.73 509.648 1296.71 509.729L1252.12 615.058C1252.1 615.127 1252.05 615.185 1251.99 615.222C1251.92 615.259 1251.85 615.274 1251.78 615.263L1201.09 610.609L1200.96 610.538ZM1295.21 511.111L1201.91 609.908L1251.61 614.439L1295.21 511.111Z" fill="#DDC2FF"/>
<path d="M1200.96 610.538C1200.9 610.506 1200.85 610.458 1200.82 610.399C1200.79 610.34 1200.77 610.273 1200.78 610.206L1200.06 557.243C1200.05 557.177 1200.07 557.11 1200.1 557.052C1200.13 556.994 1200.18 556.946 1200.24 556.915L1296.02 509.179C1296.08 509.118 1296.16 509.08 1296.24 509.072C1296.32 509.064 1296.41 509.086 1296.48 509.135C1296.53 509.172 1296.58 509.221 1296.61 509.279C1296.64 509.337 1296.65 509.402 1296.66 509.467C1296.64 509.586 1296.58 509.695 1296.49 509.77L1201.4 610.455C1201.36 610.509 1201.3 610.547 1201.23 610.563C1201.16 610.578 1201.09 610.571 1201.02 610.541L1200.96 610.538ZM1200.75 557.43L1201.43 609.277L1294.55 510.68L1200.75 557.43Z" fill="#DDC2FF"/>
<path d="M1251.66 615.167C1251.58 615.156 1251.51 615.116 1251.46 615.054C1251.46 614.983 1251.47 614.911 1251.51 614.849C1251.54 614.786 1251.6 614.735 1251.66 614.701L1380.95 504.739C1380.95 504.739 1381.03 504.588 1381.26 504.65C1381.34 504.668 1381.42 504.714 1381.47 504.78C1381.52 504.846 1381.55 504.928 1381.56 505.013L1381.13 608.406C1381.15 608.495 1381.13 608.587 1381.09 608.666C1381.05 608.745 1380.98 608.805 1380.89 608.836L1251.83 615.226L1251.66 615.167ZM1380.79 505.846L1252.89 614.458L1380.42 608.141L1380.79 505.846Z" fill="#DDC2FF"/>
<path d="M1251.66 615.167C1251.6 615.121 1251.55 615.053 1251.52 614.973C1251.5 614.894 1251.51 614.809 1251.54 614.734L1296.03 509.348C1296.05 509.282 1296.09 509.224 1296.15 509.184C1296.21 509.145 1296.28 509.126 1296.35 509.13L1381.05 504.796C1381.14 504.812 1381.21 504.862 1381.27 504.934C1381.32 505.006 1381.34 505.096 1381.33 505.184C1381.34 505.246 1381.32 505.309 1381.29 505.364C1381.26 505.418 1381.22 505.462 1381.16 505.487L1252.1 615.044C1252.05 615.113 1251.98 615.163 1251.9 615.185C1251.82 615.208 1251.74 615.201 1251.66 615.167ZM1296.54 509.799L1252.75 613.584L1380.1 505.491L1296.54 509.799Z" fill="#DDC2FF"/>
<path d="M1380.57 608.757C1380.53 608.753 1380.49 608.739 1380.45 608.718C1380.41 608.696 1380.37 608.666 1380.35 608.63C1380.34 608.564 1380.36 608.499 1380.39 608.441C1380.43 608.383 1380.47 608.335 1380.53 608.301L1510.89 516.092C1510.93 516.05 1510.98 516.02 1511.03 516.004C1511.09 515.988 1511.15 515.988 1511.2 516.003C1511.26 516.005 1511.32 516.021 1511.37 516.051C1511.43 516.08 1511.47 516.122 1511.5 516.172L1551.58 648.209C1551.58 648.27 1551.56 648.33 1551.53 648.383C1551.5 648.437 1551.46 648.481 1551.41 648.512C1551.36 648.555 1551.31 648.587 1551.26 648.607C1551.2 648.627 1551.14 648.633 1551.08 648.627L1380.67 608.813L1380.57 608.757ZM1510.92 516.806L1381.63 608.287L1550.66 647.766L1510.92 516.806Z" fill="#DDC2FF"/>
<path d="M1380.57 608.757C1380.52 608.724 1380.47 608.679 1380.44 608.626C1380.4 608.573 1380.38 608.513 1380.38 608.45L1380.8 505.056C1380.8 505.006 1380.82 504.957 1380.84 504.913C1380.87 504.869 1380.9 504.832 1380.94 504.804C1380.98 504.772 1381.02 504.748 1381.07 504.735C1381.12 504.722 1381.17 504.718 1381.22 504.726L1511.16 515.885C1511.23 515.882 1511.3 515.899 1511.36 515.935C1511.42 515.97 1511.47 516.023 1511.5 516.085C1511.52 516.147 1511.53 516.217 1511.52 516.285C1511.51 516.353 1511.48 516.417 1511.44 516.467L1380.97 608.749C1380.92 608.788 1380.85 608.812 1380.79 608.815C1380.72 608.819 1380.65 608.804 1380.6 608.771L1380.57 608.757ZM1381.54 505.465L1381.06 607.872L1510.06 516.625L1381.54 505.465Z" fill="#DDC2FF"/>
<path d="M24.5242 774.481L24.3473 774.382C24.339 774.305 24.3549 774.227 24.3927 774.159C24.4305 774.091 24.4885 774.037 24.5586 774.003L168.202 657.077C168.218 657.011 168.252 656.949 168.3 656.901C168.373 656.892 168.445 656.907 168.509 656.942C168.572 656.978 168.623 657.032 168.654 657.098C168.705 657.189 168.728 657.294 168.718 657.399L158.824 745.742C158.833 745.814 158.818 745.887 158.783 745.95C158.747 746.014 158.693 746.064 158.627 746.095L24.7687 774.518C24.7276 774.528 24.6847 774.53 24.6427 774.524C24.6007 774.518 24.5605 774.503 24.5242 774.481ZM167.925 658.049L26.0968 773.503L158.184 745.285L167.925 658.049Z" fill="#DDC2FF"/>
<path d="M24.5247 774.481C24.4749 774.455 24.4323 774.416 24.4005 774.37C24.3688 774.323 24.3488 774.27 24.3424 774.214L5.29193 626.112C5.29765 626.058 5.31432 626.005 5.34095 625.957C5.36758 625.909 5.40361 625.867 5.44688 625.834C5.53615 625.764 5.64919 625.732 5.76183 625.745L168.484 656.87C168.534 656.872 168.583 656.886 168.627 656.91C168.671 656.935 168.708 656.969 168.736 657.011C168.764 657.048 168.784 657.09 168.795 657.134C168.806 657.179 168.809 657.225 168.802 657.271C168.795 657.316 168.779 657.36 168.755 657.399C168.731 657.439 168.7 657.473 168.663 657.5L24.9408 774.448C24.8939 774.495 24.8334 774.526 24.7679 774.537C24.7023 774.548 24.635 774.538 24.5753 774.509L24.5247 774.481ZM6.08962 626.524L24.9842 773.479L167.567 657.385L6.08962 626.524Z" fill="#DDC2FF"/>
<path d="M158.341 745.901L158.138 745.788C158.134 745.717 158.15 745.645 158.185 745.583C158.22 745.52 158.272 745.469 158.336 745.435L278.187 630.94C278.22 630.909 278.259 630.884 278.302 630.867C278.344 630.85 278.39 630.842 278.435 630.843C278.481 630.844 278.526 630.854 278.568 630.872C278.61 630.89 278.648 630.917 278.679 630.95C278.728 630.993 278.763 631.05 278.781 631.112C278.798 631.175 278.798 631.241 278.78 631.304L278.09 746.108C278.085 746.203 278.045 746.293 277.977 746.36C277.91 746.426 277.819 746.465 277.724 746.467L158.658 746.045L158.341 745.901ZM277.987 631.954L159.306 745.181L277.191 745.64L277.987 631.954Z" fill="#DDC2FF"/>
<path d="M158.341 745.901C158.279 745.866 158.228 745.816 158.192 745.755C158.156 745.694 158.137 745.625 158.136 745.555L168.033 657.147C168.025 657.075 168.039 657.002 168.074 656.939C168.11 656.875 168.164 656.825 168.23 656.794L278.12 630.704C278.2 630.669 278.289 630.662 278.373 630.685C278.457 630.708 278.53 630.76 278.58 630.831C278.631 630.902 278.655 630.988 278.649 631.074C278.642 631.161 278.606 631.243 278.547 631.306L158.897 745.913C158.84 745.966 158.768 746 158.691 746.011C158.614 746.021 158.536 746.007 158.467 745.971L158.341 745.901ZM168.718 657.463L158.924 744.736L277.113 631.798L168.718 657.463Z" fill="#DDC2FF"/>
<path d="M277.482 746.366L277.33 746.281C277.287 746.208 277.269 746.123 277.279 746.039C277.29 745.955 277.329 745.877 277.39 745.817L380.587 646.809C380.644 646.748 380.722 646.709 380.806 646.701C380.89 646.693 380.974 646.716 381.042 646.765C381.114 646.811 381.168 646.881 381.195 646.962C381.222 647.044 381.22 647.132 381.191 647.212L353.75 715.139C353.749 715.184 353.736 715.228 353.714 715.268C353.692 715.307 353.661 715.341 353.624 715.366L277.892 746.462C277.822 746.488 277.746 746.494 277.673 746.476C277.599 746.459 277.533 746.421 277.482 746.366ZM379.82 648.6L279.322 744.908L353.231 714.585L379.82 648.6Z" fill="#DDC2FF"/>
<path d="M277.481 746.365C277.421 746.34 277.371 746.297 277.336 746.242C277.302 746.187 277.285 746.123 277.287 746.059L277.998 631.1C278.002 631.05 278.016 631.002 278.04 630.958C278.065 630.915 278.098 630.877 278.138 630.847C278.218 630.776 278.322 630.739 278.428 630.744L380.94 646.708C381.006 646.707 381.071 646.724 381.129 646.756C381.186 646.788 381.235 646.835 381.269 646.891C381.265 646.956 381.246 647.02 381.214 647.076C381.183 647.133 381.139 647.182 381.085 647.22L277.962 746.335C277.908 746.385 277.842 746.419 277.77 746.432C277.698 746.444 277.624 746.436 277.557 746.408L277.481 746.365ZM278.59 631.464L277.924 745.155L379.984 647.235L278.59 631.464Z" fill="#DDC2FF"/>
<path d="M353.261 715.298C353.221 715.296 353.182 715.285 353.147 715.265C353.112 715.246 353.082 715.218 353.059 715.185C353.04 715.107 353.051 715.025 353.09 714.954C353.129 714.884 353.194 714.831 353.27 714.806L435.619 664.416C435.671 664.384 435.729 664.364 435.79 664.358C435.851 664.352 435.913 664.359 435.97 664.38L486.917 697.46C486.977 697.502 487.023 697.561 487.05 697.629C487.076 697.697 487.083 697.771 487.068 697.843C487.077 697.915 487.062 697.988 487.027 698.051C486.991 698.115 486.937 698.165 486.871 698.196L353.514 715.439C353.463 715.443 353.411 715.432 353.366 715.407C353.321 715.382 353.285 715.344 353.261 715.298ZM435.787 665.007L355.19 714.453L485.852 697.528L435.787 665.007Z" fill="#DDC2FF"/>
<path d="M353.264 715.298C353.202 715.256 353.157 715.194 353.136 715.122C353.116 715.05 353.122 714.973 353.152 714.905L380.567 646.963C380.582 646.919 380.606 646.879 380.637 646.844C380.668 646.81 380.705 646.782 380.747 646.762C380.789 646.742 380.834 646.731 380.881 646.729C380.927 646.727 380.974 646.734 381.017 646.75L435.945 664.133L436.072 664.203C436.119 664.233 436.159 664.272 436.191 664.318C436.222 664.364 436.244 664.416 436.254 664.471C436.252 664.531 436.236 664.59 436.207 664.643C436.177 664.696 436.135 664.741 436.085 664.774L353.815 715.142C353.789 715.188 353.754 715.229 353.713 715.262C353.671 715.295 353.623 715.32 353.572 715.334C353.521 715.349 353.467 715.353 353.415 715.347C353.362 715.341 353.311 715.324 353.264 715.298ZM381.126 647.507L354.249 714.125L434.86 664.654L381.126 647.507Z" fill="#DDC2FF"/>
<path d="M602.128 766.308L486.61 698.016C486.56 697.99 486.518 697.952 486.486 697.905C486.454 697.858 486.434 697.805 486.428 697.749C486.434 697.694 486.45 697.642 486.477 697.594C486.504 697.546 486.54 697.504 486.583 697.471L528.618 658.282C528.676 658.233 528.748 658.201 528.824 658.191C528.9 658.181 528.978 658.192 529.048 658.224C529.127 658.235 529.199 658.275 529.25 658.337L602.697 765.764C602.748 765.83 602.775 765.912 602.771 765.996C602.767 766.08 602.733 766.159 602.675 766.22C602.617 766.28 602.539 766.318 602.456 766.325C602.372 766.333 602.289 766.31 602.221 766.261L602.128 766.308ZM487.378 697.649L601.079 764.862L528.763 659.092L487.378 697.649Z" fill="#DDC2FF"/>
<path d="M486.611 698.016L435.526 664.826C435.463 664.787 435.415 664.729 435.388 664.66C435.36 664.591 435.356 664.515 435.375 664.444C435.393 664.374 435.433 664.312 435.488 664.265C435.544 664.219 435.612 664.191 435.684 664.186L528.562 658.086C528.649 658.104 528.728 658.148 528.789 658.213C528.853 658.255 528.904 658.315 528.935 658.385C528.967 658.455 528.977 658.533 528.966 658.609C528.962 658.659 528.947 658.707 528.923 658.751C528.899 658.794 528.865 658.832 528.825 658.862L487.167 698.028C487.134 698.071 487.091 698.105 487.042 698.128C486.993 698.151 486.94 698.163 486.886 698.162C486.832 698.16 486.779 698.147 486.731 698.121C486.683 698.096 486.642 698.06 486.611 698.016ZM436.923 664.877L486.735 697.258L527.81 658.958L436.923 664.877Z" fill="#DDC2FF"/>
<path d="M602.127 766.308C602.077 766.252 602.047 766.181 602.041 766.106C602.035 766.031 602.053 765.956 602.094 765.892L662.388 646.537C662.404 646.449 662.449 646.369 662.515 646.309C662.582 646.263 662.663 646.24 662.744 646.244C662.826 646.247 662.904 646.278 662.967 646.33L663.144 646.428L698.631 726.428C698.617 726.506 698.578 726.578 698.518 726.63C698.514 726.68 698.5 726.728 698.475 726.772C698.451 726.815 698.417 726.853 698.377 726.883L602.585 766.2C602.537 766.272 602.462 766.323 602.377 766.343C602.292 766.364 602.203 766.351 602.127 766.308ZM662.662 647.352L603.095 765.225L697.703 726.308L662.662 647.352Z" fill="#DDC2FF"/>
<path d="M602.127 766.308L602 766.238L528.56 658.681C528.523 658.631 528.5 658.572 528.494 658.511C528.487 658.449 528.498 658.386 528.524 658.33C528.523 658.274 528.537 658.219 528.564 658.17C528.591 658.122 528.631 658.081 528.678 658.052L662.512 646.076C662.557 646.078 662.601 646.09 662.641 646.112C662.68 646.134 662.714 646.165 662.74 646.203C662.807 646.255 662.855 646.33 662.875 646.413C662.895 646.496 662.885 646.584 662.849 646.661L602.61 766.214C602.585 766.273 602.542 766.324 602.487 766.358C602.432 766.393 602.368 766.41 602.304 766.407C602.269 766.405 602.234 766.395 602.204 766.378C602.173 766.361 602.147 766.337 602.127 766.308ZM529.498 658.84L602.288 765.305L662.03 647L529.498 658.84Z" fill="#DDC2FF"/>
<path d="M697.975 726.891C697.94 726.889 697.906 726.879 697.875 726.862C697.844 726.844 697.818 726.821 697.798 726.792C697.797 726.736 697.811 726.681 697.838 726.632C697.865 726.583 697.905 726.543 697.953 726.514L775.127 604.284C775.145 604.243 775.171 604.207 775.204 604.177C775.237 604.147 775.276 604.125 775.318 604.111C775.36 604.097 775.404 604.092 775.449 604.096C775.493 604.101 775.536 604.114 775.574 604.136C775.624 604.14 775.672 604.154 775.716 604.179C775.76 604.203 775.797 604.236 775.827 604.277L816.001 746.174C816.002 746.23 815.988 746.285 815.96 746.334C815.933 746.382 815.894 746.423 815.846 746.452C815.808 746.501 815.757 746.538 815.698 746.558C815.64 746.578 815.577 746.581 815.517 746.566L697.989 726.865L697.975 726.891ZM775.241 605.209L698.751 726.33L815.11 745.81L775.241 605.209Z" fill="#DDC2FF"/>
<path d="M697.976 726.89C697.941 726.889 697.907 726.879 697.876 726.862C697.846 726.844 697.819 726.821 697.799 726.792L662.276 646.739C662.24 646.652 662.236 646.556 662.263 646.466C662.283 646.37 662.332 646.282 662.404 646.214L775.112 604.076C775.162 604.039 775.221 604.016 775.283 604.01C775.344 604.004 775.407 604.014 775.463 604.04C775.53 604.062 775.588 604.105 775.627 604.163C775.667 604.221 775.686 604.291 775.682 604.361C775.678 604.411 775.664 604.459 775.639 604.502C775.615 604.546 775.581 604.584 775.541 604.613L698.403 726.897C698.363 726.948 698.31 726.987 698.25 727.012C698.19 727.037 698.125 727.045 698.06 727.037L697.976 726.89ZM663.131 646.752L698.163 725.902L774.416 605.145L663.131 646.752Z" fill="#DDC2FF"/>
<path d="M815.487 746.617C815.427 746.581 815.379 746.528 815.349 746.464C815.32 746.4 815.31 746.329 815.322 746.26L831.293 605.003C831.314 604.907 831.363 604.819 831.434 604.75C831.477 604.71 831.531 604.683 831.59 604.674C831.648 604.665 831.708 604.674 831.761 604.7C831.822 604.696 831.883 604.71 831.937 604.74C831.991 604.77 832.035 604.815 832.064 604.87L857.945 723.131C857.958 723.209 857.944 723.289 857.906 723.358C857.868 723.427 857.807 723.48 857.734 723.51L815.867 746.53C815.816 746.576 815.754 746.607 815.688 746.622C815.622 746.637 815.553 746.636 815.487 746.617ZM831.752 607.212L816.101 745.635L857.116 723.132L831.752 607.212Z" fill="#DDC2FF"/>
<path d="M815.487 746.617C815.398 746.606 815.316 746.56 815.26 746.49L774.946 604.548C774.945 604.492 774.959 604.437 774.986 604.388C775.013 604.339 775.053 604.298 775.101 604.27C775.131 604.224 775.172 604.187 775.221 604.162C775.27 604.137 775.324 604.125 775.379 604.127L831.665 604.812C831.738 604.799 831.813 604.812 831.877 604.848C831.942 604.884 831.992 604.941 832.019 605.01C832.019 605.01 832.019 605.01 831.934 605.161L815.977 746.393C815.962 746.474 815.921 746.549 815.86 746.604C815.799 746.66 815.721 746.694 815.639 746.701L815.487 746.617ZM775.845 604.718L815.507 744.442L831.141 605.514L775.845 604.718Z" fill="#DDC2FF"/>
<path d="M857.318 723.608C857.269 723.602 857.221 723.587 857.177 723.562C857.134 723.538 857.096 723.506 857.065 723.467C857.057 723.395 857.071 723.322 857.107 723.258C857.142 723.195 857.197 723.144 857.262 723.113L1012.75 623.625C1012.75 623.625 1012.75 623.625 1012.84 623.473C1012.91 623.46 1012.99 623.473 1013.05 623.509C1013.12 623.545 1013.17 623.602 1013.19 623.671C1013.22 623.708 1013.24 623.751 1013.25 623.796C1013.26 623.841 1013.26 623.887 1013.25 623.932L1001.09 743.307C1001.07 743.403 1001.02 743.491 1000.95 743.559C1000.92 743.586 1000.87 743.605 1000.83 743.614C1000.78 743.624 1000.74 743.623 1000.69 743.612L857.262 723.709L857.318 723.608ZM1012.61 624.473L858.508 723.079L1000.63 742.716L1012.61 624.473Z" fill="#DDC2FF"/>
<path d="M857.315 723.608C857.266 723.602 857.218 723.587 857.174 723.562C857.131 723.538 857.093 723.506 857.062 723.467L831.277 605.093C831.276 605.037 831.29 604.982 831.317 604.933C831.344 604.884 831.384 604.844 831.431 604.815C831.474 604.773 831.526 604.74 831.583 604.72C831.64 604.701 831.701 604.694 831.76 604.7L1013.21 623.452C1013.27 623.457 1013.32 623.474 1013.37 623.501C1013.42 623.527 1013.46 623.563 1013.49 623.607C1013.52 623.644 1013.54 623.686 1013.55 623.732C1013.56 623.777 1013.55 623.823 1013.54 623.868C1013.52 623.964 1013.47 624.052 1013.4 624.121L857.818 723.656C857.766 723.684 857.709 723.7 857.651 723.702C857.592 723.703 857.534 723.692 857.481 723.667L857.315 723.608ZM832.091 605.415L857.794 722.749L1012.09 624.048L832.091 605.415Z" fill="#DDC2FF"/>
<path d="M1000.77 743.525L1000.6 743.427C1000.57 743.362 1000.56 743.289 1000.57 743.219C1000.58 743.148 1000.61 743.082 1000.65 743.028L1110.6 619.433C1110.6 619.433 1110.68 619.282 1110.86 619.316C1110.91 619.318 1110.95 619.33 1110.99 619.352C1111.03 619.374 1111.07 619.405 1111.09 619.443C1111.12 619.475 1111.15 619.515 1111.16 619.558C1111.18 619.601 1111.19 619.647 1111.18 619.693L1111.9 740.415C1111.89 740.51 1111.85 740.6 1111.79 740.666C1111.72 740.733 1111.63 740.771 1111.53 740.774L1000.91 743.635C1000.85 743.618 1000.8 743.579 1000.77 743.525ZM1110.54 620.557L1001.79 742.833L1111.23 740.009L1110.54 620.557Z" fill="#DDC2FF"/>
<path d="M1000.77 743.525C1000.71 743.493 1000.67 743.445 1000.63 743.386C1000.6 743.327 1000.59 743.26 1000.59 743.193L1012.75 623.754C1012.73 623.671 1012.74 623.584 1012.78 623.509C1012.83 623.434 1012.89 623.378 1012.97 623.35L1110.66 619.203C1110.71 619.205 1110.75 619.217 1110.79 619.239C1110.83 619.261 1110.86 619.292 1110.89 619.33C1110.94 619.377 1110.98 619.439 1110.99 619.506C1111.01 619.574 1111 619.645 1110.98 619.709C1110.96 619.789 1110.92 619.861 1110.86 619.912L1001.26 743.43C1001.2 743.488 1001.14 743.528 1001.06 743.545C1000.99 743.563 1000.91 743.557 1000.84 743.528L1000.77 743.525ZM1013.43 624.135L1001.44 742.144L1110.04 620.017L1013.43 624.135Z" fill="#DDC2FF"/>
<path d="M1111.42 740.678L1111.24 740.579C1111.21 740.521 1111.19 740.453 1111.2 740.385C1111.21 740.318 1111.24 740.255 1111.28 740.206L1200.78 610.077C1200.83 610.016 1200.88 609.968 1200.95 609.941C1201.02 609.914 1201.1 609.907 1201.17 609.923C1201.24 609.939 1201.31 609.976 1201.36 610.03C1201.41 610.083 1201.45 610.151 1201.46 610.224L1208.91 747.517C1208.9 747.626 1208.84 747.726 1208.76 747.795C1208.67 747.858 1208.57 747.894 1208.47 747.899L1111.56 740.723L1111.42 740.678ZM1200.83 611.297L1112.26 740.056L1208.17 747.173L1200.83 611.297Z" fill="#DDC2FF"/>
<path d="M1111.42 740.678C1111.36 740.647 1111.32 740.603 1111.28 740.549C1111.25 740.496 1111.23 740.435 1111.23 740.371L1110.53 619.624C1110.51 619.541 1110.52 619.454 1110.56 619.379C1110.6 619.305 1110.67 619.248 1110.75 619.22L1200.95 609.903C1201.01 609.899 1201.08 609.914 1201.14 609.946C1201.2 609.979 1201.25 610.028 1201.28 610.086C1201.31 610.14 1201.33 610.203 1201.33 610.268C1201.33 610.333 1201.31 610.396 1201.27 610.449L1111.74 740.589C1111.69 740.648 1111.63 740.694 1111.57 740.721C1111.5 740.748 1111.42 740.754 1111.35 740.74L1111.42 740.678ZM1111.28 619.943L1111.94 739.212L1200.4 610.655L1111.28 619.943Z" fill="#DDC2FF"/>
<path d="M1208.35 747.803C1208.3 747.759 1208.26 747.701 1208.24 747.636C1208.22 747.571 1208.21 747.502 1208.23 747.435L1251.52 614.72C1251.53 614.664 1251.56 614.612 1251.6 614.568C1251.7 614.392 1251.97 614.378 1252.09 614.513L1345.93 687.405C1345.98 687.447 1346.01 687.5 1346.04 687.559C1346.06 687.619 1346.07 687.683 1346.07 687.748C1346.07 687.809 1346.06 687.87 1346.03 687.924C1346 687.978 1345.95 688.022 1345.9 688.051L1208.85 747.812C1208.77 747.865 1208.69 747.893 1208.6 747.891C1208.51 747.889 1208.42 747.858 1208.35 747.803ZM1251.95 615.426L1209.22 746.793L1344.95 687.619L1251.95 615.426Z" fill="#DDC2FF"/>
<path d="M1208.36 747.803C1208.3 747.778 1208.25 747.735 1208.21 747.68C1208.18 747.625 1208.16 747.561 1208.16 747.496L1200.72 610.203C1200.72 610.149 1200.74 610.096 1200.76 610.048C1200.79 610.001 1200.83 609.959 1200.87 609.925C1200.91 609.89 1200.95 609.864 1201 609.85C1201.05 609.836 1201.1 609.835 1201.15 609.847L1251.81 614.487C1251.86 614.489 1251.9 614.502 1251.94 614.524C1251.98 614.546 1252.02 614.577 1252.04 614.614C1252.09 614.663 1252.12 614.725 1252.14 614.792C1252.15 614.859 1252.15 614.928 1252.13 614.994L1208.88 747.633C1208.86 747.715 1208.8 747.786 1208.73 747.83C1208.66 747.875 1208.57 747.89 1208.48 747.873L1208.36 747.803ZM1201.46 610.587L1208.8 745.531L1251.28 615.149L1201.46 610.587Z" fill="#DDC2FF"/>
<path d="M1345.46 688.07C1345.38 688.023 1345.33 687.953 1345.3 687.872C1345.28 687.791 1345.28 687.703 1345.31 687.623L1380.4 608.296C1380.43 608.234 1380.48 608.183 1380.54 608.147C1380.6 608.112 1380.67 608.092 1380.74 608.091C1380.8 608.083 1380.87 608.095 1380.92 608.125C1380.98 608.156 1381.02 608.203 1381.05 608.26L1444.75 738.739C1444.76 738.806 1444.75 738.874 1444.72 738.933C1444.68 738.992 1444.63 739.039 1444.57 739.067C1444.52 739.121 1444.45 739.157 1444.38 739.17C1444.31 739.183 1444.23 739.172 1444.16 739.14L1345.37 687.988L1345.46 688.07ZM1380.77 609.297L1346.11 687.607L1443.63 738.079L1380.77 609.297Z" fill="#DDC2FF"/>
<path d="M1345.46 688.07L1251.64 615.153C1251.57 615.117 1251.52 615.059 1251.49 614.989C1251.47 614.919 1251.46 614.842 1251.49 614.77C1251.51 614.697 1251.56 614.632 1251.62 614.584C1251.68 614.536 1251.76 614.508 1251.84 614.501L1380.7 608.102C1380.8 608.106 1380.88 608.144 1380.94 608.21C1381.01 608.276 1381.04 608.363 1381.04 608.454C1381.03 608.533 1380.99 608.605 1380.93 608.656L1345.87 687.868C1345.85 687.977 1345.8 688.076 1345.71 688.146C1345.67 688.151 1345.62 688.146 1345.58 688.133C1345.53 688.12 1345.49 688.099 1345.46 688.07ZM1252.82 615.18L1345.51 687.204L1380.15 608.854L1252.82 615.18Z" fill="#DDC2FF"/>
<path d="M1444.25 739.221L1444.08 739.123L1380.42 608.607C1380.39 608.549 1380.38 608.481 1380.38 608.414C1380.39 608.346 1380.42 608.283 1380.47 608.234C1380.51 608.178 1380.57 608.137 1380.63 608.114C1380.7 608.092 1380.77 608.09 1380.83 608.108L1551.25 647.897L1551.5 648.038C1551.55 648.114 1551.57 648.206 1551.56 648.296C1551.55 648.386 1551.5 648.468 1551.43 648.526L1444.57 739.132C1444.53 739.174 1444.48 739.205 1444.42 739.22C1444.37 739.236 1444.31 739.236 1444.25 739.221ZM1381.4 608.989L1444.55 738.328L1550.47 648.353L1381.4 608.989Z" fill="#DDC2FF"/>
<path d="M-9.49487 832.812C-9.58127 832.792 -9.66022 832.748 -9.72237 832.685C-9.73061 832.602 -9.7134 832.52 -9.67311 832.447C-9.63281 832.375 -9.57134 832.317 -9.49695 832.281L158.285 745.342C158.379 745.317 158.478 745.33 158.563 745.377C158.648 745.425 158.711 745.503 158.74 745.596C158.738 745.666 158.719 745.735 158.685 745.797C158.651 745.858 158.602 745.911 158.543 745.949L103.332 818.096C103.306 818.136 103.27 818.169 103.228 818.192C103.187 818.215 103.14 818.227 103.092 818.228L-9.51472 832.966L-9.49487 832.812ZM157.229 746.641L-7.31519 831.874L103.077 817.424L157.229 746.641Z" fill="#DDC2FF"/>
<path d="M-9.49341 832.812C-9.55057 832.757 -9.58747 832.685 -9.59809 832.607C-9.60872 832.529 -9.59239 832.449 -9.55182 832.382L24.478 774.091C24.4836 774.041 24.4989 773.994 24.5231 773.95C24.5473 773.907 24.5799 773.869 24.6189 773.838L158.393 745.269C158.475 745.261 158.558 745.278 158.631 745.318C158.703 745.359 158.761 745.42 158.798 745.495C158.816 745.583 158.802 745.675 158.758 745.754C158.714 745.833 158.643 745.893 158.558 745.924L-9.22363 832.863C-9.26955 832.875 -9.31759 832.877 -9.36427 832.868C-9.41095 832.859 -9.4551 832.84 -9.49341 832.812ZM24.9131 774.499L-8.38992 831.605L155.954 746.493L24.9131 774.499Z" fill="#DDC2FF"/>
<path d="M103.099 818.099C102.998 818.025 102.928 817.915 102.905 817.792C102.907 817.716 102.927 817.642 102.964 817.576C103.001 817.51 103.053 817.454 103.117 817.413L277.469 745.73C277.541 745.722 277.614 745.737 277.678 745.772C277.741 745.808 277.792 745.862 277.823 745.928C277.873 745.984 277.903 746.055 277.909 746.13C277.915 746.205 277.897 746.28 277.856 746.344L238.532 862.92C238.52 862.968 238.497 863.012 238.467 863.051C238.436 863.09 238.397 863.121 238.353 863.144C238.31 863.166 238.261 863.179 238.212 863.182C238.163 863.184 238.113 863.176 238.068 863.158L103.054 818.239L103.099 818.099ZM277.063 746.696L104.319 817.752L238.069 862.264L277.063 746.696Z" fill="#DDC2FF"/>
<path d="M103.098 818.099C103.052 818.031 103.029 817.951 103.033 817.869C103.036 817.787 103.067 817.709 103.119 817.646L158.318 745.46C158.356 745.417 158.403 745.383 158.455 745.36C158.508 745.338 158.565 745.328 158.622 745.331L277.674 745.779C277.735 745.774 277.797 745.788 277.851 745.818C277.905 745.848 277.949 745.893 277.977 745.948C278.027 746.004 278.057 746.075 278.063 746.15C278.069 746.225 278.051 746.3 278.01 746.364C278.007 746.408 277.993 746.452 277.971 746.491C277.95 746.53 277.92 746.564 277.884 746.591L103.582 818.302C103.49 818.331 103.391 818.326 103.303 818.289C103.214 818.252 103.142 818.184 103.098 818.099ZM158.672 745.955L104.382 816.927L275.888 746.306L158.672 745.955Z" fill="#DDC2FF"/>
<path d="M238.113 863.017L237.962 862.933C237.929 862.868 237.915 862.795 237.921 862.722C237.926 862.649 237.951 862.58 237.993 862.52L353.156 714.775C353.205 714.703 353.279 714.652 353.364 714.632C353.449 714.611 353.538 714.624 353.614 714.667C353.683 714.716 353.734 714.786 353.76 714.866C353.787 714.947 353.788 715.033 353.763 715.114L332.641 839.754C332.65 839.821 332.636 839.889 332.604 839.948C332.571 840.008 332.52 840.055 332.458 840.083L238.383 863.069L238.113 863.017ZM352.839 716.354L239.202 862.134L332.071 839.469L352.839 716.354Z" fill="#DDC2FF"/>
<path d="M238.114 863.017C238.041 862.978 237.985 862.914 237.955 862.837C237.925 862.759 237.924 862.674 237.952 862.596L277.319 745.944C277.323 745.894 277.337 745.846 277.361 745.802C277.386 745.758 277.419 745.721 277.46 745.691L353.202 714.635C353.256 714.595 353.32 714.572 353.387 714.568C353.454 714.565 353.521 714.58 353.579 714.613C353.647 714.663 353.698 714.733 353.725 714.813C353.751 714.893 353.752 714.98 353.727 715.06L238.59 862.819C238.531 862.882 238.453 862.924 238.367 862.937C238.282 862.949 238.194 862.932 238.12 862.888L238.114 863.017ZM277.962 746.335L239.34 860.82L352.332 715.839L277.962 746.335Z" fill="#DDC2FF"/>
<path d="M332.125 840.029C332.037 840.015 331.956 839.97 331.898 839.902C331.889 839.835 331.903 839.767 331.936 839.708C331.968 839.649 332.019 839.602 332.081 839.573L486.551 697.586C486.611 697.53 486.689 697.495 486.771 697.487C486.853 697.479 486.936 697.498 487.006 697.542C487.069 697.581 487.118 697.64 487.145 697.708C487.172 697.777 487.176 697.853 487.158 697.924L446.67 864.723C446.659 864.769 446.639 864.813 446.61 864.851C446.582 864.889 446.546 864.92 446.505 864.944C446.464 864.968 446.418 864.983 446.371 864.988C446.324 864.993 446.276 864.989 446.231 864.975L332.145 840.172L332.125 840.029ZM486.162 698.76L333.056 839.488L446.103 864.076L486.162 698.76Z" fill="#DDC2FF"/>
<path d="M332.126 840.029C332.059 839.989 332.006 839.929 331.974 839.858C331.943 839.787 331.934 839.708 331.949 839.632L353.087 714.902C353.079 714.83 353.094 714.757 353.129 714.693C353.164 714.63 353.219 714.579 353.285 714.548L486.552 697.288C486.661 697.303 486.76 697.358 486.83 697.443C486.893 697.483 486.941 697.541 486.968 697.61C486.995 697.679 487 697.754 486.981 697.826C486.956 697.931 486.903 698.027 486.826 698.104L332.398 840.015C332.347 840.069 332.281 840.105 332.208 840.118C332.135 840.131 332.06 840.12 331.993 840.087L332.126 840.029ZM353.756 715.308L332.819 838.726L485.668 698.22L353.756 715.308Z" fill="#DDC2FF"/>
<path d="M446.209 864.832C446.15 864.793 446.106 864.736 446.083 864.669C446.06 864.602 446.06 864.53 446.083 864.463L486.467 697.673C486.473 697.619 486.49 697.566 486.516 697.518C486.543 697.47 486.579 697.429 486.622 697.395C486.728 697.361 486.843 697.366 486.945 697.41L602.463 765.702L602.665 765.815C602.684 765.898 602.671 765.985 602.63 766.06C602.588 766.135 602.521 766.191 602.44 766.219L446.524 864.742C446.481 864.778 446.43 864.805 446.376 864.82C446.322 864.836 446.265 864.84 446.209 864.832ZM486.952 698.407L446.888 863.852L601.67 766.055L486.952 698.407Z" fill="#DDC2FF"/>
<path d="M597.535 821.012C597.486 821.008 597.437 820.994 597.394 820.969C597.35 820.945 597.312 820.911 597.283 820.871C597.282 820.815 597.296 820.76 597.323 820.711C597.35 820.663 597.39 820.622 597.438 820.593L697.912 726.525C697.948 726.485 697.993 726.454 698.044 726.436C698.095 726.418 698.149 726.413 698.202 726.422C698.285 726.403 698.373 726.416 698.447 726.457C698.522 726.499 698.579 726.567 698.607 726.647L691.424 868.367C691.422 868.427 691.406 868.487 691.376 868.539C691.347 868.592 691.305 868.637 691.255 868.67C691.198 868.698 691.136 868.712 691.073 868.711C691.01 868.711 690.948 868.695 690.892 868.667L597.535 821.012ZM697.804 727.492L598.331 820.595L690.688 867.725L697.804 727.492Z" fill="#DDC2FF"/>
<path d="M597.538 821.012C597.477 820.977 597.426 820.927 597.39 820.866C597.354 820.805 597.334 820.736 597.333 820.666L602.005 765.875C602.001 765.809 602.016 765.742 602.048 765.684C602.081 765.626 602.129 765.578 602.188 765.547L697.98 726.23C698.095 726.194 698.221 726.204 698.329 726.259C698.378 726.295 698.418 726.343 698.445 726.399C698.472 726.454 698.485 726.515 698.483 726.577C698.479 726.626 698.464 726.675 698.44 726.718C698.416 726.762 698.382 726.8 698.342 726.829L597.918 820.926C597.861 820.978 597.789 821.013 597.712 821.023C597.635 821.033 597.556 821.02 597.487 820.984L597.538 821.012ZM602.662 766.242L598.2 819.825L696.578 727.734L602.662 766.242Z" fill="#DDC2FF"/>
<path d="M690.806 868.585C690.721 868.572 690.643 868.528 690.589 868.461C690.534 868.393 690.507 868.308 690.512 868.222L697.695 726.502C697.69 726.451 697.702 726.4 697.727 726.355C697.752 726.31 697.79 726.273 697.835 726.25C697.873 726.218 697.917 726.194 697.965 726.181C698.012 726.167 698.062 726.164 698.111 726.172L815.65 745.912C815.685 745.914 815.719 745.924 815.75 745.941C815.78 745.958 815.807 745.982 815.827 746.011C815.897 746.047 815.953 746.106 815.985 746.178C816.017 746.25 816.023 746.331 816.003 746.407C816.002 746.452 815.989 746.496 815.967 746.536C815.945 746.575 815.914 746.609 815.877 746.634L691.194 868.603C691.139 868.65 691.073 868.681 691.002 868.694C690.931 868.707 690.857 868.7 690.789 868.675L690.806 868.585ZM698.444 727.119L691.336 867.457L814.839 746.652L698.444 727.119Z" fill="#DDC2FF"/>
<path d="M787.24 818.665C787.161 818.621 787.099 818.551 787.067 818.466C787.036 818.382 787.035 818.288 787.067 818.204L815.339 746.17C815.349 746.091 815.39 746.018 815.451 745.968L857.318 722.947C857.374 722.921 857.435 722.909 857.496 722.914C857.558 722.92 857.616 722.941 857.667 722.976C857.727 723.007 857.779 723.052 857.817 723.108C857.855 723.164 857.879 723.229 857.886 723.297C857.886 723.353 857.873 723.408 857.845 723.456C857.818 723.505 857.779 723.546 857.731 723.575L787.774 818.598C787.753 818.637 787.724 818.671 787.688 818.698C787.653 818.725 787.612 818.744 787.569 818.754C787.526 818.764 787.481 818.765 787.438 818.757C787.394 818.749 787.353 818.732 787.316 818.707L787.24 818.665ZM815.956 746.547L788.736 815.922L856.318 724.443L815.956 746.547Z" fill="#DDC2FF"/>
<path d="M836.619 850.34C836.539 850.329 836.467 850.288 836.416 850.227C836.408 850.144 836.425 850.062 836.466 849.989C836.506 849.917 836.567 849.859 836.642 849.823L1000.84 742.932C1000.91 742.889 1001 742.873 1001.09 742.886C1001.18 742.9 1001.26 742.942 1001.32 743.006C1001.37 743.065 1001.4 743.135 1001.4 743.209C1001.41 743.283 1001.39 743.358 1001.36 743.422L970.07 827.519C970.044 827.574 970.004 827.622 969.955 827.658C969.906 827.694 969.849 827.717 969.789 827.727L836.821 850.452C836.742 850.441 836.669 850.401 836.619 850.34ZM1000.28 744.047L838.52 849.247L969.492 826.833L1000.28 744.047Z" fill="#DDC2FF"/>
<path d="M836.618 850.339C836.557 850.304 836.509 850.25 836.48 850.186C836.45 850.123 836.441 850.052 836.453 849.982L857.175 723.264C857.202 723.161 857.269 723.073 857.361 723.019C857.454 722.965 857.563 722.949 857.667 722.976L1001.01 742.862C1001.13 742.877 1001.23 742.938 1001.31 743.031C1001.37 743.101 1001.4 743.189 1001.4 743.279C1001.39 743.369 1001.36 743.456 1001.3 743.523C1001.3 743.523 1001.3 743.523 1001.23 743.65L836.896 850.494C836.841 850.493 836.787 850.478 836.738 850.451C836.69 850.424 836.649 850.385 836.618 850.339ZM857.882 723.659L837.288 849.256L999.985 743.386L857.882 723.659Z" fill="#DDC2FF"/>
<path d="M969.47 827.647L969.267 827.534C969.263 827.453 969.282 827.371 969.322 827.3C969.362 827.228 969.421 827.169 969.493 827.13L1111.44 740.161C1111.52 740.117 1111.6 740.099 1111.69 740.11C1111.77 740.121 1111.85 740.16 1111.91 740.221C1111.97 740.277 1112 740.355 1112.01 740.437C1112.01 740.52 1111.98 740.6 1111.93 740.662L1056.78 811.387C1056.77 811.465 1056.73 811.537 1056.67 811.589L969.863 827.833C969.786 827.858 969.703 827.853 969.63 827.818C969.557 827.783 969.499 827.722 969.47 827.647ZM1110.18 741.71L971.559 826.693L1056.28 810.847L1110.18 741.71Z" fill="#DDC2FF"/>
<path d="M969.47 827.647C969.413 827.596 969.372 827.528 969.355 827.453C969.337 827.378 969.343 827.3 969.372 827.228L1000.62 743.078C1000.65 743.011 1000.7 742.953 1000.76 742.91C1000.82 742.867 1000.88 742.841 1000.96 742.834L1111.52 739.97C1111.58 739.972 1111.65 739.989 1111.7 740.021C1111.76 740.053 1111.81 740.098 1111.85 740.153C1111.9 740.197 1111.93 740.258 1111.94 740.325C1111.95 740.392 1111.94 740.46 1111.91 740.519C1111.91 740.57 1111.9 740.621 1111.87 740.666C1111.85 740.711 1111.81 740.748 1111.77 740.771L969.894 827.718C969.827 827.762 969.747 827.778 969.668 827.765C969.589 827.752 969.519 827.71 969.47 827.647ZM1001.21 743.571L970.351 826.483L1110.25 740.754L1001.21 743.571Z" fill="#DDC2FF"/>
<path d="M1056.27 811.403C1056.22 811.371 1056.17 811.326 1056.14 811.273C1056.1 811.219 1056.08 811.159 1056.08 811.097C1056.08 811.025 1056.09 810.955 1056.13 810.893C1056.16 810.831 1056.21 810.779 1056.27 810.743L1208.42 747.146C1208.47 747.125 1208.52 747.115 1208.57 747.115C1208.62 747.115 1208.67 747.126 1208.72 747.146C1208.76 747.15 1208.81 747.163 1208.85 747.185C1208.89 747.207 1208.92 747.237 1208.95 747.273L1205.13 856.69C1205.13 856.746 1205.12 856.801 1205.09 856.85C1205.06 856.899 1205.02 856.939 1204.98 856.968C1204.94 857.006 1204.89 857.032 1204.83 857.043C1204.78 857.055 1204.73 857.051 1204.67 857.032L1056.34 811.212L1056.27 811.403ZM1208.21 748.056L1057.53 811.046L1204.48 856.557L1208.21 748.056Z" fill="#DDC2FF"/>
<path d="M1056.27 811.403L1056.15 811.333C1056.1 811.265 1056.08 811.185 1056.08 811.103C1056.08 811.021 1056.11 810.943 1056.17 810.88L1111.3 740.18C1111.33 740.126 1111.38 740.082 1111.43 740.055C1111.49 740.028 1111.55 740.018 1111.62 740.026L1208.49 747.148L1208.69 747.261C1208.73 747.265 1208.78 747.278 1208.82 747.3C1208.86 747.322 1208.89 747.352 1208.92 747.388C1208.91 747.442 1208.89 747.495 1208.87 747.543C1208.84 747.591 1208.81 747.632 1208.76 747.666C1208.73 747.704 1208.7 747.736 1208.66 747.759C1208.62 747.781 1208.57 747.795 1208.52 747.798L1056.49 811.361C1056.43 811.396 1056.35 811.41 1056.27 811.403ZM1111.75 740.732L1057.57 810.206L1206.97 747.792L1111.75 740.732Z" fill="#DDC2FF"/>
<path d="M1204.6 857.223C1204.55 857.162 1204.53 857.086 1204.53 857.009C1204.53 856.931 1204.56 856.856 1204.61 856.796L1345.35 687.611C1345.37 687.547 1345.4 687.487 1345.45 687.435C1345.5 687.415 1345.55 687.406 1345.61 687.41C1345.66 687.414 1345.72 687.43 1345.76 687.457C1345.81 687.484 1345.85 687.521 1345.89 687.566C1345.92 687.611 1345.94 687.662 1345.95 687.716L1330.19 802.692C1330.19 802.754 1330.18 802.815 1330.15 802.869C1330.12 802.923 1330.07 802.967 1330.02 802.995L1205.05 857.308C1205.02 857.338 1204.98 857.359 1204.94 857.371C1204.89 857.382 1204.85 857.384 1204.81 857.376C1204.76 857.368 1204.72 857.35 1204.69 857.323C1204.65 857.297 1204.62 857.263 1204.6 857.223ZM1345.12 688.974L1206.03 855.967L1329.47 802.258L1345.12 688.974Z" fill="#DDC2FF"/>
<path d="M1204.6 857.223C1204.55 857.193 1204.5 857.148 1204.47 857.095C1204.43 857.041 1204.41 856.98 1204.41 856.917L1208.23 747.499C1208.21 747.432 1208.22 747.361 1208.26 747.301C1208.29 747.241 1208.34 747.195 1208.41 747.171L1345.46 687.409C1345.51 687.389 1345.57 687.381 1345.62 687.385C1345.68 687.389 1345.73 687.405 1345.78 687.432C1345.83 687.459 1345.87 687.496 1345.9 687.541C1345.93 687.586 1345.96 687.637 1345.97 687.691C1345.96 687.742 1345.95 687.791 1345.93 687.835C1345.9 687.878 1345.87 687.916 1345.82 687.944L1205.07 857.089C1205.03 857.144 1204.96 857.183 1204.89 857.203C1204.82 857.223 1204.75 857.222 1204.68 857.201L1204.6 857.223ZM1208.93 747.725L1205.18 855.89L1344.4 688.708L1208.93 747.725Z" fill="#DDC2FF"/>
<path d="M1402.88 858.101L1329.54 802.961C1329.49 802.927 1329.45 802.879 1329.42 802.823C1329.39 802.767 1329.38 802.705 1329.39 802.643C1329.39 802.583 1329.41 802.524 1329.44 802.471C1329.46 802.418 1329.51 802.373 1329.56 802.34L1444.17 738.713C1444.17 738.713 1444.17 738.713 1444.4 738.606C1444.47 738.598 1444.54 738.613 1444.61 738.648C1444.67 738.683 1444.72 738.738 1444.75 738.804C1444.77 738.856 1444.78 738.911 1444.78 738.967C1444.78 739.022 1444.76 739.077 1444.74 739.127L1403.44 857.88C1403.42 857.989 1403.37 858.088 1403.28 858.158C1403.22 858.202 1403.15 858.221 1403.07 858.21C1403 858.199 1402.93 858.16 1402.88 858.101ZM1330.38 802.701L1402.89 857.207L1443.75 739.768L1330.38 802.701Z" fill="#DDC2FF"/>
<path d="M1329.57 802.91C1329.51 802.875 1329.47 802.823 1329.44 802.761C1329.42 802.7 1329.41 802.632 1329.43 802.567L1345.32 687.727C1345.32 687.671 1345.33 687.616 1345.36 687.567C1345.39 687.518 1345.42 687.477 1345.47 687.449C1345.52 687.416 1345.58 687.397 1345.64 687.395C1345.7 687.393 1345.76 687.408 1345.81 687.438L1444.61 738.59C1444.69 738.601 1444.76 738.641 1444.81 738.703C1444.83 738.791 1444.81 738.883 1444.77 738.962C1444.72 739.041 1444.65 739.101 1444.57 739.132L1330.03 802.97C1330 802.998 1329.96 803.019 1329.92 803.031C1329.88 803.044 1329.83 803.047 1329.79 803.042C1329.74 803.036 1329.7 803.021 1329.66 802.999C1329.63 802.976 1329.59 802.946 1329.57 802.91ZM1345.95 688.312L1330.15 802.043L1443.63 739.038L1345.95 688.312Z" fill="#DDC2FF"/>
<path d="M1471.43 856.583C1471.37 856.551 1471.33 856.503 1471.29 856.444C1471.26 856.385 1471.25 856.318 1471.25 856.252L1484.22 733.585C1484.23 733.496 1484.27 733.414 1484.34 733.355C1484.41 733.296 1484.5 733.264 1484.59 733.266L1617.25 743.188C1617.33 743.175 1617.41 743.189 1617.48 743.227C1617.55 743.266 1617.6 743.326 1617.63 743.4C1617.64 743.477 1617.63 743.557 1617.59 743.626C1617.55 743.695 1617.49 743.749 1617.42 743.778L1471.75 856.429C1471.71 856.477 1471.66 856.516 1471.61 856.543C1471.55 856.57 1471.49 856.583 1471.43 856.583ZM1484.91 734.005L1472.05 855.472L1616.28 743.804L1484.91 734.005Z" fill="#DDC2FF"/>
</g>
<path opacity="0.2" d="M68.2114 430.258C67.7115 429.979 67.1401 429.855 66.5696 429.9C65.9991 429.946 65.4551 430.16 65.0064 430.515C64.5576 430.87 64.2243 431.35 64.0486 431.894C63.8728 432.439 63.8626 433.023 64.0191 433.574C64.1756 434.124 64.4918 434.616 64.9278 434.987C65.3638 435.358 65.9 435.591 66.4685 435.658C67.0371 435.724 67.6124 435.62 68.1218 435.36C68.6313 435.099 69.0519 434.694 69.3305 434.194C69.7042 433.524 69.7962 432.733 69.5863 431.995C69.3764 431.256 68.8819 430.632 68.2114 430.258Z" fill="#DDC2FF"/>
<path opacity="0.4" d="M91.6311 531.779C90.2761 531.017 88.726 530.673 87.1761 530.79C85.6263 530.907 84.1461 531.481 82.9222 532.438C81.6983 533.395 80.7854 534.693 80.2987 536.169C79.812 537.644 79.7732 539.231 80.1873 540.729C80.6013 542.227 81.4497 543.569 82.6254 544.586C83.801 545.603 85.2514 546.249 86.7936 546.444C88.3359 546.638 89.9009 546.372 91.2915 545.678C92.682 544.985 93.8358 543.895 94.6074 542.546C95.1269 541.646 95.4621 540.652 95.5936 539.621C95.725 538.59 95.6501 537.543 95.3731 536.541C95.0962 535.539 94.6227 534.602 93.9803 533.785C93.3379 532.967 92.5393 532.285 91.6311 531.779Z" fill="#DDC2FF"/>
<path opacity="0.2" d="M41.8774 505.293C41.1164 504.869 40.2466 504.68 39.3783 504.75C38.5099 504.821 37.6822 505.147 37 505.689C36.3179 506.23 35.812 506.962 35.5465 507.791C35.2811 508.621 35.268 509.511 35.509 510.348C35.75 511.185 36.2342 511.932 36.9002 512.493C37.5661 513.055 38.3839 513.407 39.2498 513.504C40.1157 513.6 40.9906 513.438 41.7638 513.037C42.5369 512.636 43.1734 512.014 43.5925 511.251C44.1513 510.233 44.2846 509.035 43.9633 507.919C43.642 506.803 42.8921 505.859 41.8774 505.293Z" fill="#DDC2FF"/>
<path opacity="0.1" d="M257.516 475.577C259.471 476.667 261.938 475.967 263.028 474.014C264.117 472.061 263.415 469.594 261.461 468.504C259.506 467.414 257.039 468.114 255.95 470.067C254.86 472.02 255.562 474.488 257.516 475.577Z" fill="#DDC2FF"/>
<path opacity="0.1" d="M127.885 432.237C129.7 433.249 131.991 432.599 133.003 430.785C134.014 428.971 133.363 426.68 131.548 425.668C129.733 424.656 127.442 425.306 126.43 427.12C125.419 428.934 126.07 431.224 127.885 432.237Z" fill="#DDC2FF"/>
<path opacity="0.2" d="M480.35 569.998C481.128 568.615 481.477 567.031 481.353 565.448C481.23 563.866 480.639 562.355 479.655 561.108C478.672 559.862 477.341 558.935 475.83 558.445C474.319 557.956 472.697 557.925 471.17 558.359C469.642 558.792 468.278 559.669 467.251 560.879C466.223 562.088 465.578 563.576 465.397 565.153C465.217 566.73 465.509 568.325 466.237 569.737C466.964 571.148 468.095 572.312 469.484 573.08C471.336 574.104 473.518 574.355 475.553 573.777C477.589 573.2 479.313 571.841 480.35 569.998Z" fill="#DDC2FF"/>
<path opacity="0.1" d="M437.822 445.633C442.331 448.148 448.024 446.533 450.537 442.026C453.051 437.52 451.432 431.828 446.923 429.313C442.413 426.799 436.721 428.413 434.207 432.92C431.694 437.427 433.313 443.119 437.822 445.633Z" fill="#DDC2FF"/>
<path opacity="0.2" d="M574.685 425.907C575.997 426.639 577.654 426.169 578.385 424.858C579.117 423.546 578.646 421.89 577.333 421.158C576.021 420.426 574.364 420.896 573.633 422.207C572.901 423.519 573.372 425.175 574.685 425.907Z" fill="#DDC2FF"/>
<path opacity="0.3" d="M781.776 402.487C783.759 403.592 786.261 402.882 787.366 400.901C788.471 398.92 787.76 396.417 785.777 395.312C783.795 394.206 781.292 394.916 780.187 396.898C779.082 398.879 779.794 401.381 781.776 402.487Z" fill="#DDC2FF"/>
<path opacity="0.3" d="M845.425 418.076C844.925 417.716 844.354 417.465 843.751 417.341C843.147 417.218 842.524 417.223 841.922 417.356C841.321 417.49 840.755 417.75 840.261 418.118C839.767 418.486 839.356 418.954 839.056 419.492C838.756 420.03 838.574 420.625 838.52 421.239C838.467 421.853 838.543 422.471 838.746 423.053C838.948 423.635 839.271 424.167 839.694 424.616C840.117 425.064 840.63 425.418 841.199 425.655C842.189 426.066 843.296 426.099 844.308 425.748C845.321 425.396 846.169 424.685 846.69 423.749C847.212 422.813 847.372 421.718 847.138 420.672C846.905 419.626 846.295 418.702 845.425 418.076Z" fill="#DDC2FF"/>
<path opacity="0.1" d="M978.494 406.168C977.53 405.624 976.425 405.379 975.322 405.463C974.218 405.547 973.164 405.958 972.294 406.642C971.424 407.326 970.778 408.253 970.436 409.306C970.095 410.359 970.075 411.489 970.377 412.554C970.68 413.619 971.292 414.57 972.137 415.286C972.981 416.003 974.019 416.452 975.119 416.578C976.219 416.703 977.331 416.499 978.315 415.991C979.298 415.483 980.109 414.695 980.642 413.726C981.36 412.439 981.537 410.92 981.134 409.503C980.731 408.086 979.781 406.886 978.494 406.168Z" fill="#DDC2FF"/>
<path opacity="0.2" d="M1106.51 466.259C1109.19 467.754 1112.57 466.794 1114.06 464.115C1115.56 461.436 1114.6 458.053 1111.92 456.558C1109.24 455.063 1105.85 456.023 1104.36 458.702C1102.86 461.381 1103.83 464.764 1106.51 466.259Z" fill="#DDC2FF"/>
<path opacity="0.2" d="M978.041 544.787C976.852 544.117 975.491 543.816 974.13 543.921C972.77 544.026 971.471 544.532 970.399 545.376C969.328 546.22 968.531 547.364 968.111 548.661C967.69 549.959 967.665 551.353 968.038 552.665C968.411 553.977 969.166 555.15 970.207 556.033C971.247 556.916 972.526 557.471 973.882 557.626C975.238 557.782 976.61 557.531 977.822 556.906C979.035 556.281 980.034 555.31 980.694 554.115C981.571 552.526 981.785 550.654 981.288 548.906C980.792 547.159 979.625 545.679 978.041 544.787Z" fill="#DDC2FF"/>
<path opacity="0.1" d="M1285.91 406.073C1286.71 406.519 1287.63 406.718 1288.54 406.645C1289.45 406.571 1290.32 406.229 1291.04 405.661C1291.76 405.093 1292.29 404.325 1292.57 403.454C1292.85 402.583 1292.87 401.648 1292.62 400.767C1292.37 399.886 1291.86 399.1 1291.17 398.506C1290.47 397.913 1289.61 397.539 1288.7 397.433C1287.79 397.327 1286.87 397.493 1286.05 397.91C1285.24 398.326 1284.57 398.976 1284.12 399.775C1283.52 400.847 1283.38 402.113 1283.71 403.294C1284.05 404.475 1284.84 405.475 1285.91 406.073Z" fill="#DDC2FF"/>
<path opacity="0.3" d="M1189 403.961C1189.36 403.319 1189.53 402.583 1189.48 401.847C1189.42 401.111 1189.15 400.407 1188.7 399.825C1188.24 399.242 1187.63 398.807 1186.93 398.575C1186.23 398.343 1185.47 398.323 1184.76 398.519C1184.05 398.715 1183.41 399.118 1182.93 399.676C1182.44 400.234 1182.14 400.923 1182.05 401.655C1181.96 402.388 1182.08 403.131 1182.42 403.791C1182.75 404.45 1183.27 404.997 1183.91 405.362C1184.33 405.608 1184.81 405.767 1185.29 405.829C1185.78 405.892 1186.27 405.857 1186.75 405.727C1187.22 405.596 1187.66 405.373 1188.05 405.07C1188.44 404.767 1188.76 404.39 1189 403.961Z" fill="#DDC2FF"/>
<path opacity="0.4" d="M1383.36 501.119C1382.58 500.684 1381.69 500.49 1380.8 500.561C1379.91 500.633 1379.06 500.966 1378.36 501.52C1377.66 502.074 1377.14 502.823 1376.87 503.672C1376.59 504.521 1376.58 505.433 1376.82 506.292C1377.07 507.15 1377.56 507.918 1378.24 508.496C1378.92 509.075 1379.76 509.439 1380.64 509.542C1381.53 509.646 1382.43 509.484 1383.22 509.078C1384.02 508.671 1384.67 508.038 1385.11 507.259C1385.69 506.214 1385.83 504.98 1385.51 503.828C1385.18 502.677 1384.41 501.702 1383.36 501.119Z" fill="#DDC2FF"/>
<path opacity="0.2" d="M7.98136 621.882C7.15142 621.42 6.20298 621.213 5.25594 621.289C4.3089 621.365 3.4058 621.72 2.66087 622.309C1.91594 622.899 1.36262 623.695 1.07089 624.599C0.779159 625.503 0.762119 626.473 1.02191 627.387C1.28171 628.301 1.80671 629.117 2.53047 629.733C3.25422 630.348 4.14424 630.736 5.088 630.846C6.03177 630.956 6.98687 630.784 7.83254 630.352C8.67821 629.919 9.37645 629.246 9.83899 628.416C10.15 627.866 10.3487 627.26 10.4236 626.633C10.4985 626.006 10.448 625.37 10.2752 624.762C10.1024 624.154 9.81071 623.587 9.41694 623.092C9.02318 622.598 8.53522 622.187 7.98136 621.882Z" fill="#DDC2FF"/>
<path opacity="0.1" d="M220.382 495.043C219.132 494.346 217.704 494.036 216.278 494.15C214.851 494.264 213.491 494.799 212.369 495.687C211.248 496.574 210.414 497.774 209.975 499.135C209.536 500.496 209.51 501.957 209.901 503.333C210.292 504.71 211.083 505.939 212.173 506.866C213.263 507.794 214.603 508.377 216.025 508.543C217.446 508.709 218.884 508.45 220.158 507.798C221.432 507.147 222.483 506.133 223.18 504.883C223.642 504.054 223.937 503.142 224.047 502.198C224.156 501.255 224.079 500.299 223.819 499.385C223.559 498.472 223.122 497.618 222.532 496.873C221.943 496.128 221.212 495.506 220.382 495.043Z" fill="#DDC2FF"/>
<path opacity="0.1" d="M355.199 512.329C354.399 511.877 353.484 511.672 352.568 511.741C351.653 511.811 350.778 512.15 350.057 512.718C349.335 513.285 348.798 514.054 348.515 514.927C348.232 515.8 348.215 516.737 348.466 517.62C348.717 518.504 349.225 519.292 349.925 519.886C350.626 520.48 351.487 520.853 352.399 520.956C353.311 521.06 354.234 520.89 355.049 520.468C355.865 520.046 356.536 519.392 356.978 518.587C357.572 517.522 357.718 516.264 357.385 515.09C357.051 513.917 356.265 512.923 355.199 512.329Z" fill="#DDC2FF"/>
<path opacity="0.2" d="M281.415 625.621C280.33 625.016 279.09 624.746 277.852 624.846C276.614 624.945 275.434 625.409 274.46 626.18C273.486 626.95 272.763 627.991 272.382 629.173C272 630.354 271.978 631.623 272.318 632.817C272.657 634.012 273.343 635.079 274.29 635.884C275.236 636.689 276.399 637.195 277.633 637.339C278.867 637.483 280.115 637.258 281.221 636.693C282.326 636.127 283.239 635.247 283.844 634.162C284.654 632.708 284.854 630.992 284.399 629.39C283.943 627.788 282.87 626.433 281.415 625.621Z" fill="#DDC2FF"/>
<path opacity="0.3" d="M383.425 642.43C382.51 641.914 381.463 641.681 380.416 641.76C379.37 641.84 378.37 642.229 377.545 642.878C376.72 643.527 376.107 644.406 375.783 645.404C375.46 646.403 375.44 647.475 375.727 648.485C376.014 649.494 376.595 650.396 377.396 651.075C378.196 651.755 379.181 652.181 380.224 652.3C381.267 652.418 382.322 652.225 383.255 651.743C384.187 651.261 384.955 650.513 385.461 649.594C386.141 648.374 386.309 646.935 385.927 645.591C385.545 644.248 384.645 643.111 383.425 642.43Z" fill="#DDC2FF"/>
<path opacity="0.3" d="M572.937 505.411C571.601 504.666 570.074 504.334 568.549 504.457C567.025 504.58 565.572 505.153 564.374 506.102C563.175 507.052 562.286 508.336 561.819 509.791C561.351 511.247 561.326 512.809 561.747 514.279C562.168 515.749 563.016 517.061 564.183 518.05C565.351 519.038 566.785 519.658 568.305 519.831C569.824 520.004 571.361 519.723 572.72 519.022C574.079 518.321 575.199 517.233 575.939 515.895C576.432 515.01 576.746 514.037 576.862 513.031C576.978 512.024 576.894 511.005 576.615 510.031C576.336 509.057 575.868 508.147 575.237 507.355C574.605 506.562 573.824 505.901 572.937 505.411Z" fill="#DDC2FF"/>
<path opacity="0.1" d="M530.754 655.038C530.064 654.653 529.276 654.482 528.488 654.545C527.701 654.608 526.95 654.903 526.331 655.393C525.712 655.883 525.252 656.545 525.009 657.297C524.767 658.048 524.753 658.854 524.969 659.614C525.185 660.374 525.621 661.052 526.223 661.564C526.824 662.076 527.564 662.398 528.349 662.49C529.133 662.581 529.927 662.438 530.63 662.079C531.333 661.719 531.914 661.159 532.298 660.47C532.814 659.545 532.941 658.453 532.651 657.435C532.362 656.416 531.679 655.554 530.754 655.038Z" fill="#DDC2FF"/>
<path opacity="0.4" d="M685.144 510.522C683.969 509.866 682.626 509.574 681.285 509.682C679.945 509.789 678.666 510.292 677.612 511.126C676.557 511.96 675.774 513.088 675.361 514.368C674.948 515.647 674.924 517.021 675.291 518.314C675.659 519.608 676.402 520.763 677.427 521.635C678.452 522.507 679.712 523.055 681.048 523.211C682.384 523.367 683.736 523.123 684.933 522.511C686.13 521.899 687.119 520.945 687.773 519.771C688.651 518.197 688.868 516.337 688.374 514.603C687.881 512.868 686.719 511.4 685.144 510.522Z" fill="#DDC2FF"/>
<path opacity="0.1" d="M811.027 560.945C810.052 560.401 808.938 560.159 807.825 560.248C806.713 560.337 805.652 560.754 804.777 561.447C803.902 562.139 803.252 563.075 802.909 564.136C802.567 565.198 802.547 566.338 802.852 567.411C803.157 568.485 803.774 569.443 804.624 570.167C805.474 570.89 806.52 571.345 807.628 571.475C808.737 571.604 809.859 571.402 810.852 570.894C811.846 570.386 812.666 569.594 813.209 568.62C813.9 567.306 814.059 565.776 813.653 564.347C813.246 562.919 812.306 561.7 811.027 560.945Z" fill="#DDC2FF"/>
<path opacity="0.2" d="M886.349 517.567C887.023 516.357 887.324 514.975 887.212 513.595C887.101 512.215 886.582 510.898 885.722 509.812C884.863 508.726 883.7 507.919 882.382 507.494C881.064 507.068 879.649 507.042 878.317 507.42C876.984 507.798 875.794 508.562 874.897 509.617C873.999 510.671 873.435 511.968 873.275 513.343C873.115 514.719 873.367 516.111 873.998 517.343C874.63 518.576 875.612 519.594 876.822 520.269C878.445 521.174 880.36 521.397 882.147 520.89C883.933 520.384 885.445 519.188 886.349 517.567Z" fill="#DDC2FF"/>
<path opacity="0.1" d="M1128.83 530.937C1129.87 531.52 1131.07 531.78 1132.26 531.684C1133.46 531.587 1134.59 531.139 1135.53 530.395C1136.47 529.651 1137.17 528.646 1137.53 527.506C1137.9 526.366 1137.92 525.144 1137.59 523.993C1137.26 522.842 1136.59 521.815 1135.68 521.041C1134.76 520.268 1133.64 519.784 1132.45 519.649C1131.26 519.514 1130.06 519.736 1128.99 520.286C1127.93 520.835 1127.05 521.688 1126.48 522.736C1126.09 523.428 1125.84 524.19 1125.75 524.978C1125.66 525.765 1125.73 526.563 1125.95 527.325C1126.17 528.087 1126.53 528.798 1127.03 529.418C1127.52 530.038 1128.13 530.554 1128.83 530.937Z" fill="#DDC2FF"/>
<path opacity="0.2" d="M1196.04 565.104C1197.6 565.98 1199.38 566.373 1201.16 566.234C1202.94 566.096 1204.65 565.431 1206.05 564.324C1207.45 563.217 1208.5 561.719 1209.05 560.018C1209.6 558.318 1209.63 556.492 1209.14 554.772C1208.65 553.052 1207.66 551.516 1206.3 550.358C1204.94 549.2 1203.26 548.473 1201.48 548.269C1199.71 548.064 1197.91 548.392 1196.32 549.209C1194.73 550.027 1193.42 551.299 1192.56 552.863C1191.4 554.948 1191.12 557.406 1191.77 559.699C1192.42 561.992 1193.96 563.935 1196.04 565.104Z" fill="#DDC2FF"/>
<path opacity="0.4" d="M1297.25 507.746C1296.81 507.507 1296.29 507.45 1295.8 507.588C1295.32 507.725 1294.9 508.046 1294.65 508.483C1294.41 508.924 1294.36 509.442 1294.5 509.923C1294.64 510.404 1294.97 510.811 1295.4 511.055C1295.62 511.176 1295.86 511.252 1296.1 511.281C1296.35 511.31 1296.6 511.29 1296.83 511.222C1297.07 511.155 1297.29 511.041 1297.49 510.888C1297.68 510.735 1297.84 510.545 1297.96 510.329C1298.21 509.892 1298.27 509.375 1298.14 508.892C1298 508.408 1297.68 507.997 1297.25 507.746Z" fill="#DDC2FF"/>
<path opacity="0.1" d="M1203.62 605.763C1202.74 605.273 1201.74 605.054 1200.73 605.134C1199.73 605.215 1198.77 605.591 1197.98 606.216C1197.19 606.841 1196.6 607.685 1196.29 608.644C1195.98 609.602 1195.97 610.63 1196.24 611.599C1196.52 612.568 1197.07 613.434 1197.84 614.086C1198.61 614.739 1199.55 615.15 1200.55 615.267C1201.55 615.384 1202.57 615.201 1203.46 614.743C1204.36 614.284 1205.1 613.57 1205.59 612.691C1206.25 611.511 1206.41 610.119 1206.04 608.82C1205.67 607.521 1204.8 606.421 1203.62 605.763Z" fill="#DDC2FF"/>
<path opacity="0.2" d="M171.072 654.073C170.843 653.911 170.597 653.774 170.339 653.664C169.364 653.244 168.266 653.214 167.27 653.581C166.274 653.947 165.458 654.682 164.989 655.633C164.52 656.585 164.435 657.68 164.751 658.693C165.067 659.706 165.76 660.559 166.687 661.076C167.614 661.593 168.704 661.734 169.731 661.47C170.759 661.207 171.646 660.559 172.209 659.66C172.772 658.761 172.968 657.68 172.756 656.64C172.545 655.6 171.942 654.681 171.072 654.073Z" fill="#DDC2FF"/>
<path opacity="0.2" d="M355.359 711.534C354.675 711.146 353.891 710.97 353.106 711.028C352.322 711.087 351.573 711.378 350.955 711.863C350.336 712.349 349.876 713.007 349.633 713.755C349.39 714.503 349.376 715.306 349.591 716.063C349.806 716.819 350.241 717.495 350.841 718.003C351.441 718.512 352.179 718.831 352.961 718.919C353.742 719.007 354.532 718.861 355.231 718.5C355.929 718.138 356.503 717.576 356.881 716.887C357.382 715.974 357.503 714.901 357.218 713.899C356.933 712.897 356.265 712.048 355.359 711.534Z" fill="#DDC2FF"/>
<path opacity="0.1" d="M434.189 667.46C435.781 668.347 437.79 667.777 438.677 666.186C439.564 664.596 438.993 662.587 437.401 661.7C435.81 660.812 433.801 661.382 432.914 662.973C432.027 664.563 432.598 666.572 434.189 667.46Z" fill="#DDC2FF"/>
<path opacity="0.1" d="M483.566 703.473C486.749 705.248 490.768 704.108 492.542 700.927C494.316 697.746 493.173 693.728 489.99 691.953C486.807 690.178 482.788 691.318 481.015 694.499C479.241 697.68 480.383 701.698 483.566 703.473Z" fill="#DDC2FF"/>
<path opacity="0.2" d="M660.408 650.5C662.6 651.723 665.367 650.938 666.589 648.747C667.811 646.557 667.024 643.79 664.832 642.568C662.64 641.345 659.873 642.13 658.651 644.321C657.43 646.512 658.217 649.278 660.408 650.5Z" fill="#DDC2FF"/>
<path opacity="0.1" d="M773.257 608.11C774.263 608.671 775.45 608.81 776.557 608.495C777.664 608.181 778.601 607.44 779.162 606.435C779.722 605.43 779.86 604.243 779.545 603.136C779.231 602.029 778.489 601.092 777.483 600.531C776.478 599.97 775.29 599.832 774.183 600.146C773.076 600.46 772.139 601.201 771.578 602.206C771.018 603.211 770.88 604.398 771.195 605.505C771.509 606.612 772.251 607.549 773.257 608.11Z" fill="#DDC2FF"/>
<path opacity="0.1" d="M834.602 606.681C834.937 606.092 835.089 605.416 835.038 604.741C834.988 604.065 834.738 603.419 834.319 602.886C833.901 602.353 833.333 601.956 832.688 601.746C832.044 601.537 831.351 601.523 830.699 601.708C830.047 601.893 829.465 602.268 829.027 602.785C828.589 603.302 828.315 603.937 828.239 604.611C828.164 605.284 828.291 605.965 828.604 606.566C828.916 607.167 829.401 607.662 829.996 607.987C830.782 608.417 831.705 608.521 832.567 608.276C833.428 608.032 834.159 607.459 834.602 606.681Z" fill="#DDC2FF"/>
<path opacity="0.2" d="M1016.81 617.178C1015.5 616.447 1014 616.122 1012.51 616.242C1011.01 616.361 1009.59 616.922 1008.41 617.852C1007.24 618.782 1006.36 620.039 1005.9 621.466C1005.44 622.892 1005.42 624.423 1005.83 625.866C1006.24 627.308 1007.06 628.596 1008.21 629.568C1009.35 630.54 1010.75 631.151 1012.24 631.325C1013.73 631.499 1015.24 631.228 1016.58 630.545C1017.91 629.862 1019.01 628.799 1019.74 627.49C1020.72 625.735 1020.96 623.662 1020.41 621.728C1019.86 619.794 1018.57 618.157 1016.81 617.178Z" fill="#DDC2FF"/>
<path opacity="0.4" d="M1108.67 623.594C1110.87 624.816 1113.63 624.031 1114.85 621.841C1116.08 619.65 1115.29 616.884 1113.1 615.661C1110.91 614.439 1108.14 615.224 1106.92 617.414C1105.7 619.605 1106.48 622.372 1108.67 623.594Z" fill="#DDC2FF"/>
<path opacity="0.3" d="M1254.75 609.634C1253.71 609.057 1252.53 608.8 1251.35 608.894C1250.17 608.989 1249.04 609.432 1248.11 610.167C1247.18 610.901 1246.49 611.895 1246.13 613.022C1245.77 614.149 1245.75 615.359 1246.07 616.498C1246.39 617.638 1247.05 618.656 1247.95 619.423C1248.85 620.191 1249.96 620.674 1251.14 620.812C1252.32 620.949 1253.51 620.735 1254.56 620.195C1255.62 619.656 1256.49 618.816 1257.06 617.782C1257.84 616.395 1258.03 614.757 1257.59 613.229C1257.16 611.701 1256.14 610.408 1254.75 609.634Z" fill="#DDC2FF"/>
<path opacity="0.2" d="M1382.64 605.043C1381.96 604.655 1381.17 604.479 1380.39 604.537C1379.6 604.596 1378.85 604.887 1378.24 605.372C1377.62 605.858 1377.16 606.516 1376.91 607.264C1376.67 608.012 1376.66 608.815 1376.87 609.572C1377.09 610.328 1377.52 611.004 1378.12 611.512C1378.72 612.021 1379.46 612.34 1380.24 612.428C1381.02 612.516 1381.81 612.37 1382.51 612.009C1383.21 611.647 1383.78 611.085 1384.16 610.396C1384.67 609.485 1384.8 608.409 1384.51 607.405C1384.23 606.401 1383.55 605.551 1382.64 605.043Z" fill="#DDC2FF"/>
<path opacity="0.2" d="M1347.68 684.142C1346.96 683.735 1346.14 683.55 1345.31 683.612C1344.49 683.674 1343.7 683.979 1343.05 684.49C1342.4 685 1341.92 685.692 1341.66 686.478C1341.41 687.264 1341.39 688.108 1341.62 688.903C1341.84 689.698 1342.3 690.408 1342.93 690.943C1343.56 691.478 1344.34 691.813 1345.16 691.906C1345.98 691.999 1346.81 691.845 1347.55 691.465C1348.28 691.085 1348.88 690.495 1349.28 689.771C1349.82 688.813 1349.95 687.681 1349.65 686.626C1349.35 685.57 1348.64 684.677 1347.68 684.142Z" fill="#DDC2FF"/>
</g>
</g>
<defs>
<filter id="filter0_f_1685_20838" x="420" y="-591" width="1448" height="1448" filterUnits="userSpaceOnUse" color-interpolation-filters="sRGB">
<feFlood flood-opacity="0" result="BackgroundImageFix"/>
<feBlend mode="normal" in="SourceGraphic" in2="BackgroundImageFix" result="shape"/>
<feGaussianBlur stdDeviation="150" result="effect1_foregroundBlur_1685_20838"/>
</filter>
<filter id="filter1_f_1685_20838" x="-636" y="-248" width="1448" height="1448" filterUnits="userSpaceOnUse" color-interpolation-filters="sRGB">
<feFlood flood-opacity="0" result="BackgroundImageFix"/>
<feBlend mode="normal" in="SourceGraphic" in2="BackgroundImageFix" result="shape"/>
<feGaussianBlur stdDeviation="150" result="effect1_foregroundBlur_1685_20838"/>
</filter>
<filter id="filter2_f_1685_20838" x="145" y="6" width="1194" height="1194" filterUnits="userSpaceOnUse" color-interpolation-filters="sRGB">
<feFlood flood-opacity="0" result="BackgroundImageFix"/>
<feBlend mode="normal" in="SourceGraphic" in2="BackgroundImageFix" result="shape"/>
<feGaussianBlur stdDeviation="150" result="effect1_foregroundBlur_1685_20838"/>
</filter>
<filter id="filter3_f_1685_20838" x="-212" y="-672" width="1448" height="1448" filterUnits="userSpaceOnUse" color-interpolation-filters="sRGB">
<feFlood flood-opacity="0" result="BackgroundImageFix"/>
<feBlend mode="normal" in="SourceGraphic" in2="BackgroundImageFix" result="shape"/>
<feGaussianBlur stdDeviation="150" result="effect1_foregroundBlur_1685_20838"/>
</filter>
<filter id="filter4_f_1685_20838" x="652" y="204" width="1278" height="1278" filterUnits="userSpaceOnUse" color-interpolation-filters="sRGB">
<feFlood flood-opacity="0" result="BackgroundImageFix"/>
<feBlend mode="normal" in="SourceGraphic" in2="BackgroundImageFix" result="shape"/>
<feGaussianBlur stdDeviation="150" result="effect1_foregroundBlur_1685_20838"/>
</filter>
<filter id="filter5_f_1685_20838" x="-803" y="-248" width="1278" height="1278" filterUnits="userSpaceOnUse" color-interpolation-filters="sRGB">
<feFlood flood-opacity="0" result="BackgroundImageFix"/>
<feBlend mode="normal" in="SourceGraphic" in2="BackgroundImageFix" result="shape"/>
<feGaussianBlur stdDeviation="150" result="effect1_foregroundBlur_1685_20838"/>
</filter>
<linearGradient id="paint0_linear_1685_20838" x1="-115" y1="-583" x2="1551" y2="1083" gradientUnits="userSpaceOnUse">
<stop stop-color="white"/>
<stop offset="1" stop-color="white" stop-opacity="0"/>
</linearGradient>
<linearGradient id="paint1_linear_1685_20838" x1="139" y1="-676" x2="1630" y2="815" gradientUnits="userSpaceOnUse">
<stop stop-color="white"/>
<stop offset="1" stop-color="white" stop-opacity="0"/>
</linearGradient>
<linearGradient id="paint2_linear_1685_20838" x1="678.5" y1="323" x2="1469" y2="-409.5" gradientUnits="userSpaceOnUse">
<stop stop-color="white"/>
<stop offset="1" stop-color="white" stop-opacity="0"/>
</linearGradient>
<clipPath id="clip0_1685_20838">
<rect width="1440" height="711" fill="white"/>
</clipPath>
<clipPath id="clip1_1685_20838">
<rect width="1926.61" height="1304.56" fill="white" transform="translate(361.133 -367.919) rotate(29.1458)"/>
</clipPath>
</defs>
</svg>
