<svg width="580" height="430" viewBox="0 0 580 430" fill="none" xmlns="http://www.w3.org/2000/svg">
<g clip-path="url(#clip0_210_13464)">
<path d="M388.927 46.3777H47.4707V293.069H388.927V46.3777Z" fill="#F2E5FF"/>
<path d="M382.027 80.4475H54.3711V286.826H382.027V80.4475Z" fill="white"/>
<path d="M388.868 46.5562H47.5898V74.2636H388.868V46.5562Z" fill="#8667E0"/>
<path d="M280.839 161.786H210.287V217.438H280.839V161.786Z" fill="#F2E5FF"/>
<path d="M129.682 212.087H186.909C191.787 212.087 195.772 208.104 195.772 203.228C195.772 198.352 191.787 194.369 186.909 194.369H129.682C124.804 194.369 120.818 198.352 120.818 203.228C120.818 208.104 124.804 212.087 129.682 212.087Z" fill="#F2E5FF"/>
<path d="M129.682 185.034H186.909C191.787 185.034 195.772 181.05 195.772 176.174C195.772 171.299 191.787 167.315 186.909 167.315H129.682C124.804 167.315 120.818 171.299 120.818 176.174C120.818 181.05 124.804 185.034 129.682 185.034Z" fill="#F2E5FF"/>
<path d="M281.136 227.368H115.346V256.622H281.136V227.368Z" fill="#F2E5FF"/>
<path d="M281.136 115.349H115.346V144.603H281.136V115.349Z" fill="#F2E5FF"/>
<path d="M66.7439 65.523C69.5365 65.523 71.8003 63.2603 71.8003 60.469C71.8003 57.6778 69.5365 55.4151 66.7439 55.4151C63.9513 55.4151 61.6875 57.6778 61.6875 60.469C61.6875 63.2603 63.9513 65.523 66.7439 65.523Z" fill="#F2E5FF"/>
<path d="M85.1267 65.166C87.9193 65.166 90.1831 62.9033 90.1831 60.1121C90.1831 57.3209 87.9193 55.0581 85.1267 55.0581C82.3341 55.0581 80.0703 57.3209 80.0703 60.1121C80.0703 62.9033 82.3341 65.166 85.1267 65.166Z" fill="#F2E5FF"/>
<path d="M103.388 65.1073C106.181 65.1073 108.445 62.8446 108.445 60.0534C108.445 57.2622 106.181 54.9995 103.388 54.9995C100.596 54.9995 98.332 57.2622 98.332 60.0534C98.332 62.8446 100.596 65.1073 103.388 65.1073Z" fill="#F2E5FF"/>
<path d="M35.5151 367.45L35.1582 377.201L49.0187 376.547L49.6136 364.834L35.5151 367.45Z" fill="#F3B8A7"/>
<path d="M80.7241 367.926L80.3672 377.677L94.2277 376.963L94.7631 365.31L80.7241 367.926Z" fill="#F3B8A7"/>
<path d="M74.0019 392.838V396.465L32.5393 396.584L32.0039 392.898L74.0019 392.838Z" fill="#7A73A0"/>
<path d="M119.211 392.72V396.287L77.6888 396.406L77.2129 392.72H119.211Z" fill="#7A73A0"/>
<path d="M34.4429 375.001L32.0039 392.838H74.0613C74.0613 392.838 74.6562 389.271 71.2654 388.379C67.8747 387.487 58.6542 386.357 55.2634 383.325C51.8726 380.233 49.7311 375.001 49.7311 375.001C44.4367 375.833 39.3208 375.774 34.4429 375.001Z" fill="#1B144E"/>
<path d="M79.5933 374.822L77.1543 392.66H119.212C119.212 392.66 119.807 389.092 116.416 388.2C113.025 387.249 103.805 386.179 100.414 383.146C97.023 380.054 94.8815 374.822 94.8815 374.822C89.5871 375.714 84.5307 375.595 79.5933 374.822Z" fill="#1B144E"/>
<path d="M96.3114 368.936C90.7196 371.909 83.6406 371.73 77.9299 368.401L73.4088 297.824L64.2478 251.922L51.815 369.055C43.9032 371.968 39.977 371.611 32.0652 369.055L31.6488 302.581L31.2324 234.085L44.2006 233.966L91.7309 233.55L95.0027 236.88C95.0027 236.88 95.0622 237.296 95.1217 238.009C95.8355 244.847 99.4047 280.7 99.7022 296.813C100.119 314.591 96.3114 368.936 96.3114 368.936Z" fill="#DCE1EE"/>
<path d="M96.3114 368.936C90.7196 371.909 83.6406 371.73 77.9299 368.401L73.4088 297.824L64.2478 251.922L51.815 369.055C43.9032 371.968 39.977 371.611 32.0652 369.055L31.6488 302.581L31.2324 234.085L44.2006 233.966L91.7309 233.55L95.0027 236.88C95.0027 236.88 95.0622 237.296 95.1217 238.009C95.8355 244.847 99.4047 280.7 99.7022 296.813C100.119 314.591 96.3114 368.936 96.3114 368.936Z" fill="#4B77BB"/>
<path d="M54.3136 239.377C54.3136 239.377 53.7187 258.82 51.6962 263.755C49.6736 268.571 39.0254 274.041 31.768 302.581L31.3516 234.085L44.3198 233.966L54.3136 239.377Z" fill="#96BCE4"/>
<path d="M106.959 182.416L112.016 188.896C112.016 188.896 129.981 175.816 138.666 170.405C138.666 170.405 154.073 153.876 157.88 153.519C161.687 153.162 152.526 164.043 152.526 164.043C152.526 164.043 155.62 168.978 152.348 173.318C149.076 177.659 143.841 176.232 143.841 176.232C143.841 176.232 114.574 210.004 106.067 207.864C97.5603 205.723 91.0762 190.442 91.0762 190.442L106.959 182.416Z" fill="#F3B8A7"/>
<path d="M83.4622 122.007C83.4622 122.007 86.5556 143.53 81.2612 147.514C75.9669 151.438 71.3863 149.298 71.3863 149.298L72.6951 163.151C72.6951 163.151 66.7463 164.697 61.0356 163.151C55.3248 161.606 55.9197 155.719 55.9197 155.719C55.9197 155.719 58.5371 149.595 58.7751 143.471C58.9535 137.347 52.6479 123.077 56.8715 120.698C61.0951 118.32 79.0602 111.899 83.4622 122.007Z" fill="#F3B8A7"/>
<path d="M70.0193 129.677C70.0193 129.677 69.365 123.731 73.767 123.553C78.1691 123.315 89.5906 121.769 90.6614 117.428C91.7321 113.029 84.0583 104.883 74.1834 111.066C74.1834 111.066 61.2152 108.45 59.2521 112.375C59.2521 112.375 49.3773 112.612 51.7568 122.899C54.1957 133.244 58.7168 144.185 58.7168 144.185C58.7168 144.185 61.6316 137.823 61.6316 134.731C61.6316 131.639 58.5383 126.169 62.5239 125.039C66.4501 123.969 67.9968 128.963 67.9968 128.963L70.0193 129.677Z" fill="#231F20"/>
<path d="M110.292 181.762C110.292 181.762 109.162 186.875 101.845 191.81C99.3467 193.475 96.1939 195.08 92.0893 196.507L97.0862 235.452C97.0862 235.452 85.3077 244.965 65.7364 244.787C60.9775 244.728 56.3969 244.133 52.1734 243.182C42.9528 241.16 35.5764 237.652 31.9477 235.749C30.4011 234.917 29.5682 234.441 29.5682 234.441L34.1487 214.88L34.9221 211.609L37.8964 197.399H37.7775C29.6872 196.567 24.7498 194.307 22.1323 192.642C20.4667 191.632 19.6934 190.799 19.6934 190.799C19.6934 190.799 26.7128 168.205 31.7098 161.308C36.7067 154.351 55.9211 155.719 55.9211 155.719C55.9211 155.719 57.8246 163.508 64.6657 163.211C70.0195 162.973 71.9826 156.076 71.9826 156.076C71.9826 156.076 88.758 154.887 94.6472 159.405C100.536 163.865 110.292 181.762 110.292 181.762Z" fill="url(#paint0_linear_210_13464)"/>
<path d="M71.327 149.239C71.327 149.239 66.6275 147.276 64.9023 146.206C64.9023 146.206 67.1034 151.32 71.8624 155.244L71.327 149.239Z" fill="#F79F8B"/>
<path d="M101.844 191.811C99.3456 193.476 96.1928 195.081 92.0882 196.508L88.8164 173.855C89.1733 174.568 94.7651 186.876 101.844 191.811C101.844 191.751 101.844 191.751 101.844 191.811Z" fill="#311D92"/>
<path d="M52.1715 243.182C42.951 241.161 35.5746 237.652 31.9459 235.75C30.3992 234.917 29.5664 234.442 29.5664 234.442L34.1469 214.88L34.9203 211.61L37.8946 197.399L39.0844 197.518L44.0218 177.065C43.7838 178.492 39.0844 208.161 44.8546 220.231C48.3644 227.604 50.8033 236.88 52.1715 243.182Z" fill="#311D92"/>
<path d="M50.9823 261.911H1.31055L5.2367 221.123H54.849L50.9823 261.911Z" fill="url(#paint1_linear_210_13464)"/>
<path d="M50.6846 220.826H1.07227V261.912H50.6846V220.826Z" fill="#3C2A7C"/>
<path d="M33.4323 261.852C34.3246 261.97 40.0354 261.911 40.0354 261.911C38.4887 265.478 28.138 269.997 22.9031 263.219C17.6682 256.381 17.3113 215.058 18.62 206.675C19.3934 201.799 21.1185 196.15 22.1298 192.642C24.7472 194.248 29.6846 196.507 37.7749 197.399C36.8826 201.264 34.1462 216.069 34.0867 216.723C33.5513 220.409 32.3021 228.377 31.7072 235.987C30.8744 246.809 29.6846 258.581 30.458 259.235C31.7072 260.365 37.4775 257.035 37.6559 258.938C37.7154 260.722 33.4323 261.852 33.4323 261.852Z" fill="#F3B8A7"/>
<path d="M180.427 396.167H0.00195312V427.918H180.427V396.167Z" fill="url(#paint2_linear_210_13464)"/>
<path d="M368.702 425.779H360.731L348.774 398.607L345.978 392.304L345.74 391.829L356.507 391.888H358.946L359.006 392.007L368.702 425.779Z" fill="#4B168F"/>
<path d="M371.259 349.435V386.061C371.259 389.272 368.701 391.829 365.489 391.829H298.507C295.354 391.829 292.736 389.272 292.736 386.061V349.435C292.736 346.224 295.294 343.668 298.507 343.668H365.549C367.393 343.668 369.058 344.56 370.129 345.927C370.784 346.878 371.259 348.127 371.259 349.435Z" fill="#6527B5"/>
<path d="M292.855 425.72H300.767L315.818 391.829L302.552 391.888L292.855 425.72Z" fill="#4B168F"/>
<path d="M315.818 391.829L299.697 402.174L302.553 391.888L315.818 391.829Z" fill="#320769"/>
<path d="M359.304 391.829L359.006 392.007L348.774 398.606L345.979 392.304L346.097 391.888H356.508L359.304 391.829Z" fill="#320769"/>
<path opacity="0.94" d="M370.07 345.927L292.736 358.235V349.435C292.736 346.224 295.294 343.668 298.507 343.668H365.549C367.333 343.668 368.999 344.56 370.07 345.927Z" fill="url(#paint3_linear_210_13464)"/>
<path d="M277.868 396.882C277.868 396.882 280.426 408.119 281.556 412.222C282.449 415.254 272.812 421.319 267.993 421.319C263.175 421.319 261.807 416.859 261.807 416.859C261.807 416.859 264.959 415.076 265.971 408.476C266.982 401.876 264.959 394.384 264.959 394.384L277.868 396.882Z" fill="#F3B8A7"/>
<path d="M281.495 410.497C281.495 410.497 272.81 419.476 268.111 419.476C263.411 419.476 261.746 416.919 261.746 416.919C261.746 416.919 249.729 424.411 247.528 427.562C245.387 430.713 263.352 430.475 267.575 428.454C271.799 426.432 272.87 420.962 275.547 420.843C278.223 420.724 280.603 426.908 280.603 426.908H287.325C287.385 426.967 284.232 412.816 281.495 410.497Z" fill="#1B144E"/>
<path d="M357.518 322.976C357.518 322.976 357.34 344.44 332.295 343.607C332.176 343.607 332.117 343.607 332.058 343.607C306.954 342.716 281.791 339.326 281.791 339.326L280.185 395.098C276.497 399.438 270.548 399.438 263.826 397.952C263.826 397.952 253.951 342.002 254.129 331.716C254.308 321.43 257.163 306.089 275.307 306.089C293.51 306.089 310.464 306.089 310.464 306.089L318.138 308.825L357.518 322.976Z" fill="url(#paint4_linear_210_13464)"/>
<path d="M357.519 322.976C357.519 322.976 357.34 344.44 332.296 343.608C332.177 343.608 332.118 343.608 332.058 343.608C334.735 340.337 336.52 336.651 335.628 333.024C333.07 322.797 307.49 307.457 307.49 307.457L318.198 308.825L357.519 322.976Z" fill="#433E64"/>
<path d="M299.698 234.621L283.101 223.74C283.101 223.74 262.399 197.341 259.068 193.238C255.737 189.136 245.683 175.698 244.315 175.877C243.006 175.996 248.301 185.271 248.539 186.757C248.777 188.244 244.969 190.741 247.349 195.26C249.728 199.779 254.487 200.017 254.487 200.017C254.487 200.017 268.586 227.367 272.809 232.005C277.033 236.643 290.358 248.296 290.358 248.296L299.698 234.621Z" fill="#F3B8A7"/>
<path d="M320.697 243.421L313.083 255.61L308.562 262.804L306.599 261.615L292.084 251.448L289.229 249.426C291.905 243.243 295.058 237.654 298.806 232.838L320.697 243.421Z" fill="url(#paint5_linear_210_13464)"/>
<path d="M313.617 251.745L308.621 262.745L306.657 261.556L292.143 251.388C299.519 254.064 306.42 254.718 313.617 251.745Z" fill="#4772B2"/>
<path d="M330.927 204.416L328.905 238.961L317.721 240.15L317.781 236.523L317.84 229.626C317.84 229.626 312.605 229.507 309.75 222.194C307.251 215.654 313.319 201.384 313.319 201.384L315.996 198.292L330.927 204.416Z" fill="#F3B8A7"/>
<path d="M258.235 241.519L270.846 235.454C271.56 235.097 272.393 235.395 272.69 236.108L284.588 260.426C284.944 261.08 284.647 261.913 283.993 262.27L271.679 268.988C270.965 269.345 270.073 269.107 269.775 268.394L257.58 243.421C257.283 242.708 257.58 241.876 258.235 241.519Z" fill="#C3D6EE"/>
<path d="M259.9 243.183L271.084 237.832L281.97 260.426L271.441 266.431L259.9 243.183Z" fill="url(#paint6_linear_210_13464)"/>
<path d="M322.005 229.389L317.781 236.582L317.841 229.686L322.005 229.389Z" fill="#F79F8B"/>
<path d="M270.548 398.607L265.135 320.538L265.789 320.598C290.833 322.619 329.143 323.452 331.641 317.803L332.831 318.16C332.236 319.468 330.214 323.868 297.555 323.333C283.457 323.095 269.537 322.084 266.325 321.846L271.619 398.607H270.548Z" fill="#6E82C0"/>
<path d="M249.252 362.218C249.252 362.218 246.159 373.396 245.386 377.321C244.791 380.412 233.31 381.066 229.086 378.748C224.863 376.429 225.815 371.85 225.815 371.85C225.815 371.85 229.443 371.85 233.548 366.559C237.593 361.267 239.437 353.775 239.437 353.775L249.252 362.218Z" fill="#F3B8A7"/>
<path d="M245.743 376.369C245.743 376.369 234.202 379.401 230.098 377.142C225.993 374.882 225.755 371.85 225.755 371.85C225.755 371.85 211.597 372.563 208.207 374.288C204.816 376.012 220.639 384.514 225.339 384.752C229.979 384.99 233.608 380.769 235.987 381.958C238.367 383.147 237.474 389.747 237.474 389.747L243.363 393.017C243.363 393.017 246.516 379.223 245.743 376.369Z" fill="#1B144E"/>
<path d="M310.01 305.833L289.112 305.717H289.11C287.94 305.717 286.822 306.301 286.225 307.293C286.225 307.294 286.224 307.295 286.224 307.296L251.291 362.958C246.072 362.442 241.656 359.44 237.543 355.304C237.591 355.179 237.662 354.995 237.755 354.754C237.941 354.271 238.215 353.564 238.566 352.662C239.268 350.858 240.28 348.279 241.517 345.176C243.992 338.971 247.368 330.674 250.977 322.305C254.586 313.935 258.425 305.498 261.824 299.012C263.524 295.768 265.11 293.02 266.499 291.014C267.194 290.011 267.834 289.2 268.41 288.608C268.993 288.009 269.482 287.662 269.87 287.541L269.872 287.541C270.755 287.261 271.989 287.175 273.497 287.256C274.999 287.336 276.746 287.579 278.643 287.94C282.436 288.662 286.8 289.847 290.937 291.109C295.073 292.371 298.976 293.707 301.845 294.728C303.279 295.239 304.455 295.67 305.272 295.974C305.681 296.126 305.999 296.246 306.216 296.328C306.297 296.358 306.364 296.384 306.416 296.403L310.01 305.833Z" fill="url(#paint7_linear_210_13464)" stroke="black" stroke-width="0.627692"/>
<path d="M243.246 360.316L242.234 359.781C247.588 349.494 274.417 298.301 278.522 297.766C282.626 297.29 308.741 304.306 309.871 304.604L310.407 305.971C301.186 303.414 281.734 298.539 278.641 298.896C275.726 299.669 255.381 337.008 243.246 360.316Z" fill="#6E82C0"/>
<path d="M358.53 323.987C358.53 323.987 325.455 317.863 312.785 310.906C305.944 307.101 305.884 303.771 306.182 299.312C306.36 296.993 306.598 294.377 305.944 291.226C304.516 284.091 306.776 265.778 306.776 264.945C306.776 264.945 306.895 264.351 307.074 263.34C307.669 260.188 309.096 253.113 310.643 248.773C312.666 243.124 317.484 238.665 317.484 238.665C317.484 238.665 333.665 235.454 338.305 238.427C342.945 241.459 353.355 261.615 356.508 286.35C359.779 311.976 358.53 323.987 358.53 323.987Z" fill="url(#paint8_linear_210_13464)"/>
<path d="M307.372 271.247L302.078 279.631L271.918 266.966C271.918 266.966 271.382 254.123 270.074 253.053C268.765 251.983 266.921 259.95 266.921 259.95L261.329 250.793C261.329 250.793 260.199 262.626 264.66 267.144C269.181 271.663 302.078 297.944 307.907 297.23C313.737 296.576 322.66 281.593 323.315 278.382C323.969 275.171 307.372 271.247 307.372 271.247Z" fill="#F3B8A7"/>
<path d="M302.732 271.248C309.93 276.242 317.188 280.464 324.445 283.258C324.445 283.258 342.767 250.437 331.524 243.005C318.913 234.562 310.228 251.507 302.732 271.248Z" fill="url(#paint9_linear_210_13464)"/>
<path d="M321.29 204.297C321.29 204.297 310.642 202.335 309.512 194.962C309.512 194.962 317.126 183.487 324.681 192.881C324.681 192.881 334.556 186.936 340.207 192.703C345.858 198.53 340.386 212.562 342.765 219.637C345.204 226.713 358.41 221.599 358.767 233.372C359.065 245.145 345.026 260.485 331.641 252.399C318.256 244.312 322.896 231.41 323.908 225.108C324.859 218.805 319.862 214.286 321.29 204.297Z" fill="#231F20"/>
<path d="M394.28 9.95854L317.607 31.327L365.654 203.555L442.327 182.187L394.28 9.95854Z" fill="#4B168F"/>
<path d="M396.479 6.8682L319.807 28.2366L367.853 200.465L444.526 179.097L396.479 6.8682Z" fill="#F2E5FF"/>
<path d="M391.873 22.356L330.672 39.4124L338.054 65.8738L399.255 48.8174L391.873 22.356Z" fill="white"/>
<path d="M401.327 55.6148L339.84 72.7509L342.124 80.9405L403.611 63.8044L401.327 55.6148Z" fill="white"/>
<path d="M405.379 70.2491L343.893 87.3852L346.177 95.5748L407.664 78.4387L405.379 70.2491Z" fill="white"/>
<path d="M392.081 167.671C407.785 167.671 420.516 154.947 420.516 139.25C420.516 123.554 407.785 110.829 392.081 110.829C376.377 110.829 363.646 123.554 363.646 139.25C363.646 154.947 376.377 167.671 392.081 167.671Z" fill="#8667E0"/>
<path d="M442.882 107.024C442.882 107.024 441.276 112.375 443.358 120.045C445.44 127.775 448.593 130.986 448.593 130.986C448.593 130.986 450.259 122.84 448.593 116.181C446.927 109.521 442.882 107.024 442.882 107.024Z" fill="#4772B2"/>
<path d="M506.295 166.72C506.295 166.72 506.473 188.125 506.89 195.617C507.306 203.109 513.136 248.832 513.136 248.832L523.725 248.237C523.725 248.237 524.974 205.011 524.557 198.768L530.804 169.277L506.295 166.72Z" fill="#FAB18E"/>
<path d="M472.802 161.072C472.802 161.072 469.828 187.293 469.828 193.001C469.828 198.708 476.491 248.475 476.491 248.475L487.615 247.761C487.615 247.761 488.329 206.2 487.853 200.492L496.002 164.58L472.802 161.072Z" fill="#FAB18E"/>
<path d="M482.322 118.916C482.322 118.916 472.983 143.056 471.02 164.877C471.02 164.877 498.562 177.957 531.459 170.822C531.459 170.822 541.393 122.661 518.371 105.478C518.371 105.478 506.712 122.305 482.322 118.916Z" fill="#3D2276"/>
<path d="M455.85 19.9778C455.613 20.1561 456.326 40.7286 465.012 42.988C470.722 44.4745 472.983 42.7502 472.983 42.7502L472.09 48.5176C472.09 48.5176 468.7 57.7336 477.444 55.9498C486.129 54.1661 485.773 47.3284 485.773 47.3284L483.572 40.1935C483.572 40.1935 488.925 19.5616 478.872 16.113C468.878 12.6644 464.952 13.7941 455.85 19.9778Z" fill="#FAB18E"/>
<path d="M470.364 20.3347C470.364 20.3347 467.152 24.3778 461.977 23.367C456.801 22.3563 455.79 21.7022 455.79 21.7022L456.444 27.648C456.444 27.648 454.66 29.9074 451.507 26.7562C448.354 23.6049 449.96 17.9564 453.767 15.3997C457.574 12.843 460.013 8.02689 468.401 8.02689C476.789 8.02689 482.024 10.2863 484.998 14.6267C488.032 18.9672 488.21 28.8966 487.14 32.8209C486.009 36.7451 483.451 39.8369 483.451 39.8369C483.451 39.8369 479.109 35.7343 478.871 32.702C478.633 29.6696 482.083 26.1021 479.228 23.5454C476.313 20.9887 474.231 26.1021 474.231 26.1021L470.364 20.3347Z" fill="#231F20"/>
<path d="M474.468 8.978C474.468 8.978 471.136 1.60522 478.156 0.178227C485.175 -1.24876 494.634 4.8754 492.135 11.832C489.637 18.7886 484.521 15.9346 484.521 15.9346L474.051 8.74017" fill="#231F20"/>
<path d="M527.115 274.933C527.115 274.933 527.174 278.917 526.817 280.939C526.46 282.96 509.923 285.101 503.736 285.101C499.751 285.101 496.598 284.625 494.873 284.328C493.98 284.149 493.386 283.436 493.326 282.544L493.207 278.62L527.115 274.933Z" fill="#7A73A0"/>
<path d="M514.088 256.264L512.779 245.799L523.844 245.74L523.487 256.145L514.088 256.264Z" fill="#6E82C0"/>
<path d="M490.649 275.588C490.649 275.588 490.768 279.096 490.411 281.117C490.054 283.139 473.517 285.28 467.33 285.28C463.642 285.28 460.668 284.863 458.883 284.566C457.812 284.388 456.979 283.436 456.979 282.307L456.92 278.739L490.649 275.588Z" fill="#7A73A0"/>
<path d="M477.087 256.383L476.135 245.978L487.616 245.621L487.675 256.442L477.087 256.383Z" fill="#6E82C0"/>
<path d="M512.243 256.026L524.438 255.67C524.438 255.67 528.424 273.685 526.996 275.826C525.569 278.026 500.643 282.545 494.457 279.988C488.27 277.431 507.187 270.356 509.031 266.194C510.875 262.032 512.243 256.026 512.243 256.026Z" fill="#1B144E"/>
<path d="M475.837 256.205L488.032 255.848C488.032 255.848 492.018 273.864 490.59 276.004C489.162 278.204 464.237 282.723 458.051 280.166C451.864 277.61 470.781 270.534 472.625 266.372C474.469 262.21 475.837 256.205 475.837 256.205Z" fill="#1B144E"/>
<path d="M444.368 110.651C444.368 110.651 439.014 112.375 437.527 112.375C436.04 112.375 427.95 111.008 427.474 112.137C426.998 113.267 431.578 114.516 432.947 116.002C434.315 117.488 427.95 118.618 426.106 118.618C424.262 118.618 423.369 124.861 424.737 126.942C426.106 129.083 432.054 129.677 435.445 127.537C438.776 125.396 444.785 121.829 446.867 121.294C448.949 120.759 444.368 110.651 444.368 110.651Z" fill="#FAB18E"/>
<path d="M518.252 105.418C514.385 113.921 508.02 118.499 499.751 119.867C494.635 120.699 488.805 120.342 482.321 118.856L481.37 114.872C466.26 126.229 448.652 130.985 448.652 130.985C447.938 120.402 442.881 107.024 442.881 107.024C442.881 107.024 461.858 101.554 473.755 95.8457L473.517 95.0133C472.863 93.7052 470.602 90.6134 467.331 88.5918C462.036 85.3216 460.787 81.6947 460.787 81.6947L424.619 106.964L418.789 86.2135C418.789 86.2135 448.89 70.3977 456.563 60.5871C464.237 50.7766 472.149 48.5766 472.149 48.5766C472.149 48.5766 471.911 53.6305 477.205 53.8684C482.5 54.1062 485.831 47.3875 485.831 47.3875C485.831 47.3875 505.759 48.3388 507.663 55.2954C508.674 58.8628 509.269 64.987 507.603 73.0138C508.139 75.3327 513.433 98.2835 518.252 105.418Z" fill="url(#paint10_linear_210_13464)"/>
<path opacity="0.59" d="M497.431 113.148C497.966 115.229 498.858 117.667 499.751 119.867C494.635 120.699 488.805 120.343 482.321 118.856L481.369 114.872L493.802 106.489L504.093 81.2787C503.617 82.7651 496.181 108.332 497.431 113.148Z" fill="#4772B2"/>
<path opacity="0.59" d="M461.025 81.3978C461.025 81.3978 457.813 75.1547 461.442 65.4631C461.442 65.4631 448.771 90.1382 445.559 92.2786L461.025 81.3978Z" fill="#4772B2"/>
<path opacity="0.59" d="M473.815 95.846C473.815 95.846 478.277 93.8244 479.942 92.6353C481.608 91.4461 494.1 65.2846 494.1 65.2846C494.1 65.2846 478.634 91.1488 472.863 93.2298C472.863 93.2893 473.637 95.9054 473.815 95.846Z" fill="#4772B2"/>
<path d="M452.698 425.719C452.58 425.719 452.401 425.719 452.282 425.659C451.33 425.421 450.795 424.47 451.033 423.578L495.351 245.323C496.005 242.707 498.147 240.923 500.824 240.745C503.501 240.567 505.88 241.994 506.891 244.431L579.882 417.335C580.239 418.227 579.823 419.238 578.93 419.595C578.038 419.951 577.027 419.535 576.67 418.643L503.679 245.739C503.144 244.431 501.954 244.075 501.062 244.134C500.169 244.194 499.039 244.788 498.742 246.096L454.424 424.351C454.186 425.184 453.472 425.719 452.698 425.719Z" fill="#220C88"/>
<path d="M399.874 425.719C399.755 425.719 399.577 425.719 399.458 425.66C398.506 425.422 397.971 424.47 398.209 423.579L442.527 245.324C443.181 242.707 445.322 240.924 447.999 240.745C450.676 240.508 453.056 241.994 454.067 244.432L527.058 417.276C527.415 418.168 526.998 419.179 526.106 419.535C525.214 419.892 524.202 419.476 523.846 418.584L450.855 245.74C450.319 244.432 449.13 244.075 448.237 244.134C447.345 244.194 446.215 244.789 445.917 246.097L401.599 424.352C401.361 425.184 400.648 425.719 399.874 425.719Z" fill="#220C88"/>
<path d="M433.95 282.825L433.941 286.273L521.982 286.49L521.991 283.042L433.95 282.825Z" fill="#220C88"/>
<path d="M537.885 322.975H486.131V326.423H537.885V322.975Z" fill="#220C88"/>
<path d="M477.266 322.975H424.441V326.423H477.266V322.975Z" fill="#220C88"/>
<path d="M467.034 362.276H414.982V365.724H467.034V362.276Z" fill="#220C88"/>
<path d="M457.396 401.104H404.869V404.552H457.396V401.104Z" fill="#220C88"/>
<path d="M554.659 361.088H502.607V364.536H554.659V361.088Z" fill="#220C88"/>
<path d="M571.078 399.914H518.551V403.362H571.078V399.914Z" fill="#220C88"/>
<path d="M473.041 42.7504C473.041 42.7504 476.61 40.9074 477.919 39.54C477.919 39.54 477.8 44.6528 472.387 47.2092L473.041 42.7504Z" fill="#F79F8B"/>
</g>
<defs>
<linearGradient id="paint0_linear_210_13464" x1="29073.9" y1="40850.9" x2="24869.3" y2="49392.1" gradientUnits="userSpaceOnUse">
<stop stop-color="#4B35AD"/>
<stop offset="1" stop-color="#B7A7FF"/>
</linearGradient>
<linearGradient id="paint1_linear_210_13464" x1="6306.48" y1="37917.3" x2="7215.32" y2="38727.7" gradientUnits="userSpaceOnUse">
<stop stop-color="#ADA9D4"/>
<stop offset="0.4" stop-color="#A9A5D1"/>
<stop offset="0.83" stop-color="#9F97C9"/>
<stop offset="1" stop-color="#9990C5"/>
</linearGradient>
<linearGradient id="paint2_linear_210_13464" x1="132345" y1="25468.7" x2="132345" y2="17914.9" gradientUnits="userSpaceOnUse">
<stop stop-color="#02164A"/>
<stop offset="1" stop-color="#220B88"/>
</linearGradient>
<linearGradient id="paint3_linear_210_13464" x1="25092.7" y1="6991.1" x2="24930.9" y2="8709.13" gradientUnits="userSpaceOnUse">
<stop stop-color="#3820A2"/>
<stop offset="1" stop-color="#AD9DF8"/>
</linearGradient>
<linearGradient id="paint4_linear_210_13464" x1="283.741" y1="374.164" x2="326.375" y2="319.743" gradientUnits="userSpaceOnUse">
<stop stop-color="#7468AE"/>
<stop offset="0.22" stop-color="#7165AA"/>
<stop offset="0.45" stop-color="#695E9C"/>
<stop offset="0.7" stop-color="#5B5287"/>
<stop offset="0.84" stop-color="#504876"/>
<stop offset="1" stop-color="#433E64"/>
</linearGradient>
<linearGradient id="paint5_linear_210_13464" x1="11817.5" y1="15787.7" x2="11739" y2="18168.8" gradientUnits="userSpaceOnUse">
<stop stop-color="#6E82C0"/>
<stop offset="1" stop-color="#4B77BB"/>
</linearGradient>
<linearGradient id="paint6_linear_210_13464" x1="264.723" y1="262.546" x2="277.012" y2="241.251" gradientUnits="userSpaceOnUse">
<stop stop-color="#F6F8FC" stop-opacity="0"/>
<stop offset="0.8006" stop-color="#E9EDF7" stop-opacity="0.8006"/>
<stop offset="1" stop-color="#E5EAF6"/>
</linearGradient>
<linearGradient id="paint7_linear_210_13464" x1="38465.8" y1="54831.4" x2="32461.1" y2="56903" gradientUnits="userSpaceOnUse">
<stop stop-color="#7468AE"/>
<stop offset="0.22" stop-color="#7165AA"/>
<stop offset="0.46" stop-color="#685E9C"/>
<stop offset="0.71" stop-color="#5A5287"/>
<stop offset="0.97" stop-color="#464068"/>
<stop offset="1" stop-color="#433E64"/>
</linearGradient>
<linearGradient id="paint8_linear_210_13464" x1="20108.9" y1="43746.5" x2="13572.3" y2="54489.5" gradientUnits="userSpaceOnUse">
<stop stop-color="#6E82C0"/>
<stop offset="1" stop-color="#4B77BB"/>
</linearGradient>
<linearGradient id="paint9_linear_210_13464" x1="12187.3" y1="22289" x2="12034.5" y2="25660.8" gradientUnits="userSpaceOnUse">
<stop stop-color="#6E82C0"/>
<stop offset="1" stop-color="#4B77BB"/>
</linearGradient>
<linearGradient id="paint10_linear_210_13464" x1="86233.1" y1="46565.4" x2="91698.6" y2="52845.4" gradientUnits="userSpaceOnUse">
<stop stop-color="#6E82C0"/>
<stop offset="1" stop-color="#4B77BB"/>
</linearGradient>
<clipPath id="clip0_210_13464">
<rect width="580" height="430" fill="white"/>
</clipPath>
</defs>
</svg>
