<svg width="652" height="404" viewBox="0 0 652 404" fill="none" xmlns="http://www.w3.org/2000/svg">
<g clip-path="url(#clip0_215_6231)">
<path d="M574.932 358.339L577.18 378.131L596.29 375.751L593.043 353.077L574.932 358.339Z" fill="#FFCBC3"/>
<path d="M508.423 350.822L501.678 374.248L517.603 378.444L525.222 355.582L508.423 350.822Z" fill="#FFCBC3"/>
<path d="M536.027 162.54L571.25 361.847L597.23 357.65C597.23 357.65 590.735 293.762 589.549 269.146C588.175 241.085 589.424 165.547 589.424 165.547L536.027 162.54Z" fill="url(#paint0_linear_215_6231)"/>
<path d="M584.489 150.701C584.489 150.701 589.36 155.65 589.36 181.142C589.36 217.471 567.252 252.547 553.325 292.383C542.958 322.01 525.597 361.909 525.597 361.909L503.926 356.084L539.336 153.583L584.489 150.701Z" fill="url(#paint1_linear_215_6231)"/>
<path d="M544.268 43.8451C543.956 52.2383 534.9 54.2427 533.651 47.1022L532.153 38.8969C532.153 38.8969 516.977 48.6054 509.67 24.1149C509.42 23.1754 509.108 22.1732 508.858 21.1084C506.735 15.7217 526.594 10.1471 528.281 11.9009C529.967 13.7174 533.027 21.2337 533.027 21.2337C532.09 17.8513 534.151 15.6591 535.65 15.9723C537.773 16.4107 536.462 20.7326 536.649 23.1127C536.836 25.4929 540.084 29.8147 540.084 29.8147L544.268 43.8451Z" fill="#FFCBC3"/>
<path d="M548.704 44.4088C546.33 44.9098 544.582 45.0351 544.582 45.0351L544.207 43.845H544.269C545.831 43.845 547.33 44.0329 548.704 44.4088Z" fill="#41337E"/>
<path d="M519.354 37.6435C519.354 37.6435 514.233 44.9718 518.48 47.1014C522.726 49.2311 533.78 47.8531 533.78 47.8531L532.219 37.3929C532.219 37.3303 524.288 42.3411 519.354 37.6435Z" fill="#231F20"/>
<path d="M561.384 36.5159C559.323 41.3388 553.015 43.4684 548.706 44.408C547.269 44.0321 545.833 43.7816 544.272 43.8442H544.209L540.212 29.7512C540.212 29.7512 538.026 27.6216 536.715 24.3019C535.403 20.9822 538.401 17.2867 535.279 16.7856C532.281 16.2845 533.093 21.2328 533.093 21.2328C531.282 20.3559 527.222 16.1593 527.222 16.1593C520.602 18.79 516.543 14.0923 516.543 14.0923C516.543 14.0923 516.106 21.6086 509.985 25.0535C509.985 25.0535 504.49 19.6669 507.362 12.9022C509.985 6.70129 515.294 8.45508 515.294 8.45508C515.294 8.45508 520.665 -2.13034 529.283 0.375084C537.902 2.88051 536.59 10.7726 544.834 17.6625C553.14 24.6151 564.631 29.0622 561.384 36.5159Z" fill="#231F20"/>
<path d="M442.285 279.981H365.094V288.312H442.285V279.981Z" fill="#6527B5"/>
<path d="M369.528 396.859H365.344L375.961 291.631C376.273 289.627 378.022 288.186 380.02 288.186H429.232C431.293 288.186 433.042 289.69 433.354 291.757L442.535 396.922H438.225L429.669 295.765C429.357 293.761 427.609 292.195 425.548 292.195H383.455C381.456 292.195 379.708 293.636 379.395 295.64L369.528 396.859Z" fill="#4B168F"/>
<path d="M378.396 152.518L369.34 174.378C369.34 174.378 326.061 200.685 320.503 202.063C314.945 203.441 303.703 205.821 299.769 210.393L298.832 212.711C298.832 212.711 308.262 213.087 309.886 210.895C310.198 210.519 310.511 210.143 310.823 209.892C311.76 209.078 313.196 209.955 313.009 211.145C312.821 212.21 313.945 213.024 314.945 212.586C317.505 211.396 321.377 209.454 322.252 208.326C323.376 206.886 364.781 192.354 379.208 187.156C381.706 186.279 383.767 184.337 384.766 181.894L394.446 158.782L378.396 152.518Z" fill="#FFCBC3"/>
<path d="M315.444 396.859H308.762L289.214 330.966L287.216 324.201L262.984 242.65H269.667L315.444 396.859Z" fill="url(#paint2_linear_215_6231)"/>
<path d="M286.092 377.38L288.215 361.658L305.389 364.978L301.143 380.324L286.092 377.38Z" fill="#F8B3AE"/>
<path d="M343.113 383.644L342.176 367.797H359.725L358.476 383.644H343.113Z" fill="#F8B3AE"/>
<path d="M394.323 84.9342C394.323 84.9342 394.26 84.9342 394.072 84.9969" stroke="#231F20" stroke-width="0.497126" stroke-miterlimit="10"/>
<path d="M470.7 165.671C470.7 165.671 470.013 165.859 468.826 166.172C467.14 156.589 464.017 142.997 464.017 142.997L448.404 150.075L449.966 168.177L452.089 192.479L455.399 229.497H376.897L391.51 167.738L389.637 167.237C389.637 167.237 371.151 159.971 371.651 158.906C382.892 133.602 383.267 112.18 420.863 112.18C459.833 112.18 465.828 134.04 470.7 165.671Z" fill="url(#paint3_linear_215_6231)"/>
<path d="M426.735 112.368C421.739 122.891 414.994 115.563 414.994 112.368L415.056 105.729C415.056 105.729 399.069 113.997 394.072 88.9427C393.885 88.0031 393.698 87.001 393.573 85.8735C391.949 80.2989 412.246 76.5408 413.745 78.4825C415.244 80.4242 417.617 88.191 417.617 88.191C416.992 84.7461 419.241 82.7417 420.677 83.1802C422.738 83.8065 421.052 88.0031 421.052 90.3833C421.052 92.7634 423.862 97.3358 423.862 97.3358L426.735 112.368Z" fill="#FFCBC3"/>
<path d="M427.672 88.6298C426.36 96.6472 423.862 97.3362 423.862 97.3362C423.862 97.3362 421.052 92.7638 421.052 90.3836C421.052 88.0035 422.738 83.8069 420.677 83.1805C419.24 82.7421 416.93 84.7464 417.617 88.1914C417.617 88.1914 415.244 80.4246 413.745 78.4829C412.246 76.5412 391.949 80.2367 393.573 85.8739C393.698 86.9387 393.885 87.9409 394.072 88.943C392.261 89.3188 381.519 91.2605 380.52 82.241C379.459 72.2819 387.015 69.2754 387.015 69.2754C387.015 69.2754 387.89 73.1588 392.199 72.5325C396.508 71.9061 404.627 64.014 412.059 64.9536C414.432 65.2667 414.869 69.4633 414.869 69.4633C414.869 69.4633 418.179 65.8931 421.177 67.5216C425.111 69.6512 428.983 80.6125 427.672 88.6298Z" fill="#231F20"/>
<path d="M423.675 277.538C392.573 283.802 371.527 286.37 371.527 286.37L360.348 372.181H340.551C340.551 372.181 338.053 316.686 342.487 283.865C343.923 273.404 346.047 265.262 349.169 261.88C362.222 248.037 422.238 229.497 422.238 229.497H451.84C451.965 229.497 462.707 269.709 423.675 277.538Z" fill="url(#paint4_linear_215_6231)"/>
<path d="M422.363 229.497C422.363 229.497 362.346 248.037 349.294 261.88C346.109 265.199 343.985 273.404 342.611 283.865L334.055 286.495C330.121 292.634 306.264 365.542 306.264 365.542L286.654 363.788C286.654 363.788 300.144 275.597 314.071 256.806C327.998 238.015 384.142 229.497 384.142 229.497H422.363Z" fill="url(#paint5_linear_215_6231)"/>
<path d="M576.369 371.68C576.369 371.68 579.429 375.313 587.236 373.872C595.042 372.432 595.229 368.235 595.229 368.235C595.229 368.235 599.726 372.619 599.414 380.386C599.102 388.153 599.414 396.546 599.414 396.546H597.103C597.103 396.546 596.791 387.026 590.983 384.959C585.175 382.892 583.488 395.92 576.307 396.546C569.125 397.11 544.581 396.546 544.581 396.546C544.581 396.546 544.269 392.788 556.134 389.343C568 385.836 576.369 371.68 576.369 371.68Z" fill="#1B144E"/>
<path d="M502.115 371.68C502.115 371.68 505.175 375.313 512.982 373.872C520.788 372.432 520.976 368.235 520.976 368.235C520.976 368.235 525.472 372.619 525.16 380.386C524.848 388.216 525.16 396.546 525.16 396.546H522.849C522.849 396.546 522.537 387.026 516.729 384.959C510.921 382.892 509.235 395.92 502.053 396.546C494.871 397.11 470.327 396.546 470.327 396.546C470.327 396.546 470.015 392.788 481.881 389.343C493.747 385.898 502.115 371.68 502.115 371.68Z" fill="#1B144E"/>
<path d="M284.781 375.501L302.892 379.009C302.892 379.009 304.454 391.411 301.019 393.728L280.534 389.469L280.909 387.402L268.981 387.465L246.186 383.08C246.186 383.08 245.624 379.322 257.552 378.696C269.543 378.007 284.781 375.501 284.781 375.501Z" fill="#1B144E"/>
<path d="M341.486 382.015H359.909C359.909 382.015 363.781 393.916 360.846 396.797L339.924 396.546V394.479L328.246 396.797H305.076C305.076 396.797 303.827 393.227 315.443 390.283C326.997 387.402 341.486 382.015 341.486 382.015Z" fill="#1B144E"/>
<path d="M345.86 194.233H223.454C218.333 194.233 213.836 190.037 213.399 184.9L206.654 98.0248C206.28 92.8887 210.089 88.6921 215.21 88.6921H337.616C342.737 88.6921 347.234 92.8887 347.671 98.0248L354.416 184.9C354.853 190.099 350.981 194.233 345.86 194.233Z" fill="#3C2A7C"/>
<path d="M583.802 235.385H173.305V242.651H583.802V235.385Z" fill="#1B144E"/>
<path d="M604.036 220.853H151.508V235.385H604.036V220.853Z" fill="#22146B"/>
<path d="M281.096 220.854H253.555C244.187 220.854 247.497 209.642 247.497 209.642L266.233 158.281H293.774L275.039 209.642C275.039 209.642 273.415 215.154 275.663 218.474C276.662 219.852 278.286 220.854 281.096 220.854Z" fill="#5B4D7D"/>
<path d="M296.209 218.473V220.854H281.033C278.223 220.854 276.599 219.851 275.662 218.473H296.209Z" fill="#3C2A7C"/>
<path d="M306.951 184.275H296.959V186.655H306.951V184.275Z" fill="url(#paint6_linear_215_6231)"/>
<path d="M321.065 184.275H311.072V186.655H321.065V184.275Z" fill="url(#paint7_linear_215_6231)"/>
<path d="M335.244 184.275H325.252V186.655H335.244V184.275Z" fill="url(#paint8_linear_215_6231)"/>
<path d="M248.747 187.219C249.712 187.219 250.495 186.433 250.495 185.465C250.495 184.496 249.712 183.711 248.747 183.711C247.781 183.711 246.998 184.496 246.998 185.465C246.998 186.433 247.781 187.219 248.747 187.219Z" fill="url(#paint9_linear_215_6231)"/>
<path d="M238.754 187.219C239.72 187.219 240.503 186.433 240.503 185.465C240.503 184.496 239.72 183.711 238.754 183.711C237.789 183.711 237.006 184.496 237.006 185.465C237.006 186.433 237.789 187.219 238.754 187.219Z" fill="url(#paint10_linear_215_6231)"/>
<path d="M229.387 187.219C230.353 187.219 231.136 186.433 231.136 185.465C231.136 184.496 230.353 183.711 229.387 183.711C228.422 183.711 227.639 184.496 227.639 185.465C227.639 186.433 228.422 187.219 229.387 187.219Z" fill="url(#paint11_linear_215_6231)"/>
<path d="M200.097 242.65L175.928 324.201L173.929 330.966L154.382 396.859H147.699L193.477 242.65H200.097Z" fill="url(#paint12_linear_215_6231)"/>
<path d="M289.216 330.967H173.93L175.928 324.203H287.218L289.216 330.967Z" fill="url(#paint13_linear_215_6231)"/>
<path d="M498.806 242.65L474.637 324.202L472.638 330.967L453.091 396.859H446.408L492.123 242.65H498.806Z" fill="url(#paint14_linear_215_6231)"/>
<path d="M614.091 396.859H607.471L587.923 330.967L585.925 324.202L561.693 242.65H568.376L614.091 396.859Z" fill="url(#paint15_linear_215_6231)"/>
<path d="M587.923 330.966H472.637L474.635 324.202H585.925L587.923 330.966Z" fill="#1754AE"/>
<path d="M587.923 330.966H472.637L474.635 324.202H585.925L587.923 330.966Z" fill="url(#paint16_linear_215_6231)"/>
<path d="M652.002 396.797H23.5469V403.938H652.002V396.797Z" fill="#1B144E"/>
<path d="M383.831 220.854H306.578C305.204 220.854 304.018 219.726 304.018 218.286C304.018 216.845 305.142 215.718 306.578 215.718H383.582H383.644C382.27 215.78 381.271 216.908 381.271 218.223C381.271 219.726 382.395 220.854 383.831 220.854Z" fill="#5B4D7D"/>
<path d="M406.5 219.287V220.853H383.768C382.331 220.853 381.207 219.725 381.207 218.285C381.207 216.907 382.269 215.842 383.58 215.779L406.5 219.287Z" fill="#3C2A7C"/>
<path d="M468.826 166.173C465.454 166.987 457.897 168.49 450.028 168.177L448.467 150.075L464.08 142.997C464.017 142.997 467.14 156.589 468.826 166.173Z" fill="#6E82C0"/>
<path d="M469.766 175.067C469.266 177.697 461.46 184.838 452.154 192.479C438.977 203.19 422.864 214.84 419.929 215.78C414.933 217.471 404.628 214.84 403.129 215.78C401.63 216.719 393.449 216.344 393.449 216.344C393.449 216.344 398.32 209.892 403.629 209.14C408.937 208.389 415.745 207.637 415.745 207.637L450.718 175.63L450.093 168.177C458.025 168.49 465.519 166.987 468.891 166.172C469.578 170.432 470.016 173.939 469.766 175.067Z" fill="#FFCBC3"/>
<path d="M560.571 51.7998C560.571 51.7998 555.388 46.2252 548.705 44.4088C546.332 44.9098 544.583 45.0351 544.583 45.0351L544.209 43.845C539.837 43.9703 534.404 46.4131 530.844 48.2922C528.533 49.4822 526.972 51.6745 526.472 54.2425C525.848 57.437 524.286 62.8236 520.414 70.7157C516.917 77.9815 519.04 84.3703 522.6 91.3229C514.481 103.913 505.801 116.878 500.492 122.954L502.678 126.274L511.109 139.114L514.169 143.749C514.169 143.749 524.099 132.287 533.967 120.01C535.84 138.174 528.845 163.667 527.596 166.172C526.222 168.928 558.822 170.62 558.822 170.62L561.945 160.285L564.318 170.62L591.797 167.864C591.86 167.864 587.675 80.0484 560.571 51.7998Z" fill="url(#paint17_linear_215_6231)"/>
<path d="M511.171 139.114C500.741 139.865 453.465 143.623 451.904 145.816C450.155 148.258 443.847 148.071 440.412 147.569C436.977 147.068 438.102 142.183 434.479 142.934C430.857 143.686 425.424 143.248 429.92 141.744C433.855 140.429 489.5 129.029 502.74 126.336L511.171 139.114Z" fill="#FFCBC3"/>
<path d="M285.655 129.719C286.592 134.98 283.719 139.866 279.285 140.68C274.851 141.494 270.479 137.861 269.542 132.6C268.606 127.338 271.478 122.453 275.913 121.639C280.347 120.887 284.718 124.457 285.655 129.719Z" fill="url(#paint18_linear_215_6231)"/>
<path d="M491.749 202.814C491.749 202.814 480.445 196.174 477.947 183.146C477.947 183.146 488.627 185.338 493.935 202.814" fill="url(#paint19_linear_215_6231)"/>
<path d="M496.182 202.814C496.182 202.814 507.486 196.174 509.984 183.146C509.984 183.146 499.305 185.338 493.996 202.814" fill="url(#paint20_linear_215_6231)"/>
<path d="M492.81 201.749C492.81 201.749 484.629 191.477 487.064 178.386C487.064 178.386 496.182 184.337 494.933 202.564" fill="url(#paint21_linear_215_6231)"/>
<path d="M495.433 201.749C495.433 201.749 503.364 191.289 500.616 178.26C500.616 178.26 491.623 184.399 493.372 202.626" fill="url(#paint22_linear_215_6231)"/>
<path d="M506.049 200.121H481.381V220.791H506.049V200.121Z" fill="#3C2A7C"/>
<path d="M506.049 200.121H501.178V220.791H506.049V200.121Z" fill="#3C2A7C"/>
<path d="M119.408 219.726C119.221 213.838 117.91 207.888 115.599 202.313C85.3096 213.024 94.1778 200.434 112.539 196.175C107.605 187.907 100.111 181.142 90.3682 178.01C78.5023 174.252 64.4506 182.833 55.3951 195.486C69.6341 201.436 66.6364 220.352 51.8353 201.123C48.9 206.447 46.8391 212.21 46.1522 217.909C44.4035 232.002 50.8985 245.845 71.7575 251.983C105.419 262.005 120.158 241.836 119.408 219.726ZM98.2372 212.523C107.105 212.773 94.6774 222.795 87.9951 217.972C83.8732 214.903 89.369 212.272 98.2372 212.523Z" fill="#7A73A0"/>
<path d="M63.2633 363.85C61.7645 250.855 89.6806 178.636 89.9304 177.885L90.6174 178.135C90.3676 178.824 62.5139 250.981 63.9503 363.787L63.2633 363.85Z" fill="#96BCE4"/>
<path d="M60.3287 231.627C55.7072 251.42 50.4613 240.396 56.082 227.368C46.9639 219.475 33.5367 215.404 18.6731 219.789C6.68233 223.359 0.999186 231.877 0.0624042 241.523C19.2352 240.584 23.9816 252.985 -0.0625 246.096C1.06164 267.642 23.6693 291.444 51.8352 276.787C72.5693 266.014 72.0072 245.344 60.3287 231.627ZM32.4751 257.934C22.2954 260.69 21.7957 253.111 30.7264 252.046C37.0341 251.357 42.6547 255.178 32.4751 257.934Z" fill="#320769"/>
<path d="M130.399 270.46C140.329 257.494 140.517 236.198 132.897 229.872C125.715 223.859 116.535 223.17 107.667 225.613C109.915 239.142 98.9234 245.03 101.546 227.868C80.9372 237.138 65.5115 262.255 88.4314 274.719C105.918 284.177 118.408 281.86 126.527 274.656C96.9874 272.715 112.163 264.697 130.399 270.46ZM122.655 248.6C131.274 251.168 130.087 253.861 120.532 254.613C110.977 255.365 111.539 245.343 122.655 248.6Z" fill="#A8A3D0"/>
<path d="M79.6889 326.958C78.1901 290.128 92.7414 265.637 105.169 251.544C118.659 236.261 132.648 229.622 132.836 229.559L133.148 230.248C133.023 230.311 119.096 236.888 105.731 252.045C93.366 266.013 79.002 290.379 80.4384 326.895L79.6889 326.958Z" fill="#96BCE4"/>
<path d="M113.412 337.168L108.54 366.419C104.731 383.017 91.1163 396.797 69.5704 396.797C48.0244 396.797 33.3482 383.643 30.6003 366.419L26.3535 337.168H113.412Z" fill="#1B144E"/>
<path d="M115.348 327.021L113.225 339.485H26.2291L24.418 327.021H115.348Z" fill="#22146B"/>
<path d="M55.2082 327.584L54.4587 327.521C56.8944 290.566 46.9645 263.32 38.2212 246.909C28.7285 229.183 18.6112 220.101 18.4863 219.976L18.9859 219.412C19.1108 219.475 29.353 228.682 38.8457 246.533C47.6515 263.069 57.5813 290.441 55.2082 327.584Z" fill="#96BCE4"/>
</g>
<defs>
<linearGradient id="paint0_linear_215_6231" x1="496.535" y1="292.396" x2="557.894" y2="263.945" gradientUnits="userSpaceOnUse">
<stop stop-color="#7468AE"/>
<stop offset="0.22" stop-color="#7165AA"/>
<stop offset="0.46" stop-color="#685E9C"/>
<stop offset="0.71" stop-color="#5A5287"/>
<stop offset="0.97" stop-color="#464068"/>
<stop offset="1" stop-color="#433E64"/>
</linearGradient>
<linearGradient id="paint1_linear_215_6231" x1="61522.9" y1="169298" x2="80950.5" y2="162774" gradientUnits="userSpaceOnUse">
<stop stop-color="#7468AE"/>
<stop offset="0.22" stop-color="#7165AA"/>
<stop offset="0.46" stop-color="#685E9C"/>
<stop offset="0.71" stop-color="#5A5287"/>
<stop offset="0.97" stop-color="#464068"/>
<stop offset="1" stop-color="#433E64"/>
</linearGradient>
<linearGradient id="paint2_linear_215_6231" x1="38743.3" y1="122017" x2="38743.3" y2="85329" gradientUnits="userSpaceOnUse">
<stop stop-color="#02164A"/>
<stop offset="1" stop-color="#220B88"/>
</linearGradient>
<linearGradient id="paint3_linear_215_6231" x1="37181" y1="58903" x2="29822.8" y2="75538.7" gradientUnits="userSpaceOnUse">
<stop stop-color="#6E82C0"/>
<stop offset="1" stop-color="#4B77BB"/>
</linearGradient>
<linearGradient id="paint4_linear_215_6231" x1="372.341" y1="334.213" x2="439.59" y2="272.986" gradientUnits="userSpaceOnUse">
<stop stop-color="#7468AE"/>
<stop offset="0.22" stop-color="#7165AA"/>
<stop offset="0.45" stop-color="#695E9C"/>
<stop offset="0.7" stop-color="#5B5287"/>
<stop offset="0.84" stop-color="#504876"/>
<stop offset="1" stop-color="#433E64"/>
</linearGradient>
<linearGradient id="paint5_linear_215_6231" x1="71074.9" y1="97387.1" x2="60050.5" y2="101341" gradientUnits="userSpaceOnUse">
<stop stop-color="#7468AE"/>
<stop offset="0.22" stop-color="#7165AA"/>
<stop offset="0.46" stop-color="#685E9C"/>
<stop offset="0.71" stop-color="#5A5287"/>
<stop offset="0.97" stop-color="#464068"/>
<stop offset="1" stop-color="#433E64"/>
</linearGradient>
<linearGradient id="paint6_linear_215_6231" x1="1473.75" y1="2384" x2="1507.08" y2="2479.08" gradientUnits="userSpaceOnUse">
<stop stop-color="#ADA9D4"/>
<stop offset="0.4" stop-color="#A9A5D1"/>
<stop offset="0.83" stop-color="#9F97C9"/>
<stop offset="1" stop-color="#9990C5"/>
</linearGradient>
<linearGradient id="paint7_linear_215_6231" x1="1487.86" y1="2384" x2="1521.19" y2="2479.08" gradientUnits="userSpaceOnUse">
<stop stop-color="#ADA9D4"/>
<stop offset="0.4" stop-color="#A9A5D1"/>
<stop offset="0.83" stop-color="#9F97C9"/>
<stop offset="1" stop-color="#9990C5"/>
</linearGradient>
<linearGradient id="paint8_linear_215_6231" x1="1502.04" y1="2384" x2="1535.38" y2="2479.08" gradientUnits="userSpaceOnUse">
<stop stop-color="#ADA9D4"/>
<stop offset="0.4" stop-color="#A9A5D1"/>
<stop offset="0.83" stop-color="#9F97C9"/>
<stop offset="1" stop-color="#9990C5"/>
</linearGradient>
<linearGradient id="paint9_linear_215_6231" x1="658.875" y1="3425.42" x2="731.931" y2="3474.9" gradientUnits="userSpaceOnUse">
<stop stop-color="#ADA9D4"/>
<stop offset="0.4" stop-color="#A9A5D1"/>
<stop offset="0.83" stop-color="#9F97C9"/>
<stop offset="1" stop-color="#9990C5"/>
</linearGradient>
<linearGradient id="paint10_linear_215_6231" x1="648.879" y1="3425.42" x2="721.935" y2="3474.9" gradientUnits="userSpaceOnUse">
<stop stop-color="#ADA9D4"/>
<stop offset="0.4" stop-color="#A9A5D1"/>
<stop offset="0.83" stop-color="#9F97C9"/>
<stop offset="1" stop-color="#9990C5"/>
</linearGradient>
<linearGradient id="paint11_linear_215_6231" x1="639.516" y1="3425.42" x2="712.572" y2="3474.9" gradientUnits="userSpaceOnUse">
<stop stop-color="#ADA9D4"/>
<stop offset="0.4" stop-color="#A9A5D1"/>
<stop offset="0.83" stop-color="#9F97C9"/>
<stop offset="1" stop-color="#9990C5"/>
</linearGradient>
<linearGradient id="paint12_linear_215_6231" x1="38582.2" y1="122017" x2="38582.2" y2="85329" gradientUnits="userSpaceOnUse">
<stop stop-color="#02164A"/>
<stop offset="1" stop-color="#220B88"/>
</linearGradient>
<linearGradient id="paint13_linear_215_6231" x1="84739" y1="5666.07" x2="84739" y2="4056.68" gradientUnits="userSpaceOnUse">
<stop stop-color="#02164A"/>
<stop offset="1" stop-color="#220B88"/>
</linearGradient>
<linearGradient id="paint14_linear_215_6231" x1="38880.9" y1="122017" x2="38880.9" y2="85329" gradientUnits="userSpaceOnUse">
<stop stop-color="#02164A"/>
<stop offset="1" stop-color="#220B88"/>
</linearGradient>
<linearGradient id="paint15_linear_215_6231" x1="38996.2" y1="122017" x2="38996.2" y2="85329" gradientUnits="userSpaceOnUse">
<stop stop-color="#02164A"/>
<stop offset="1" stop-color="#220B88"/>
</linearGradient>
<linearGradient id="paint16_linear_215_6231" x1="85037.7" y1="5666.09" x2="85037.7" y2="4056.7" gradientUnits="userSpaceOnUse">
<stop stop-color="#02164A"/>
<stop offset="1" stop-color="#220B88"/>
</linearGradient>
<linearGradient id="paint17_linear_215_6231" x1="61932.7" y1="53760.8" x2="77091.7" y2="64245.1" gradientUnits="userSpaceOnUse">
<stop stop-color="#ADA9D4"/>
<stop offset="0.4" stop-color="#A9A5D1"/>
<stop offset="0.83" stop-color="#9F97C9"/>
<stop offset="1" stop-color="#9990C5"/>
</linearGradient>
<linearGradient id="paint18_linear_215_6231" x1="2208.67" y1="17917.1" x2="2583.84" y2="18135" gradientUnits="userSpaceOnUse">
<stop stop-color="#ADA9D4"/>
<stop offset="0.4" stop-color="#A9A5D1"/>
<stop offset="0.83" stop-color="#9F97C9"/>
<stop offset="1" stop-color="#9990C5"/>
</linearGradient>
<linearGradient id="paint19_linear_215_6231" x1="2360.81" y1="18359.8" x2="2734.16" y2="18566" gradientUnits="userSpaceOnUse">
<stop stop-color="#ADA9D4"/>
<stop offset="0.4" stop-color="#A9A5D1"/>
<stop offset="0.83" stop-color="#9F97C9"/>
<stop offset="1" stop-color="#9990C5"/>
</linearGradient>
<linearGradient id="paint20_linear_215_6231" x1="2376.86" y1="18359.8" x2="2750.2" y2="18566" gradientUnits="userSpaceOnUse">
<stop stop-color="#ADA9D4"/>
<stop offset="0.4" stop-color="#A9A5D1"/>
<stop offset="0.83" stop-color="#9F97C9"/>
<stop offset="1" stop-color="#9990C5"/>
</linearGradient>
<linearGradient id="paint21_linear_215_6231" x1="1480.51" y1="22523" x2="1723.99" y2="22580.7" gradientUnits="userSpaceOnUse">
<stop stop-color="#ADA9D4"/>
<stop offset="0.4" stop-color="#A9A5D1"/>
<stop offset="0.83" stop-color="#9F97C9"/>
<stop offset="1" stop-color="#9990C5"/>
</linearGradient>
<linearGradient id="paint22_linear_215_6231" x1="1441.02" y1="22696.5" x2="1674.53" y2="22748.9" gradientUnits="userSpaceOnUse">
<stop stop-color="#ADA9D4"/>
<stop offset="0.4" stop-color="#A9A5D1"/>
<stop offset="0.83" stop-color="#9F97C9"/>
<stop offset="1" stop-color="#9990C5"/>
</linearGradient>
<clipPath id="clip0_215_6231">
<rect width="652" height="404" fill="white"/>
</clipPath>
</defs>
</svg>
