<svg width="626" height="446" viewBox="0 0 626 446" fill="none" xmlns="http://www.w3.org/2000/svg">
<g clip-path="url(#clip0_266_8295)">
<path d="M601.851 344.534C595.005 344.476 588.233 345.957 582.035 348.867C577.585 351.063 577.021 357.963 572.675 360.278C568.329 362.593 562.292 359.269 557.991 361.762C550.322 366.109 547.118 376.333 542.031 382.387C539.346 385.592 533.813 385.058 530.624 387.774C525.344 392.225 519.9 405.58 519.9 405.58L526.412 416.278H539.168C540.651 416.278 542.016 416.278 543.425 416.085C544.834 415.893 546.258 415.774 547.652 415.522C549.047 415.269 550.441 414.958 551.82 414.587C553.2 414.216 554.579 413.8 555.944 413.311C557.308 412.821 558.436 412.361 559.667 411.827C562.767 408.31 565.214 404.319 570.747 401.173C573.537 399.803 576.552 398.948 579.647 398.65C584.616 397.864 589.792 397.003 594.242 391.884C598.469 387.002 598.158 378.9 602.118 374.182C608.541 366.54 628.535 360.115 617.425 349.55C616.268 348.483 614.952 347.602 613.524 346.938C609.85 345.31 605.869 344.49 601.851 344.534Z" fill="#7A73A0"/>
<path d="M602.831 355.93C602.948 355.958 603.051 356.025 603.125 356.119C603.2 356.213 603.24 356.33 603.24 356.45C603.24 356.57 603.2 356.686 603.125 356.78C603.051 356.874 602.948 356.941 602.831 356.969C597.343 358.334 589.63 362.904 581.427 368.929C586.114 368.528 591.395 369.73 596.082 369.834C596.207 369.863 596.317 369.936 596.393 370.04C596.468 370.144 596.504 370.271 596.493 370.399C596.482 370.527 596.426 370.647 596.334 370.737C596.242 370.826 596.121 370.88 595.993 370.887C590.446 370.754 584.32 369.27 579.573 370.249C575.405 373.366 571.163 376.808 567.04 380.31C563.791 383.085 560.632 385.904 557.651 388.649C560.424 388.397 563.851 387.596 567.247 387.076C569.206 386.732 571.192 386.563 573.18 386.572C574.986 386.572 576.768 386.988 578.387 387.788C578.451 387.82 578.508 387.864 578.554 387.918C578.601 387.972 578.635 388.035 578.656 388.104C578.677 388.172 578.684 388.244 578.676 388.314C578.667 388.385 578.645 388.454 578.609 388.516C578.575 388.577 578.529 388.631 578.474 388.675C578.419 388.719 578.356 388.751 578.289 388.77C578.221 388.79 578.151 388.795 578.081 388.787C578.011 388.779 577.944 388.757 577.882 388.723C575.227 387.239 571.386 387.492 567.396 388.115C563.756 388.877 560.077 389.437 556.375 389.792C552.637 393.279 549.226 396.617 546.348 399.555C545.478 400.466 544.662 401.326 543.901 402.137C548.461 402.27 553.021 401.832 557.473 400.832H557.636C557.76 400.852 557.873 400.917 557.955 401.013C558.036 401.11 558.081 401.232 558.081 401.358C558.081 401.485 558.036 401.607 557.955 401.703C557.873 401.8 557.76 401.864 557.636 401.885C552.826 403.006 547.881 403.426 542.951 403.132C541.157 405.075 539.733 406.737 538.798 407.969C538.707 408.061 538.586 408.118 538.457 408.128C538.327 408.137 538.199 408.099 538.095 408.021C537.992 407.943 537.92 407.83 537.894 407.703C537.868 407.576 537.889 407.444 537.953 407.331C540.267 404.405 542.743 401.611 545.369 398.962C544.746 393.16 548.247 387.091 551.005 382.491C551.036 382.421 551.081 382.359 551.137 382.308C551.194 382.257 551.261 382.218 551.333 382.195C551.406 382.172 551.483 382.165 551.558 382.174C551.634 382.183 551.707 382.208 551.772 382.247C551.837 382.287 551.893 382.34 551.936 382.403C551.979 382.466 552.008 382.537 552.021 382.612C552.034 382.688 552.031 382.765 552.012 382.838C551.993 382.912 551.958 382.981 551.91 383.04C549.315 387.388 546.229 392.893 546.363 397.953C549.062 395.223 552.177 392.181 555.574 389.05C555.604 388.98 555.649 388.917 555.705 388.866C555.761 388.815 555.828 388.776 555.9 388.753C557.472 387.269 559.104 385.785 560.765 384.301C563.495 379.197 564.31 372.06 567.01 367.029C567.058 366.935 567.133 366.858 567.226 366.807C567.318 366.757 567.424 366.736 567.529 366.748C567.617 366.756 567.701 366.787 567.774 366.836C567.847 366.885 567.906 366.952 567.947 367.029C567.988 367.107 568.01 367.194 568.009 367.282C568.009 367.37 567.986 367.457 567.944 367.534C565.749 371.615 564.844 377.52 562.783 382.521C563.94 381.497 565.111 380.473 566.313 379.449C569.828 376.482 573.418 373.514 576.992 370.784C579.01 366.08 581.442 360.783 583.43 356.331C583.473 356.221 583.552 356.13 583.655 356.073C583.758 356.017 583.878 355.997 583.993 356.019C584.076 356.032 584.154 356.064 584.221 356.112C584.289 356.16 584.344 356.224 584.383 356.297C584.422 356.371 584.443 356.452 584.445 356.535C584.447 356.619 584.43 356.701 584.394 356.776C582.584 360.679 580.552 365.219 578.713 369.463C587.613 362.741 596.216 357.429 602.445 355.871L602.831 355.93Z" fill="#9B92C7"/>
<path d="M508.732 307.156C508.049 307.143 507.365 307.173 506.685 307.245C494.819 308.418 483.502 324.458 480.431 336.566C479.082 341.864 484.436 347.383 483.235 352.711C482.033 358.038 474.839 360.738 473.771 366.065C471.873 375.68 478.132 385.785 479.541 394.436C480.298 399.036 475.818 403.339 475.804 407.954C475.9 410.477 476.349 412.975 477.138 415.373L478.058 415.908H513.657C515.597 413.789 516.845 411.128 517.231 408.281C518.507 399.882 514.265 393.976 516.178 383.916C517.884 375.22 527.214 369.582 525.434 357.385C524.41 350.292 517.365 344.683 516.267 337.931C514.784 328.865 520.806 312.587 513.301 308.254C511.898 307.5 510.324 307.122 508.732 307.156Z" fill="#7A73A0"/>
<path d="M501.451 324.191C501.556 324.105 501.687 324.058 501.823 324.057C501.959 324.057 502.091 324.103 502.197 324.188C502.303 324.273 502.377 324.392 502.405 324.525C502.434 324.658 502.417 324.796 502.355 324.918C499.522 330.527 497.802 340.365 496.897 351.627C499.938 347.398 504.788 343.807 508.274 339.949C508.386 339.846 508.533 339.789 508.685 339.792C508.838 339.794 508.983 339.855 509.092 339.962C509.201 340.069 509.264 340.213 509.269 340.366C509.274 340.518 509.221 340.666 509.119 340.78C504.981 345.35 499.27 349.416 496.66 354.135C496.259 359.892 496.066 366.006 496.037 371.941C496.037 376.689 496.037 381.408 496.23 385.904C498.024 383.367 499.849 379.969 501.866 376.674C502.999 374.768 504.305 372.97 505.767 371.303C507.064 369.768 508.699 368.554 510.543 367.757C510.616 367.728 510.694 367.714 510.772 367.716C510.851 367.717 510.928 367.734 511 367.766C511.072 367.798 511.136 367.844 511.19 367.901C511.244 367.957 511.286 368.025 511.314 368.098C511.368 368.246 511.363 368.409 511.299 368.552C511.236 368.696 511.119 368.81 510.973 368.869C507.858 370.056 505.218 373.44 502.86 377.253C500.854 380.861 498.655 384.358 496.274 387.729C496.496 393.397 496.823 398.695 497.208 403.235C497.201 403.27 497.201 403.305 497.208 403.339C497.327 404.719 497.446 406.025 497.579 407.271C501.011 403.536 503.952 399.377 506.331 394.896L506.449 394.763C506.546 394.643 506.686 394.566 506.839 394.549C506.992 394.532 507.145 394.577 507.265 394.674C507.385 394.77 507.462 394.91 507.478 395.063C507.495 395.216 507.45 395.37 507.354 395.49C504.699 399.941 501.821 404.957 497.742 408.755C498.084 411.723 498.44 414.067 498.81 415.744C498.833 415.893 498.798 416.045 498.712 416.169C498.627 416.294 498.497 416.38 498.35 416.413C498.203 416.445 498.049 416.42 497.92 416.342C497.79 416.265 497.695 416.141 497.653 415.996C496.872 411.917 496.333 407.794 496.037 403.651C490.697 399.971 488.161 392.656 486.262 386.972C486.225 386.86 486.222 386.74 486.254 386.626C486.285 386.513 486.35 386.411 486.44 386.334C486.514 386.271 486.603 386.227 486.698 386.206C486.793 386.185 486.892 386.188 486.986 386.214C487.08 386.241 487.166 386.29 487.236 386.357C487.306 386.425 487.359 386.509 487.389 386.601C489.169 391.943 491.542 398.472 495.903 402.078C495.562 397.834 495.265 393.012 495.073 387.863C495.04 387.785 495.022 387.702 495.022 387.618C495.022 387.534 495.04 387.45 495.073 387.373C494.984 384.984 494.924 382.55 494.88 380.058C492.581 374.122 487.167 368.187 484.897 362.251C484.858 362.178 484.835 362.096 484.829 362.013C484.824 361.929 484.836 361.846 484.865 361.767C484.894 361.689 484.939 361.617 484.998 361.558C485.057 361.498 485.127 361.451 485.205 361.421C485.283 361.39 485.366 361.377 485.45 361.381C485.533 361.385 485.615 361.406 485.69 361.444C485.764 361.482 485.83 361.535 485.883 361.6C485.935 361.665 485.973 361.74 485.995 361.821C487.849 366.629 492.151 371.689 494.895 377.045C494.895 375.324 494.895 373.588 494.895 371.852C494.895 366.718 495.073 361.569 495.354 356.583C492.848 351.479 490.118 345.647 487.864 340.691C487.813 340.571 487.8 340.439 487.827 340.312C487.853 340.185 487.918 340.068 488.012 339.979C488.083 339.918 488.168 339.874 488.259 339.852C488.35 339.83 488.445 339.83 488.536 339.852C488.627 339.874 488.712 339.917 488.783 339.977C488.855 340.038 488.911 340.115 488.947 340.202C490.919 344.549 493.263 349.55 495.488 354.165C496.304 341.789 498.069 330.735 501.302 324.339C501.343 324.269 501.393 324.204 501.451 324.146V324.191Z" fill="#9B92C7"/>
<path d="M572.734 281.872C558.732 281.872 541.586 293.817 533.368 305.168C529.26 310.836 533.042 320.007 529.082 325.734C525.121 331.462 515.287 331.328 511.49 337.219C504.682 347.769 507.367 362.771 504.964 373.751C503.673 379.583 496.346 382.551 494.106 388.085C490.976 395.876 491.881 411.664 492.208 416.279H534.095C537.136 414.587 540.355 413.237 543.336 408.117C548.824 398.71 546.466 389.644 553.585 378.589C559.741 369.033 573.521 366.718 577.169 351.345C579.29 342.442 573.535 332.397 575.434 323.835C578.489 309.961 599.493 288.668 578.504 282.658C576.626 282.131 574.685 281.867 572.734 281.872Z" fill="#9B92C7"/>
<path d="M564.252 300.36C564.42 300.293 564.607 300.289 564.778 300.347C564.949 300.406 565.094 300.524 565.185 300.68C565.277 300.837 565.309 301.02 565.277 301.199C565.244 301.377 565.149 301.537 565.009 301.651C558.972 306.993 552.267 317.899 545.889 330.853C551.526 327.262 558.986 325.289 564.964 322.336H565.038C565.13 322.297 565.228 322.277 565.328 322.276C565.427 322.275 565.526 322.293 565.618 322.33C565.71 322.368 565.794 322.423 565.865 322.492C565.936 322.562 565.993 322.645 566.032 322.737C566.071 322.828 566.092 322.927 566.092 323.026C566.093 323.126 566.075 323.224 566.038 323.317C566 323.409 565.945 323.493 565.876 323.564C565.806 323.635 565.723 323.692 565.632 323.731C558.556 327.218 549.835 329.369 544.495 333.747C541.291 340.439 538.191 347.561 535.313 354.714C533.044 360.352 530.864 365.991 528.965 371.437C532.302 369.27 536.1 366.006 540.045 363.097C542.296 361.366 544.699 359.841 547.224 358.542C549.516 357.34 552.054 356.685 554.641 356.628C554.842 356.632 555.035 356.715 555.176 356.859C555.318 357.003 555.397 357.197 555.397 357.399C555.397 357.5 555.377 357.6 555.338 357.692C555.299 357.785 555.242 357.869 555.17 357.94C555.098 358.01 555.013 358.066 554.92 358.103C554.826 358.14 554.726 358.158 554.626 358.156C550.339 358.156 545.607 360.901 540.98 364.314C536.352 367.727 532.154 371.481 528.209 373.692C525.776 380.547 523.67 387.047 521.979 392.611C521.987 392.65 521.987 392.691 521.979 392.73C521.475 394.436 521 396.068 520.496 397.597C526.429 395.045 531.783 390.875 536.812 386.987C536.876 386.944 536.946 386.909 537.019 386.883C537.188 386.822 537.374 386.822 537.542 386.885C537.711 386.948 537.852 387.069 537.939 387.226C538.027 387.384 538.055 387.567 538.02 387.743C537.985 387.92 537.887 388.078 537.746 388.189C532.466 392.299 526.696 396.84 520.036 399.437C519.057 403.087 518.36 406.114 517.989 408.34C517.938 408.52 517.823 408.675 517.665 408.775C517.507 408.875 517.318 408.913 517.134 408.881C516.95 408.85 516.783 408.752 516.667 408.605C516.551 408.458 516.494 408.274 516.506 408.088C517.501 402.836 518.789 397.645 520.362 392.537C515.734 385.622 516.179 375.695 516.609 368.039C516.594 367.928 516.602 367.815 516.635 367.709C516.668 367.602 516.724 367.504 516.799 367.421C516.874 367.339 516.967 367.274 517.07 367.232C517.173 367.189 517.285 367.17 517.396 367.176C517.507 367.181 517.616 367.211 517.715 367.264C517.813 367.316 517.899 367.39 517.965 367.48C518.032 367.569 518.078 367.673 518.1 367.782C518.122 367.891 518.119 368.004 518.093 368.113C517.677 375.324 517.396 384.302 520.926 390.593C522.513 385.37 524.456 379.494 526.651 373.262C526.641 373.152 526.656 373.042 526.694 372.939C526.733 372.837 526.794 372.744 526.874 372.668C527.882 369.789 528.965 366.851 530.092 363.869C530.181 355.648 526.488 346.063 526.577 337.961C526.555 337.851 526.558 337.738 526.585 337.629C526.612 337.52 526.662 337.419 526.733 337.332C526.804 337.246 526.894 337.176 526.995 337.128C527.096 337.08 527.207 337.055 527.319 337.055C527.431 337.055 527.541 337.08 527.642 337.128C527.744 337.176 527.833 337.246 527.904 337.332C527.975 337.419 528.026 337.52 528.053 337.629C528.08 337.738 528.082 337.851 528.06 337.961C527.986 344.579 530.73 352.621 531.412 360.219C532.213 358.156 533.029 356.094 533.86 354.016C536.322 347.918 538.918 341.849 541.603 336.032C541.054 328.776 540.549 320.526 540.208 313.552C540.194 313.387 540.236 313.222 540.328 313.085C540.419 312.947 540.555 312.845 540.713 312.795C540.824 312.755 540.944 312.742 541.061 312.758C541.179 312.773 541.291 312.815 541.389 312.881C541.487 312.948 541.569 313.036 541.626 313.14C541.684 313.243 541.716 313.359 541.721 313.477C542.018 319.606 542.448 326.669 542.923 333.227C549.746 318.864 557.058 306.518 563.941 300.42C564.016 300.356 564.101 300.306 564.193 300.271L564.252 300.36Z" fill="#7A73A0"/>
<path d="M470.836 110.398H321.307C312.206 110.398 304.828 117.779 304.828 126.884V399.185C304.828 408.289 312.206 415.67 321.307 415.67H470.836C479.937 415.67 487.315 408.289 487.315 399.185V126.884C487.315 117.779 479.937 110.398 470.836 110.398Z" fill="#8667E0"/>
<path d="M325.133 119.079C323.383 119.065 321.648 119.398 320.028 120.059C318.408 120.72 316.935 121.695 315.694 122.928C314.453 124.162 313.468 125.629 312.797 127.245C312.126 128.861 311.781 130.594 311.783 132.344V393.709C311.779 395.461 312.122 397.195 312.793 398.813C313.463 400.431 314.447 401.9 315.689 403.135C316.93 404.37 318.404 405.347 320.025 406.008C321.646 406.67 323.382 407.003 325.133 406.99H467.052C468.795 406.992 470.522 406.649 472.132 405.982C473.743 405.316 475.206 404.337 476.438 403.103C477.67 401.87 478.647 400.405 479.311 398.793C479.976 397.181 480.316 395.453 480.313 393.709V132.344C480.316 130.601 479.976 128.874 479.311 127.263C478.646 125.652 477.67 124.188 476.437 122.955C475.205 121.723 473.742 120.746 472.131 120.081C470.521 119.415 468.795 119.075 467.052 119.079H432.789C427.923 119.079 427.434 127.314 422.406 127.314H369.794C364.706 127.314 364.217 119.079 359.411 119.079H325.133Z" fill="#F2E5FF"/>
<path d="M423.118 117.684C423.11 118.414 422.817 119.111 422.301 119.627C421.785 120.143 421.088 120.436 420.359 120.444C419.995 120.444 419.634 120.372 419.298 120.232C418.962 120.092 418.657 119.886 418.401 119.628C418.145 119.373 417.942 119.07 417.805 118.737C417.667 118.403 417.597 118.045 417.6 117.684C417.596 117.32 417.664 116.96 417.802 116.623C417.939 116.286 418.142 115.981 418.399 115.723C418.656 115.466 418.962 115.263 419.298 115.126C419.635 114.989 419.995 114.92 420.359 114.924C420.719 114.923 421.077 114.994 421.41 115.131C421.743 115.269 422.046 115.471 422.302 115.725C422.821 116.245 423.114 116.949 423.118 117.684Z" fill="#CEF0FA"/>
<path d="M308.818 7.99781C319.2 7.99781 327.67 17.0641 327.67 28.3562C327.67 39.6483 319.319 48.6997 308.818 48.6997C298.316 48.6997 289.965 39.6334 289.965 28.3562C289.965 17.079 298.435 7.99781 308.818 7.99781ZM308.818 -0.00012207C294.356 -0.00012207 282.549 12.7313 282.549 28.3562C282.549 43.9811 294.415 56.6977 308.818 56.6977C323.22 56.6977 335.071 43.9663 335.071 28.3562C335.071 12.7461 323.339 -0.00012207 308.818 -0.00012207Z" fill="#5B4D7D"/>
<path d="M270.386 75.9728C272.601 75.9728 274.766 76.6298 276.607 77.8608C278.449 79.0918 279.884 80.8415 280.732 82.8886C281.579 84.9357 281.801 87.1883 281.369 89.3614C280.937 91.5346 279.87 93.5308 278.304 95.0976C276.738 96.6644 274.743 97.7313 272.57 98.1636C270.398 98.5959 268.146 98.374 266.1 97.5261C264.054 96.6782 262.305 95.2423 261.074 93.3999C259.844 91.5576 259.187 89.3916 259.187 87.1758C259.181 85.703 259.467 84.2435 260.027 82.8817C260.588 81.5198 261.413 80.2824 262.454 79.241C263.495 78.1995 264.732 77.3745 266.093 76.8136C267.454 76.2527 268.913 75.9669 270.386 75.9728ZM270.386 70.9871C267.185 70.9871 264.056 71.9365 261.395 73.7154C258.734 75.4942 256.66 78.0226 255.435 80.9807C254.21 83.9388 253.89 87.1938 254.514 90.3341C255.138 93.4744 256.68 96.359 258.943 98.623C261.206 100.887 264.089 102.429 267.229 103.054C270.368 103.678 273.621 103.358 276.578 102.132C279.535 100.907 282.063 98.8321 283.841 96.1698C285.619 93.5076 286.568 90.3777 286.568 87.1758C286.556 82.8859 284.848 78.7751 281.815 75.7416C278.783 72.7082 274.674 70.9988 270.386 70.9871Z" fill="#8667E0"/>
<path d="M281.155 26.1008H336.585C338.727 26.1315 340.773 26.9965 342.288 28.5121C343.803 30.0276 344.668 32.0743 344.698 34.2175L347.161 87.3095C347.179 88.3804 346.981 89.444 346.58 90.4369C346.178 91.4298 345.581 92.3318 344.824 93.0891C344.067 93.8464 343.166 94.4436 342.173 94.8451C341.181 95.2466 340.118 95.4442 339.047 95.4262H278.693C277.622 95.4442 276.559 95.2466 275.567 94.8451C274.574 94.4436 273.672 93.8464 272.915 93.0891C272.158 92.3318 271.561 91.4298 271.16 90.4369C270.759 89.444 270.561 88.3804 270.579 87.3095L273.041 34.2175C273.072 32.0743 273.937 30.0276 275.452 28.5121C276.967 26.9965 279.013 26.1315 281.155 26.1008Z" fill="#3C2A7C"/>
<path d="M308.816 44.6043C307.185 44.6011 305.596 45.1235 304.285 46.094C302.973 47.0645 302.009 48.4316 301.535 49.9929C301.061 51.5542 301.102 53.2268 301.652 54.763C302.202 56.2993 303.231 57.6176 304.589 58.5228L301.8 74.8451H315.817L313.043 58.5228C314.4 57.6176 315.43 56.2993 315.98 54.763C316.53 53.2268 316.571 51.5542 316.097 49.9929C315.623 48.4316 314.659 47.0645 313.347 46.094C312.036 45.1235 310.447 44.6011 308.816 44.6043Z" fill="url(#paint0_linear_266_8295)"/>
<path d="M246.311 124.035H146.502V203.91H246.311V124.035Z" fill="#6527B5"/>
<path d="M236.925 132.033H159.023V135.668H236.925V132.033Z" fill="#320769"/>
<path d="M236.921 139.289H192.111V142.924H236.921V139.289Z" fill="#320769"/>
<path d="M236.921 146.53H203.117V150.165H236.921V146.53Z" fill="#320769"/>
<path d="M236.921 153.786H203.117V157.421H236.921V153.786Z" fill="#320769"/>
<path d="M139.25 139.511H185.869L194.131 161.309H249.235V217.027H139.25V139.511Z" fill="#4B168F"/>
<path d="M15.3984 233.261H75.8121L102.689 271.247V359.61H15.3984V233.261Z" fill="#8667E0"/>
<path d="M75.8086 233.261L102.685 271.247H75.8086V233.261Z" fill="#A28AE7"/>
<path d="M55.86 247.773H25.1562V250.399H55.86V247.773Z" fill="#96BCE4"/>
<path d="M55.86 263.175H25.1562V265.801H55.86V263.175Z" fill="#96BCE4"/>
<path d="M82.7962 278.592H25.1562V281.219H82.7962V278.592Z" fill="#96BCE4"/>
<path d="M82.7962 293.995H25.1562V296.621H82.7962V293.995Z" fill="#96BCE4"/>
<path d="M82.7962 309.397H25.1562V312.023H82.7962V309.397Z" fill="#96BCE4"/>
<path d="M55.86 324.814H25.1562V327.441H55.86V324.814Z" fill="#96BCE4"/>
<path d="M55.86 340.216H25.1562V342.843H55.86V340.216Z" fill="#96BCE4"/>
<path d="M287.4 385.785L267.346 389.332L270.935 415.982H295.632L287.4 385.785Z" fill="#FBCCBC"/>
<path d="M177.859 299.351C167.516 302.963 157.707 307.954 148.698 314.19C141.236 319.583 134.497 325.911 128.645 333.02L161.707 416.011H273.382C273.495 408.294 273.059 400.578 272.077 392.923C278.855 392.7 285.426 392.121 291.092 389.361C291.092 389.361 287.711 361.495 265.298 330.23C258.357 320.555 246.461 313.092 235.633 308.18C222.283 302.111 205.33 299.381 205.33 299.381L177.859 299.351Z" fill="url(#paint1_linear_266_8295)"/>
<path d="M262.125 351.479C266.705 364.949 270.037 378.812 272.078 392.893L274.57 392.789C272.415 378.495 268.224 364.584 262.125 351.479Z" fill="#4772B2"/>
<path d="M139.235 331.981C135.681 331.988 132.136 332.326 128.645 332.99L161.707 415.982H168.174C181.657 408.266 195.021 395.208 201.696 384.168C201.696 384.168 183.081 351.701 167.506 340.053C158.429 333.272 147.274 331.892 139.235 331.981Z" fill="#4772B2"/>
<path d="M190.23 381.705L201.8 391.543C201.8 391.543 241.507 358.409 256.354 337.635C259.909 333.103 262.101 327.653 262.673 321.921C263.459 313.819 260.241 297.482 254.827 290.048C251.03 284.854 261.65 284.632 266.381 290.27C270.475 295.137 270.001 302.037 274.02 307.735C274.821 308.863 276.883 308.477 278.173 307.958C282.772 306.073 288.363 300.538 293.11 298.669C294.274 298.16 295.547 297.949 296.813 298.055C298.08 298.161 299.3 298.581 300.363 299.277C301.226 299.94 301.89 300.828 302.283 301.844C302.675 302.859 302.781 303.963 302.588 305.035C303.705 305.028 304.808 305.277 305.813 305.764C306.818 306.25 307.699 306.96 308.388 307.839C308.978 308.649 309.397 309.57 309.622 310.547C309.846 311.524 309.87 312.536 309.693 313.522C310.558 313.505 311.413 313.711 312.174 314.122C312.936 314.533 313.578 315.134 314.039 315.867C314.678 316.788 315.021 317.883 315.021 319.005C315.021 320.127 314.678 321.222 314.039 322.143C314.039 322.143 317.005 322.143 317.421 324.755C317.57 325.552 317.551 326.372 317.364 327.162C317.178 327.952 316.828 328.694 316.338 329.34C312.511 333.791 307.913 336.878 300.185 341.671C294.714 344.869 289.645 348.71 285.085 353.111C282.742 355.5 280.131 357.325 278.114 359.996C258.031 386.424 242.812 412.287 222.684 436.503C212.301 448.923 195.852 448.701 180.574 438.462C169.242 430.865 154.172 412.925 154.172 412.925C159.823 396.514 171.482 385.786 190.23 381.705Z" fill="#FBCCBC"/>
<path d="M153.801 420.567C170.325 415.032 189.399 397.834 197.869 383.901C197.869 383.901 179.269 351.434 163.754 339.786C147.63 327.737 128.719 332.99 128.719 332.99C128.719 332.99 119.419 344.312 121.911 362.311C125.025 385.266 153.801 420.567 153.801 420.567Z" fill="url(#paint2_linear_266_8295)"/>
<path d="M179.238 273.102C179.94 281.874 179.476 290.701 177.859 299.351C176.034 308.255 207.939 313.819 205.314 299.351C204.415 293.635 204.186 287.834 204.632 282.065L179.238 273.102Z" fill="#FBCCBC"/>
<path d="M178.781 293.253C175.908 295.397 173.668 298.278 172.299 301.592C175.666 311.267 182.919 315.496 191.819 318.79C191.937 314.205 196.268 309.308 199.992 307.602C189.327 306.993 180.145 302.838 178.781 293.253Z" fill="white"/>
<path d="M179.238 273.102C179.535 276.73 179.63 280.371 179.52 284.008C181.27 284.098 181.448 282.139 181.79 282.91C185.735 291.814 191.164 296.384 196.711 297.882C199.433 298.772 202.354 298.854 205.121 298.12C204.385 292.801 204.221 287.419 204.632 282.065L179.238 273.102Z" fill="#F79F8B"/>
<path d="M199.988 307.601C204.542 305.895 205.313 299.351 204.661 294.558C207.091 296.089 209.222 298.05 210.95 300.345C213.709 304.708 213.59 310.035 212.566 315.184C211.083 310.925 206.915 307.661 199.988 307.601Z" fill="white"/>
<path d="M212.256 261.958C212.256 261.958 222.55 256.453 225.22 245.636C227.306 237.897 226.483 229.66 222.906 222.488C220.234 224.469 217.215 225.934 214.006 226.806C202.14 229.521 187.544 224.194 177.058 230.352C169.196 234.967 170.961 244.404 170.961 244.404C169.556 245.227 168.371 246.379 167.511 247.763C166.65 249.146 166.139 250.718 166.022 252.343C165.68 255.857 166.431 259.392 168.173 262.463C169.775 265.727 173.884 273.102 173.884 273.102L212.256 261.958Z" fill="#231F20"/>
<path d="M210.741 255.118C214.22 262.541 215.546 270.793 214.568 278.933C213.085 291.976 208.294 298.298 197.184 295.256C191.637 293.772 186.208 289.32 182.277 280.299C181.936 279.512 181.743 281.486 179.978 281.382C174.49 281.085 170.322 269.511 175.128 266.81C175.586 266.496 176.106 266.283 176.654 266.188C177.201 266.092 177.763 266.115 178.3 266.256C178.838 266.397 179.339 266.652 179.769 267.003C180.199 267.355 180.549 267.795 180.794 268.294C179.459 261.305 183.894 259.554 180.957 253.767C187.513 258.53 199.572 250.488 210.741 255.118Z" fill="#FBCCBC"/>
<path d="M396.063 147.064C409.863 158.279 425.178 167.486 441.555 174.411C441.555 174.411 441.555 204.326 424.171 228.29C414.485 241.644 396.063 252.699 396.063 252.699C396.063 252.699 377.344 241.229 367.881 228.29C350.616 204.548 350.512 174.411 350.512 174.411C368.771 166.517 382.595 157.006 396.063 147.064Z" fill="#8667E0"/>
<path d="M396.064 155.774C407.759 165.301 420.743 173.124 434.629 179.011C434.629 179.011 434.629 204.385 419.885 224.714C411.653 236.035 396.034 245.488 396.034 245.488C396.034 245.488 380.148 235.739 372.183 224.714C357.528 204.548 357.439 179.011 357.439 179.011C372.91 172.275 384.628 164.202 396.064 155.774Z" fill="white"/>
<path d="M396.064 181.489C394.069 181.483 392.124 182.12 390.519 183.306C388.914 184.492 387.733 186.164 387.152 188.074C386.571 189.984 386.621 192.031 387.294 193.91C387.967 195.79 389.227 197.402 390.888 198.509L387.432 218.422H404.564L401.167 198.494C402.82 197.386 404.074 195.775 404.742 193.9C405.411 192.025 405.46 189.984 404.882 188.079C404.304 186.174 403.129 184.505 401.531 183.319C399.932 182.132 397.995 181.491 396.005 181.489H396.064Z" fill="#8667E0"/>
<path d="M448.839 275.803H343.289C339.456 275.803 336.348 278.912 336.348 282.747V299.633C336.348 303.469 339.456 306.578 343.289 306.578H448.839C452.673 306.578 455.781 303.469 455.781 299.633V282.747C455.781 278.912 452.673 275.803 448.839 275.803Z" fill="#8667E0"/>
<path d="M343.288 330.423H448.838C450.679 330.423 452.445 331.154 453.746 332.457C455.048 333.759 455.78 335.525 455.78 337.367V354.239C455.78 356.084 455.047 357.854 453.742 359.16C452.437 360.465 450.668 361.198 448.823 361.198H343.303C341.462 361.198 339.696 360.466 338.395 359.164C337.093 357.862 336.361 356.095 336.361 354.253V337.367C336.361 335.528 337.091 333.764 338.389 332.462C339.688 331.16 341.45 330.427 343.288 330.423Z" fill="#8667E0"/>
<path d="M399.296 345.811C399.299 346.44 399.115 347.056 398.767 347.58C398.419 348.105 397.924 348.514 397.343 348.756C396.762 348.998 396.123 349.063 395.506 348.94C394.889 348.818 394.322 348.516 393.877 348.071C393.432 347.626 393.13 347.059 393.008 346.441C392.886 345.824 392.95 345.184 393.192 344.603C393.434 344.022 393.843 343.527 394.367 343.179C394.891 342.831 395.507 342.647 396.136 342.65C396.974 342.65 397.778 342.983 398.37 343.576C398.963 344.168 399.296 344.972 399.296 345.811Z" fill="white"/>
<path d="M418.877 345.811C418.877 346.436 418.692 347.047 418.345 347.567C417.998 348.086 417.504 348.492 416.927 348.731C416.35 348.97 415.714 349.033 415.102 348.911C414.489 348.789 413.926 348.488 413.484 348.046C413.042 347.604 412.741 347.04 412.619 346.427C412.497 345.814 412.56 345.179 412.799 344.601C413.038 344.024 413.443 343.53 413.963 343.183C414.482 342.836 415.093 342.65 415.718 342.65C416.556 342.65 417.359 342.983 417.952 343.576C418.544 344.169 418.877 344.973 418.877 345.811Z" fill="white"/>
<path d="M438.516 345.811C438.516 346.436 438.33 347.048 437.982 347.568C437.635 348.088 437.14 348.493 436.562 348.732C435.984 348.971 435.348 349.032 434.735 348.909C434.122 348.786 433.559 348.484 433.117 348.04C432.676 347.597 432.376 347.032 432.256 346.418C432.136 345.804 432.201 345.168 432.442 344.591C432.683 344.013 433.091 343.521 433.612 343.175C434.134 342.83 434.746 342.647 435.371 342.65C435.786 342.65 436.196 342.732 436.578 342.891C436.961 343.05 437.308 343.283 437.6 343.577C437.892 343.87 438.124 344.219 438.281 344.602C438.438 344.986 438.518 345.396 438.516 345.811Z" fill="white"/>
<path d="M379.569 345.811C379.572 346.44 379.388 347.056 379.04 347.58C378.693 348.105 378.197 348.514 377.616 348.756C377.036 348.998 376.396 349.063 375.779 348.94C375.162 348.818 374.595 348.516 374.15 348.071C373.706 347.626 373.403 347.059 373.281 346.441C373.159 345.824 373.223 345.184 373.465 344.603C373.707 344.022 374.116 343.527 374.641 343.179C375.165 342.831 375.781 342.647 376.41 342.65C377.248 342.65 378.051 342.983 378.644 343.576C379.236 344.168 379.569 344.972 379.569 345.811Z" fill="white"/>
<path d="M359.918 345.811C359.918 346.436 359.733 347.047 359.386 347.566C359.039 348.086 358.545 348.491 357.968 348.731C357.391 348.97 356.755 349.032 356.143 348.91C355.53 348.788 354.967 348.487 354.525 348.045C354.083 347.603 353.782 347.04 353.66 346.427C353.538 345.814 353.601 345.179 353.84 344.601C354.079 344.023 354.484 343.53 355.004 343.183C355.523 342.835 356.134 342.65 356.759 342.65C357.174 342.648 357.586 342.728 357.97 342.886C358.355 343.045 358.704 343.277 358.997 343.571C359.291 343.865 359.524 344.214 359.682 344.599C359.84 344.983 359.92 345.395 359.918 345.811Z" fill="white"/>
<path d="M210.36 112.476H73.6761C61.0386 112.476 48.4604 97.6372 49.9437 80.4098C51.8275 59.1462 73.8244 54.576 73.8244 54.576C73.8244 54.576 73.8244 39.0846 83.8958 27.4958C93.6706 16.2927 109.215 12.776 125.427 16.0405C131.12 17.0992 136.509 19.4007 141.211 22.7811C145.913 26.1615 149.812 30.5375 152.631 35.5976C152.631 35.5976 166.069 26.6945 184.373 35.924C196.758 42.2155 200.392 58.1817 200.392 58.1817C200.392 58.1817 222.923 60.7933 228.93 80.8104C233.335 95.5153 221.44 112.476 210.36 112.476Z" fill="#F2E5FF"/>
<path d="M140.051 48.7295L118.514 79.9348H130.143V112.476H149.974V79.9348H161.603L140.051 48.7295Z" fill="#8667E0"/>
<path d="M423.755 96.7171H558.866C571.37 96.7171 583.844 81.9676 582.346 65.0221C580.477 43.996 558.747 39.4703 558.747 39.4703C558.747 39.4703 558.747 24.157 548.794 12.761C539.124 1.6915 523.757 -1.79554 507.723 1.43925C502.096 2.47846 496.768 4.74587 492.117 8.08004C487.467 11.4142 483.608 15.7331 480.816 20.7293C480.816 20.7293 467.541 11.8262 449.445 21.0557C437.208 27.273 433.604 43.0463 433.604 43.0463C433.604 43.0463 411.355 45.6282 405.421 65.4376C401.031 79.9496 412.793 96.7171 423.755 96.7171Z" fill="#F2E5FF"/>
<path d="M491.825 96.7172L474.768 72.0112H483.979V46.2516H499.672V72.0112H508.883L491.825 96.7172Z" fill="#8667E0"/>
<path d="M91.6933 324.799H65.9141V342.828H91.6933V324.799Z" fill="#96BCE4"/>
<path d="M614.372 189.606H513.124C511.149 189.606 509.549 191.207 509.549 193.182V260.801C509.549 262.776 511.149 264.377 513.124 264.377H614.372C616.346 264.377 617.946 262.776 617.946 260.801V193.182C617.946 191.207 616.346 189.606 614.372 189.606Z" fill="url(#paint3_linear_266_8295)"/>
<path d="M617.932 198.702H509.549V213.451H617.932V198.702Z" fill="#96BCE4"/>
<path d="M536.723 219.698H520.719V225.07H536.723V219.698Z" fill="#96BCE4"/>
<path d="M558.126 219.698H542.121V225.07H558.126V219.698Z" fill="#96BCE4"/>
<path d="M579.528 219.698H563.523V225.07H579.528V219.698Z" fill="#96BCE4"/>
<path d="M603.5 243.306H594.689C592.141 243.306 590.076 245.372 590.076 247.921V251.067C590.076 253.615 592.141 255.681 594.689 255.681H603.5C606.047 255.681 608.113 253.615 608.113 251.067V247.921C608.113 245.372 606.047 243.306 603.5 243.306Z" fill="#96BCE4"/>
<path d="M281.125 233.394H275.088V239.374H271.425V233.394H265.373V229.981H271.425V223.987H275.088V229.981H281.125V233.394Z" fill="#22146B"/>
<path d="M131.509 275.714C132.588 275.714 133.644 276.034 134.541 276.634C135.439 277.234 136.138 278.087 136.552 279.084C136.965 280.082 137.073 281.18 136.862 282.239C136.652 283.299 136.132 284.272 135.368 285.035C134.605 285.799 133.632 286.319 132.574 286.53C131.515 286.74 130.417 286.632 129.42 286.219C128.422 285.806 127.57 285.106 126.97 284.208C126.37 283.31 126.05 282.254 126.05 281.174C126.048 280.456 126.188 279.745 126.462 279.082C126.735 278.419 127.137 277.816 127.645 277.309C128.152 276.801 128.754 276.399 129.417 276.125C130.081 275.851 130.791 275.712 131.509 275.714ZM131.509 272.865C129.865 272.862 128.258 273.346 126.89 274.258C125.522 275.169 124.455 276.466 123.824 277.984C123.193 279.502 123.026 281.173 123.345 282.786C123.664 284.399 124.454 285.881 125.615 287.045C126.776 288.208 128.256 289.001 129.868 289.323C131.48 289.645 133.15 289.481 134.669 288.853C136.188 288.224 137.486 287.159 138.399 285.792C139.313 284.425 139.8 282.818 139.8 281.174C139.792 278.975 138.917 276.868 137.364 275.312C135.811 273.756 133.707 272.876 131.509 272.865Z" fill="#8667E0"/>
<path d="M75.9442 199.162C77.0208 199.162 78.0733 199.481 78.9685 200.08C79.8637 200.678 80.5614 201.528 80.9734 202.523C81.3854 203.519 81.4932 204.614 81.2832 205.67C81.0732 206.726 80.5547 207.697 79.7934 208.458C79.0321 209.22 78.0621 209.738 77.0062 209.949C75.9502 210.159 74.8557 210.051 73.861 209.639C72.8663 209.226 72.0162 208.529 71.418 207.633C70.8199 206.737 70.5006 205.685 70.5006 204.607C70.4967 203.891 70.6348 203.181 70.9069 202.519C71.1791 201.856 71.5799 201.254 72.0862 200.748C72.5925 200.242 73.1941 199.841 73.8564 199.568C74.5186 199.296 75.2282 199.158 75.9442 199.162ZM75.9442 196.313C74.3001 196.31 72.6921 196.795 71.3239 197.707C69.9556 198.619 68.8887 199.917 68.2582 201.436C67.6276 202.955 67.4619 204.626 67.7819 206.24C68.102 207.853 68.8934 209.335 70.0559 210.498C71.2185 211.661 72.6999 212.453 74.3125 212.773C75.9252 213.093 77.5965 212.927 79.1149 212.296C80.6333 211.666 81.9304 210.598 82.842 209.23C83.7536 207.861 84.2386 206.252 84.2357 204.607C84.2279 202.41 83.3518 200.305 81.7985 198.751C80.2453 197.197 78.1408 196.321 75.9442 196.313Z" fill="#8667E0"/>
<path d="M609.819 294.603C612.034 294.603 614.199 295.26 616.041 296.491C617.882 297.722 619.318 299.472 620.165 301.519C621.013 303.566 621.235 305.818 620.803 307.992C620.371 310.165 619.304 312.161 617.738 313.728C616.172 315.294 614.176 316.361 612.004 316.794C609.832 317.226 607.58 317.004 605.534 316.156C603.487 315.308 601.738 313.872 600.508 312.03C599.277 310.188 598.621 308.022 598.621 305.806C598.615 304.333 598.9 302.874 599.461 301.512C600.022 300.15 600.846 298.913 601.887 297.871C602.928 296.83 604.165 296.005 605.527 295.444C606.888 294.883 608.347 294.597 609.819 294.603ZM609.819 289.617C606.619 289.617 603.49 290.567 600.829 292.345C598.168 294.124 596.093 296.653 594.869 299.611C593.644 302.569 593.323 305.824 593.948 308.964C594.572 312.105 596.113 314.989 598.376 317.253C600.64 319.517 603.523 321.059 606.662 321.684C609.801 322.308 613.055 321.988 616.012 320.762C618.969 319.537 621.496 317.462 623.274 314.8C625.053 312.138 626.002 309.008 626.002 305.806C626.008 303.675 625.594 301.564 624.783 299.593C623.973 297.622 622.782 295.83 621.28 294.319C619.777 292.809 617.991 291.61 616.025 290.79C614.058 289.971 611.949 289.547 609.819 289.543V289.617Z" fill="#8667E0"/>
<path d="M429.243 11.1437H423.191V17.1236H419.542V11.1437H413.49V7.71599H419.542V1.73608H423.191V7.71599H429.243V11.1437Z" fill="#22146B"/>
<path d="M546.215 113.974C547.292 113.974 548.344 114.294 549.24 114.892C550.135 115.49 550.833 116.341 551.245 117.336C551.657 118.331 551.764 119.426 551.554 120.482C551.344 121.539 550.826 122.509 550.065 123.271C549.303 124.032 548.333 124.551 547.277 124.761C546.221 124.971 545.127 124.863 544.132 124.451C543.137 124.039 542.287 123.341 541.689 122.445C541.091 121.55 540.772 120.497 540.772 119.42C540.768 118.704 540.906 117.994 541.178 117.331C541.45 116.669 541.851 116.067 542.357 115.56C542.864 115.054 543.465 114.653 544.128 114.381C544.79 114.108 545.499 113.97 546.215 113.974ZM546.215 111.125C544.575 111.125 542.972 111.612 541.609 112.523C540.245 113.435 539.183 114.73 538.555 116.246C537.927 117.761 537.763 119.429 538.083 121.038C538.403 122.647 539.193 124.125 540.352 125.285C541.512 126.445 542.989 127.235 544.598 127.555C546.206 127.875 547.873 127.711 549.388 127.083C550.903 126.455 552.198 125.392 553.109 124.028C554.021 122.664 554.507 121.06 554.507 119.42C554.503 117.221 553.628 115.114 552.074 113.559C550.52 112.004 548.413 111.129 546.215 111.125Z" fill="#8667E0"/>
<path d="M92.2895 382.803H86.2377V388.783H82.5889V382.803H76.5371V379.375H82.5889V373.395H86.2377V379.375H92.2895V382.803Z" fill="#22146B"/>
</g>
<defs>
<linearGradient id="paint0_linear_266_8295" x1="2093.39" y1="27993" x2="2508.6" y2="28135" gradientUnits="userSpaceOnUse">
<stop stop-color="#ADA9D4"/>
<stop offset="0.4" stop-color="#A9A5D1"/>
<stop offset="0.83" stop-color="#9F97C9"/>
<stop offset="1" stop-color="#9990C5"/>
</linearGradient>
<linearGradient id="paint1_linear_266_8295" x1="140285" y1="65214.9" x2="147660" y2="75132.4" gradientUnits="userSpaceOnUse">
<stop stop-color="#6E82C0"/>
<stop offset="1" stop-color="#4B77BB"/>
</linearGradient>
<linearGradient id="paint2_linear_266_8295" x1="66022.8" y1="49698.1" x2="71780.7" y2="54485.6" gradientUnits="userSpaceOnUse">
<stop stop-color="#6E82C0"/>
<stop offset="1" stop-color="#4B77BB"/>
</linearGradient>
<linearGradient id="paint3_linear_266_8295" x1="80021.3" y1="59234.1" x2="80021.3" y2="41445.3" gradientUnits="userSpaceOnUse">
<stop stop-color="#02164A"/>
<stop offset="1" stop-color="#220B88"/>
</linearGradient>
<clipPath id="clip0_266_8295">
<rect width="626" height="446" fill="white"/>
</clipPath>
</defs>
</svg>
