<svg width="653" height="267" viewBox="0 0 653 267" fill="none" xmlns="http://www.w3.org/2000/svg">
<g clip-path="url(#clip0_210_13242)">
<path d="M456.834 175.99L410.736 175.454L441.781 91.2792H465.934C469.011 91.2792 471.286 94.0269 470.751 97.0427L456.834 175.99Z" fill="#8667E0"/>
<path d="M515.844 104.348C515.844 104.348 511.094 103.075 510.023 104.147C508.953 105.219 508.016 111.653 510.023 112.323C512.031 113.06 519.926 113.06 519.926 113.06L515.844 104.348Z" fill="#F8B3AE"/>
<path d="M380.828 228.466L385.779 243.411L400.833 238.05L393.473 222.032L380.828 228.466Z" fill="#E9AD96"/>
<path d="M384.374 238.451C384.374 238.451 387.251 240.931 393.206 238.786C399.16 236.642 398.759 233.291 398.759 233.291C398.759 233.291 402.84 236.173 403.576 242.338C404.312 248.504 405.65 255.072 405.65 255.072L403.844 255.34C403.844 255.34 402.372 247.901 397.555 247.03C392.737 246.158 393.072 256.613 387.452 257.954C381.832 259.294 362.496 261.975 362.496 261.975C362.496 261.975 361.827 259.026 370.658 254.804C379.557 250.649 384.374 238.451 384.374 238.451Z" fill="#1B144E"/>
<path d="M338.478 222.769L328.643 239.456L340.083 245.823L350.521 229.739L338.478 222.769Z" fill="#E9AD96"/>
<path d="M329.512 237.58C329.512 237.58 331.185 240.998 337.474 241.4C343.763 241.802 344.767 238.652 344.767 238.652C344.767 238.652 347.376 242.875 345.637 248.839C343.897 254.804 342.425 261.305 342.425 261.305L340.686 260.835C340.686 260.835 342.291 253.396 338.277 250.716C334.196 248.035 330.315 257.686 324.628 256.68C318.941 255.675 300.141 250.381 300.141 250.381C300.141 250.381 300.676 247.432 310.444 247.097C320.279 246.829 329.512 237.58 329.512 237.58Z" fill="#1B144E"/>
<path d="M443.853 22.7196C443.853 22.7196 437.497 21.8483 436.025 22.7196C434.62 23.5908 436.025 29.8905 436.025 29.8905L444.388 30.2256L443.853 22.7196Z" fill="#E9AD96"/>
<path d="M398.757 126.263C398.757 126.263 361.624 134.305 352.458 151.193C347.842 159.705 381.496 235.837 381.496 235.837L397.754 227.125C397.754 227.125 378.351 169.556 384.306 162.922C390.26 156.287 455.627 127.804 455.627 127.804L398.757 126.263Z" fill="url(#paint0_linear_210_13242)"/>
<path d="M421.172 52.677C421.172 52.677 426.323 52.1409 428.264 51.9398C430.137 51.6717 435.088 51.9398 435.088 51.9398C435.088 51.9398 447.399 57.7704 450.811 72.7824C454.223 87.7945 457.635 101.198 456.832 112.926C456.03 124.654 455.494 127.804 455.494 127.804L398.691 126.196C398.691 126.196 413.411 62.4617 414.214 60.049C415.083 57.7034 421.172 52.677 421.172 52.677Z" fill="url(#paint1_linear_210_13242)"/>
<path d="M432.212 51.8729C428.465 57.9045 423.916 54.9558 424.116 52.5431L424.585 47.5167C424.585 47.5167 414.75 52.141 412.675 32.7058C412.609 31.9686 412.542 31.1643 412.475 30.3601C411.605 26.0039 424.785 20.3074 425.856 21.9158C426.86 23.5243 434.286 29.6229 435.357 30.025C436.895 30.6282 436.226 33.9121 436.093 35.7216C435.959 37.5311 432.279 41.4181 432.279 41.4181L432.212 51.8729Z" fill="#E9AD96"/>
<path d="M387.719 123.046C387.719 123.046 404.512 64.5396 413.344 56.8996C416.823 53.8838 423.38 51.9402 423.38 51.9402L409.731 121.773L399.628 120.768L399.026 123.315L387.719 123.046Z" fill="#9990C5"/>
<path d="M432.812 51.0688V130.887C432.812 130.887 446.528 133.032 455.627 128.408C463.121 124.588 462.92 120.969 462.92 120.969L454.624 67.3542C454.624 67.3542 485.869 49.7284 485.869 36.1238C485.869 25.5349 444.186 20.7096 444.186 20.7096L440.841 30.8963L470.012 38.8715C470.012 38.8715 455.761 46.8466 450.208 48.7231C445.056 50.4656 432.812 51.0688 432.812 51.0688Z" fill="#9990C5"/>
<path d="M331.986 230.677L347.776 238.786C347.776 238.786 388.923 177.397 393.473 171.969C397.955 166.54 435.623 174.918 449.406 158.23C461.984 143.017 455.695 127.737 455.695 127.737C455.695 127.737 444.053 127.335 430.405 127.067C428.665 127 388.522 138.996 384.44 142.146C362.897 158.699 331.986 230.677 331.986 230.677Z" fill="url(#paint2_linear_210_13242)"/>
<path d="M443.452 29.2879C444.723 29.0198 445.86 27.9476 445.994 26.6072C446.128 25.4679 445.325 24.2616 444.321 23.7924C443.251 23.3233 441.98 23.4573 440.976 23.9935C440.709 24.1275 440.441 24.3286 440.24 24.5296C440.508 23.7254 440.709 22.9212 440.776 22.318C440.842 21.4468 440.776 20.9107 440.709 20.8436C440.441 20.8436 440.173 22.9212 439.036 25.2668C439.036 25.3338 438.969 25.3338 438.969 25.4009C435.089 18.0289 427.729 16.5545 426.123 16.5545C424.049 16.5545 420.436 15.4152 415.218 20.9107C409.932 26.4061 412.809 32.3037 412.809 32.3037L413.679 31.4995L421.44 29.489C420.838 27.4114 421.707 24.7977 422.243 23.5914L422.31 23.5244C423.848 31.4325 432.479 32.3037 432.613 32.3037L432.212 47.7849C441.645 45.7744 441.244 35.2525 441.11 33.443C440.976 32.5718 440.776 30.5613 440.575 29.757C440.508 29.556 440.441 29.3549 440.374 29.1539C440.709 29.489 441.043 29.8241 441.445 30.2262C442.582 31.5665 443.184 32.9069 443.452 32.8399C443.586 32.7729 443.519 32.4378 443.318 31.8346C443.117 31.2314 442.716 30.4272 442.047 29.69C441.98 29.556 441.846 29.489 441.779 29.3549C442.381 29.4219 442.916 29.422 443.452 29.2879Z" fill="#231F20"/>
<path d="M237.047 72.8496C237.047 72.8496 240.593 71.5092 241.396 71.0401C242.199 70.638 243.804 70.3029 243.537 71.0401C243.269 71.7773 240.66 73.5198 240.66 73.5198L237.047 72.8496Z" fill="#F38FA7"/>
<path d="M191.686 83.9079L201.856 96.4403C201.856 96.4403 216.575 85.0472 225.473 78.0773C228.149 75.9998 230.023 73.6541 230.893 73.252C234.439 71.4425 243.27 73.252 246.08 73.252C248.89 73.252 251.901 72.4478 251.901 72.4478C251.901 72.4478 254.109 73.5871 249.158 75.3966C244.207 77.2061 233.435 78.6135 233.435 78.6135C233.435 78.6135 208.011 111.854 199.715 109.844C191.418 107.833 181.182 92.6873 181.182 92.6873L191.686 83.9079Z" fill="#F8B3AE"/>
<path d="M178.038 235.971L184.863 225.383L172.753 218.48L167.4 229.94L178.038 235.971Z" fill="#F8B3AE"/>
<path d="M179.776 235.503L166.997 228.265C166.997 228.265 159.704 234.967 160.574 238.117L175.159 246.159L175.962 244.752L183.121 250.917L199.179 259.965C199.179 259.965 201.453 257.954 194.562 251.453C187.738 244.886 179.776 235.503 179.776 235.503Z" fill="#9B92C7"/>
<path d="M225.206 251.117L225.942 238.518H211.959L212.963 251.117H225.206Z" fill="#F8B3AE"/>
<path d="M226.476 249.844H211.824C211.824 249.844 208.746 259.294 211.088 261.573H227.748V259.696L237.048 261.573H255.447C255.447 261.573 256.45 258.758 247.217 256.412C237.984 254.134 226.476 249.844 226.476 249.844Z" fill="#9B92C7"/>
<path d="M202.926 152.066L172.35 219.084L186.534 227.059L224.135 170.294L222.061 150.658L202.926 152.066Z" fill="url(#paint3_linear_210_13242)"/>
<path d="M128.392 126.33C128.392 126.33 116.884 160.978 143.446 170.83L155.69 134.171L128.392 126.33Z" fill="url(#paint4_linear_210_13242)"/>
<path d="M146.925 133.97C146.925 133.97 224.603 123.783 233.234 141.476C241.865 159.169 228.015 240.328 228.015 240.328L210.954 238.518C210.954 238.518 211.155 170.361 207.207 167.546C203.193 164.664 148.33 169.959 142.576 169.691C128.325 169.088 117.42 138.058 146.925 133.97Z" fill="url(#paint5_linear_210_13242)"/>
<path d="M121.567 174.65H126.719L111.732 89.9391H106.58L121.567 174.65Z" fill="#320769"/>
<path d="M121.567 174.65H176.764V168.418H120.43L121.567 174.65Z" fill="#6527B5"/>
<path d="M176.164 261.305H179.509L170.945 176.862C170.678 175.253 169.273 174.114 167.667 174.114H128.46C126.855 174.114 125.45 175.32 125.182 176.929L117.822 261.305H121.301L128.059 180.213C128.326 178.604 129.665 177.398 131.337 177.398H164.857C166.463 177.398 167.868 178.537 168.135 180.146L176.164 261.305Z" fill="#4B168F"/>
<path d="M571.643 235.704L564.818 225.048L576.928 218.212L582.281 229.673L571.643 235.704Z" fill="#F8B3AE"/>
<path d="M569.837 235.234L582.616 227.996C582.616 227.996 589.908 234.698 589.039 237.848L574.453 245.89L573.65 244.482L566.491 250.648L550.434 259.696C550.434 259.696 548.159 257.685 555.05 251.184C561.942 244.616 569.837 235.234 569.837 235.234Z" fill="#1B144E"/>
<path d="M524.474 250.849L523.738 238.25H537.655L536.651 250.849H524.474Z" fill="#F8B3AE"/>
<path d="M523.137 249.576H537.789C537.789 249.576 540.867 259.026 538.525 261.304H521.866V259.428L512.566 261.304H494.167C494.167 261.304 493.163 258.49 502.396 256.144C511.629 253.865 523.137 249.576 523.137 249.576Z" fill="#1B144E"/>
<path d="M653.002 261.304H100.963V267.001H653.002V261.304Z" fill="#1B6C8A"/>
<path d="M46.9678 194.219C46.9678 194.219 -13.4481 123.448 2.74312 106.291C18.9343 89.0677 48.1721 143.486 46.9678 194.219Z" fill="#8667E0"/>
<path d="M8.5599 114.667C20.2015 129.88 29.5683 146.635 36.6603 164.395C42.6149 179.206 47.0307 194.687 50.1084 210.369C51.4465 217.272 52.3832 224.175 53.5206 231.145C53.5875 231.48 54.1227 231.413 54.1227 231.078C53.1191 217.54 50.1753 203.935 46.6962 190.867C42.1466 173.911 35.7905 157.291 27.3604 141.877C22.0749 132.159 16.0533 122.91 9.09515 114.265C8.89443 113.93 8.35919 114.399 8.5599 114.667Z" fill="#96BCE4"/>
<path d="M50.3794 173.712C50.3794 173.712 96.4774 92.8208 77.3424 79.015C58.2743 65.2093 39.7414 124.118 50.3794 173.712Z" fill="#3C2A7C"/>
<path d="M72.5913 88.0608C56.1325 119.291 49.375 154.945 49.375 189.995C49.375 197.032 49.5088 204.136 50.3117 211.173C50.3786 211.575 50.9138 211.575 50.9138 211.173C50.5124 197.635 50.111 184.232 51.1815 170.761C52.5196 153.269 55.6641 135.845 60.8828 119.09C64.1612 108.568 68.3093 98.3145 73.2603 88.4629C73.3942 88.0608 72.8589 87.6586 72.5913 88.0608Z" fill="#96BCE4"/>
<path d="M53.1905 210.505C53.1905 210.505 102.166 147.642 89.4534 132.362C76.7413 117.082 52.7891 165.469 53.1905 210.505Z" fill="#8667E0"/>
<path d="M84.97 137.656C68.645 157.627 58.8098 182.223 53.8588 207.355C52.8552 212.381 51.9185 217.474 51.584 222.568C51.584 222.903 52.1192 222.97 52.1861 222.635C53.9926 212.917 55.4645 203.2 58.2077 193.616C61.6198 181.352 66.3032 169.49 72.3248 158.297C76.1384 151.194 80.6211 144.425 85.5052 137.991C85.7728 137.79 85.2376 137.388 84.97 137.656Z" fill="#96BCE4"/>
<path d="M28.8379 220.423L29.1055 222.367L29.7077 226.589L35.7292 267.001H71.5907L77.6122 226.589L78.2143 222.367L78.5489 220.423H28.8379Z" fill="#320769"/>
<path d="M28.1021 224.176H79.218C80.8238 224.176 82.1619 222.836 82.1619 221.227C82.1619 219.619 80.8238 218.279 79.218 218.279H28.1021C26.4963 218.279 25.1582 219.619 25.1582 221.227C25.1582 222.903 26.4963 224.176 28.1021 224.176Z" fill="#4B168F"/>
<path d="M310.577 110.581C312.45 104.214 313.253 95.3009 313.788 88.6661C313.855 87.3928 313.922 85.9854 313.454 84.7791C312.985 83.5727 311.848 82.5005 310.577 82.5005C309.506 82.5005 308.503 83.3047 307.967 84.2429C307.432 85.1812 307.165 86.2535 306.964 87.3258C305.76 93.4244 304.555 99.5901 303.351 105.689C302.214 103.477 300.675 101.534 298.935 99.8581C298.132 99.1209 296.995 98.3837 295.991 98.9199C295.122 99.389 295.055 100.595 295.055 101.601C295.188 104.616 295.523 107.632 296.192 110.514" fill="url(#paint6_linear_210_13242)"/>
<path d="M313.119 109.91C313.119 109.91 316.264 122.376 303.551 122.979C291.843 123.515 294.653 109.91 294.653 109.91H313.119Z" fill="#8667E0"/>
<path d="M316.998 70.6381L335.865 123.113H422.977L422.375 120.567L389.323 118.087L373.6 69.8339L316.998 70.6381Z" fill="#3C2A7C"/>
<path d="M357.211 98.6519C357.546 100.595 356.475 102.405 354.87 102.673C353.197 102.941 351.591 101.601 351.257 99.6572C350.922 97.7136 351.993 95.9041 353.598 95.6361C355.271 95.368 356.877 96.7084 357.211 98.6519Z" fill="white"/>
<path d="M594.996 61.4569C590.312 65.0089 564.286 97.7137 558.733 99.1881C553.18 100.662 521.466 102.539 521.466 102.539L518.656 116.278C518.656 116.278 559.268 118.422 568.233 111.787C582.284 101.4 597.07 77.4742 597.07 77.4742C597.337 69.6331 599.679 57.8379 594.996 61.4569Z" fill="#4772B2"/>
<path d="M546.753 151.797L577.328 218.815L563.144 226.791L525.477 170.026L527.551 150.39L546.753 151.797Z" fill="#381F6F"/>
<path d="M621.221 126.062C621.221 126.062 632.729 160.71 606.168 170.562L593.924 133.903L621.221 126.062Z" fill="#381F6F"/>
<path d="M602.754 133.702C602.754 133.702 523.739 132.697 515.108 150.389C506.477 168.082 521.732 240.06 521.732 240.06L538.792 238.25C538.792 238.25 538.592 170.093 542.539 167.278C546.554 164.396 601.416 169.691 607.17 169.423C621.354 168.752 632.26 137.79 602.754 133.702Z" fill="#3D2276"/>
<path d="M508.551 91.0781L519.59 123.381H549.832L539.729 91.0781H508.551Z" fill="#FFE89C"/>
<path d="M508.551 91.0781L519.59 123.381H549.832L539.729 91.0781H508.551Z" fill="url(#paint7_linear_210_13242)"/>
<path d="M531.632 106.828C531.899 108.369 531.03 109.844 529.691 110.112C528.353 110.38 527.015 109.241 526.748 107.699C526.48 106.158 527.35 104.683 528.688 104.415C530.026 104.147 531.297 105.22 531.632 106.828Z" fill="white"/>
<path d="M628.981 83.1708C626.439 105.086 623.696 132.027 623.696 132.027C623.696 132.027 613.994 131.893 611.653 132.027C603.289 132.496 601.082 133.501 593.12 133.769C589.105 133.904 577.33 134.306 577.33 134.306C577.33 134.306 579.672 123.114 581.411 117.618C583.151 112.123 584.823 105.89 584.823 103.276C584.823 102.673 584.823 102.003 584.823 101.4C584.89 92.1512 585.894 82.4336 587.433 74.7265C589.775 63.1324 599.008 57.1678 605.832 56.2296C610.181 55.6264 614.998 56.8997 619.146 59.7145C623.094 62.3952 626.372 66.4833 628.045 71.8448C629.115 75.0616 629.516 78.8817 628.981 83.1708Z" fill="url(#paint8_linear_210_13242)"/>
<path d="M560.135 109.509C560.135 109.509 555.117 110.38 553.645 108.972C552.173 107.565 548.092 103.008 547.758 104.348C547.423 105.689 550.233 108.235 549.029 109.106C547.824 109.978 541.803 108.101 541.268 111.452C540.732 114.736 540.866 117.484 543.676 118.422C546.486 119.36 561.139 117.484 561.139 117.484L560.135 109.509Z" fill="#F8B3AE"/>
<path d="M628.112 71.7773C627.912 72.5815 627.644 73.3857 627.309 74.1229C623.897 81.763 615.534 99.3888 606.234 109.039C602.621 112.792 591.849 115.607 581.412 117.551C569.57 119.762 558.129 120.768 558.129 120.768L558.597 108.168C558.597 108.168 573.986 104.348 584.891 101.332C589.441 100.059 593.254 98.8526 594.793 98.1824C600.012 95.8368 618.478 59.647 618.478 59.647C618.745 59.647 619.013 59.58 619.281 59.647C623.094 62.3278 626.44 66.4159 628.112 71.7773Z" fill="#4772B2"/>
<path d="M612.724 56.4968C607.439 63.6678 603.491 60.1158 603.893 57.7702L604.829 52.8108C604.829 52.8108 591.649 56.7649 591.381 37.1956C591.381 36.4584 591.381 35.6542 591.381 34.85C590.913 30.4268 606.703 30.4938 607.572 32.1693C608.442 33.8447 609.111 40.0104 609.111 40.0104C609.111 37.3297 613.126 36.1233 614.196 36.6595C615.668 37.3967 614.731 40.6135 614.397 42.423C614.062 44.2325 612.59 47.7845 612.59 47.7845L612.724 56.4968Z" fill="#F8B3AE"/>
<path d="M615.467 46.1097C613.929 49.5946 612.858 52.6774 612.858 52.6774C611.988 54.2859 611.721 49.2595 611.721 49.2595C611.721 49.2595 611.118 46.4448 611.788 44.5683C611.788 44.5683 613.594 44.7023 614.263 39.4749C614.598 36.8612 611.52 36.5261 610.449 39.6759L609.312 40.011C609.312 40.011 608.308 30.3604 602.688 32.1699C602.688 32.1699 600.48 34.4485 597.537 33.9124C594.727 33.3762 593.723 32.9071 593.723 32.9071C593.723 32.9071 592.586 35.9229 589.441 34.2475C586.296 32.572 585.895 26.9425 586.965 25.5351C587.568 24.7309 588.17 23.7927 589.24 23.5916C590.244 23.3905 591.381 23.7927 592.05 24.5969C591.314 23.4576 591.85 21.7821 592.987 21.0449C594.124 20.3077 595.663 20.3747 596.934 20.8439C598.206 21.313 599.276 22.2512 600.347 23.1225C601.083 21.0449 603.291 19.6375 605.431 19.7716C607.639 19.9726 609.58 21.7151 609.914 23.8597C611.118 22.3853 613.326 22.0502 615.066 22.8544C616.739 23.6586 617.876 25.4681 618.21 27.2776C618.545 29.1541 618.144 31.0306 617.408 32.7731C618.746 32.0359 620.552 32.572 621.422 33.7783C622.292 34.9847 622.292 36.7271 621.69 38.0675C621.021 39.4079 619.816 40.4802 618.478 41.1503C619.482 41.9546 619.749 43.496 619.147 44.6353C618.545 45.7746 617.073 46.3107 615.869 45.9086" fill="#231F20"/>
<path d="M548.295 123.247H179.711V136.048H548.295V123.247Z" fill="#22146B"/>
<path d="M279.8 120.164H274.18L294.118 68.627H299.805L279.8 120.164Z" fill="#9B92C7"/>
<path d="M278.327 123.716H216.707V120.164H279.799L278.327 123.716Z" fill="#3C2A7C"/>
<path d="M272.106 121.237H269.096V122.711H272.106V121.237Z" fill="#ADA9D4"/>
<path d="M268.292 121.237H261.869V122.711H268.292V121.237Z" fill="#ADA9D4"/>
<path d="M261.069 121.237H258.059V122.711H261.069V121.237Z" fill="#ADA9D4"/>
<path d="M230.156 122.711C230.562 122.711 230.892 122.381 230.892 121.974C230.892 121.567 230.562 121.237 230.156 121.237C229.749 121.237 229.42 121.567 229.42 121.974C229.42 122.381 229.749 122.711 230.156 122.711Z" fill="#ADA9D4"/>
<path d="M227.681 122.711C228.088 122.711 228.417 122.381 228.417 121.974C228.417 121.567 228.088 121.237 227.681 121.237C227.275 121.237 226.945 121.567 226.945 121.974C226.945 122.381 227.275 122.711 227.681 122.711Z" fill="#ADA9D4"/>
<path d="M628.113 174.383H622.961L637.948 89.6719H643.1L628.113 174.383Z" fill="#320769"/>
<path d="M628.111 174.382H572.914V168.082H629.182L628.111 174.382Z" fill="#6527B5"/>
<path d="M573.65 261.304H570.305L578.735 176.594C579.002 174.985 580.407 173.846 582.013 173.846H621.22C622.826 173.846 624.231 175.052 624.498 176.661L631.858 261.237H628.379L621.554 179.944C621.287 178.336 619.949 177.13 618.276 177.13H584.756C583.151 177.13 581.746 178.269 581.478 179.877L573.65 261.304Z" fill="#4B168F"/>
<path d="M221.527 261.304H214.301V136.114H221.527V261.304Z" fill="url(#paint9_linear_210_13242)"/>
<path d="M177.101 57.5025C184.126 60.4513 199.113 91.0786 199.113 91.0786L187.404 103.745L169.072 77.4739L177.101 57.5025Z" fill="url(#paint10_linear_210_13242)"/>
<path d="M507.346 136.047H500.188V261.304H507.346V136.047Z" fill="url(#paint11_linear_210_13242)"/>
<path d="M125.918 126.33C125.918 126.33 137.56 81.9636 151.944 64.807C160.642 54.4192 168.738 54.4192 168.738 54.4192L177.101 57.435C177.101 57.435 182.119 69.6323 181.383 85.9847C180.781 99.5894 172.484 131.624 172.484 131.624L152.613 133.299L125.918 126.33Z" fill="url(#paint12_linear_210_13242)"/>
<path d="M165.726 91.4135L163.986 96.3728C163.986 96.3728 196.302 113.932 199.112 114.803C201.922 115.674 213.496 120.097 214.634 120.767C215.771 121.438 214.366 122.711 214.366 122.711C214.366 122.711 204.197 122.577 202.925 122.242C201.654 121.907 199.714 120.834 198.643 120.499C197.573 120.164 149.535 110.38 148.464 103.745C147.394 97.11 153.281 87.7945 153.281 87.7945L165.726 91.4135Z" fill="#F8B3AE"/>
<path d="M169.405 50.7337C169.94 52.4762 171.211 47.6509 171.211 47.6509C171.211 47.6509 172.415 44.9702 172.148 43.0267C172.148 43.0267 170.341 42.7586 170.743 37.5312C170.943 34.9175 174.021 35.1856 174.423 38.5365L175.493 39.0726C175.493 39.0726 178.437 29.8241 183.589 32.7729C183.589 32.7729 185.261 35.4536 188.272 35.5206C191.149 35.5877 192.219 35.3196 192.219 35.3196C192.219 35.3196 192.688 38.5365 196.1 37.5312C199.512 36.5259 200.248 32.974 199.512 31.3655C199.044 30.4273 200.984 27.9476 199.445 26.6743C196.435 24.1946 189.61 27.4785 185.261 21.916C183.923 20.1735 179.574 20.8437 178.771 22.8542C177.902 21.1788 175.894 22.05 174.155 22.6532C168.736 24.5297 167.13 35.1185 168.468 43.8309C168.736 45.4393 169.405 50.7337 169.405 50.7337Z" fill="#231F20"/>
<path d="M168.736 54.42C172.416 62.5292 177.033 59.9155 177.1 57.4358L177.166 52.3424C177.166 52.3424 189.276 58.9102 193.491 39.8771C193.625 39.1399 193.826 38.4027 193.96 37.5315C195.298 33.3093 179.843 30.0924 178.638 31.5668C177.434 33.0412 175.494 38.9388 175.494 38.9388C176.029 36.3251 172.349 34.3146 171.212 34.6497C169.606 35.0518 169.874 38.4027 169.874 40.2122C169.807 42.0217 170.543 45.7747 170.543 45.7747L168.736 54.42Z" fill="#E9AD96"/>
<path d="M387.654 32.1695L381.565 22.5859C384.308 20.3073 385.914 17.4926 385.914 14.5438C385.914 6.50161 374.206 -0.0661621 359.754 -0.0661621C345.302 -0.0661621 333.594 6.43459 333.594 14.5438C333.594 22.653 345.302 29.1537 359.754 29.1537C365.173 29.1537 370.124 28.2155 374.339 26.674L387.654 32.1695Z" fill="#58C6D9"/>
<path d="M387.654 32.1695L381.565 22.5859C384.308 20.3073 385.914 17.4926 385.914 14.5438C385.914 6.50161 374.206 -0.0661621 359.754 -0.0661621C345.302 -0.0661621 333.594 6.43459 333.594 14.5438C333.594 22.653 345.302 29.1537 359.754 29.1537C365.173 29.1537 370.124 28.2155 374.339 26.674L387.654 32.1695Z" fill="#DFD8ED"/>
<path d="M567.964 39.9432L561.876 49.5268C564.619 51.8054 566.225 54.6202 566.225 57.569C566.225 65.6112 554.516 72.1789 540.064 72.1789C525.613 72.1789 513.904 65.6782 513.904 57.569C513.904 49.4598 525.613 42.9591 540.064 42.9591C545.484 42.9591 550.435 43.8973 554.65 45.4387L567.964 39.9432Z" fill="#F2E5FF"/>
<path d="M221.26 48.2538L227.348 38.6702C224.605 36.3916 222.999 33.5768 222.999 30.628C222.999 22.5858 234.708 16.0181 249.159 16.0181C263.611 16.0181 275.32 22.5188 275.32 30.628C275.32 38.7372 263.611 45.305 249.159 45.305C243.74 45.305 238.789 44.3667 234.574 42.8253L221.26 48.2538Z" fill="#F2E5FF"/>
<path d="M456.834 175.99H401.637V169.758H457.971L456.834 175.99Z" fill="#6527B5"/>
<path d="M402.505 261.305H399.16L407.523 178.203C407.791 176.594 409.196 175.455 410.802 175.455H450.009C451.614 175.455 453.019 176.661 453.287 178.27L460.58 261.305H457.167L450.41 181.554C450.142 179.945 448.804 178.739 447.132 178.739H413.612C412.006 178.739 410.601 179.878 410.333 181.487L402.505 261.305Z" fill="#4B168F"/>
<path d="M496.641 123.247H450.275V122.041H451.48L451.614 113.194H450.275V111.921H496.641C498.046 111.921 499.183 113.06 499.183 114.468V120.7C499.183 122.108 498.046 123.247 496.641 123.247Z" fill="#6527B5"/>
<path d="M495.302 122.041H450.877V113.195H495.302C496.574 113.195 497.577 114.2 497.577 115.473V119.696C497.577 120.969 496.574 122.041 495.302 122.041Z" fill="#F2E5FF"/>
<path d="M452.751 111.92H499.117V110.714H497.912L497.778 101.868H499.183V100.661H452.818C451.413 100.661 450.275 101.801 450.275 103.208V109.441C450.275 110.781 451.413 111.92 452.751 111.92Z" fill="#96BCE4"/>
<path d="M454.091 110.715H498.517V101.868H454.091C452.82 101.868 451.816 102.873 451.816 104.147V108.369C451.816 109.642 452.82 110.715 454.091 110.715Z" fill="#3C2A7C"/>
<path d="M530.361 136.047H190.881V142.414H530.361V136.047Z" fill="#1B144E"/>
<path d="M240.325 33.242C241.507 33.242 242.466 32.2818 242.466 31.0974C242.466 29.913 241.507 28.9528 240.325 28.9528C239.142 28.9528 238.184 29.913 238.184 31.0974C238.184 32.2818 239.142 33.242 240.325 33.242Z" fill="white"/>
<path d="M250.426 33.5772C251.609 33.5772 252.567 32.6171 252.567 31.4327C252.567 30.2482 251.609 29.2881 250.426 29.2881C249.244 29.2881 248.285 30.2482 248.285 31.4327C248.285 32.6171 249.244 33.5772 250.426 33.5772Z" fill="white"/>
<path d="M260.53 33.5772C261.712 33.5772 262.671 32.617 262.671 31.4326C262.671 30.2482 261.712 29.288 260.53 29.288C259.347 29.288 258.389 30.2482 258.389 31.4326C258.389 32.617 259.347 33.5772 260.53 33.5772Z" fill="white"/>
<path d="M348.512 15.4816C349.695 15.4816 350.653 14.5214 350.653 13.337C350.653 12.1526 349.695 11.1924 348.512 11.1924C347.33 11.1924 346.371 12.1526 346.371 13.337C346.371 14.5214 347.33 15.4816 348.512 15.4816Z" fill="white"/>
<path d="M358.614 15.8169C359.796 15.8169 360.755 14.8567 360.755 13.6723C360.755 12.4879 359.796 11.5277 358.614 11.5277C357.431 11.5277 356.473 12.4879 356.473 13.6723C356.473 14.8567 357.431 15.8169 358.614 15.8169Z" fill="white"/>
<path d="M368.784 15.8169C369.966 15.8169 370.925 14.8567 370.925 13.6723C370.925 12.4879 369.966 11.5277 368.784 11.5277C367.601 11.5277 366.643 12.4879 366.643 13.6723C366.643 14.8567 367.601 15.8169 368.784 15.8169Z" fill="white"/>
<path d="M530.832 59.6471C532.015 59.6471 532.973 58.6869 532.973 57.5025C532.973 56.3181 532.015 55.3579 530.832 55.3579C529.65 55.3579 528.691 56.3181 528.691 57.5025C528.691 58.6869 529.65 59.6471 530.832 59.6471Z" fill="white"/>
<path d="M540.934 59.9153C542.116 59.9153 543.075 58.9551 543.075 57.7707C543.075 56.5863 542.116 55.6261 540.934 55.6261C539.752 55.6261 538.793 56.5863 538.793 57.7707C538.793 58.9551 539.752 59.9153 540.934 59.9153Z" fill="white"/>
<path d="M551.037 59.9153C552.22 59.9153 553.178 58.9552 553.178 57.7707C553.178 56.5863 552.22 55.6262 551.037 55.6262C549.855 55.6262 548.896 56.5863 548.896 57.7707C548.896 58.9552 549.855 59.9153 551.037 59.9153Z" fill="white"/>
</g>
<defs>
<linearGradient id="paint0_linear_210_13242" x1="285.172" y1="197.655" x2="326.708" y2="138.354" gradientUnits="userSpaceOnUse">
<stop stop-color="#7468AE"/>
<stop offset="0.22" stop-color="#7165AA"/>
<stop offset="0.46" stop-color="#685E9C"/>
<stop offset="0.71" stop-color="#5A5287"/>
<stop offset="0.97" stop-color="#464068"/>
<stop offset="1" stop-color="#433E64"/>
</linearGradient>
<linearGradient id="paint1_linear_210_13242" x1="39597" y1="32247.6" x2="48869.4" y2="39074.9" gradientUnits="userSpaceOnUse">
<stop stop-color="#ADA9D4"/>
<stop offset="0.4" stop-color="#A9A5D1"/>
<stop offset="0.83" stop-color="#9F97C9"/>
<stop offset="1" stop-color="#9990C5"/>
</linearGradient>
<linearGradient id="paint2_linear_210_13242" x1="89810.2" y1="89598.7" x2="106793" y2="73788.6" gradientUnits="userSpaceOnUse">
<stop stop-color="#7468AE"/>
<stop offset="0.22" stop-color="#7165AA"/>
<stop offset="0.46" stop-color="#685E9C"/>
<stop offset="0.71" stop-color="#5A5287"/>
<stop offset="0.97" stop-color="#464068"/>
<stop offset="1" stop-color="#433E64"/>
</linearGradient>
<linearGradient id="paint3_linear_210_13242" x1="27184.5" y1="54712.9" x2="22702.7" y2="55805.1" gradientUnits="userSpaceOnUse">
<stop stop-color="#7468AE"/>
<stop offset="0.22" stop-color="#7165AA"/>
<stop offset="0.46" stop-color="#685E9C"/>
<stop offset="0.71" stop-color="#5A5287"/>
<stop offset="0.97" stop-color="#464068"/>
<stop offset="1" stop-color="#433E64"/>
</linearGradient>
<linearGradient id="paint4_linear_210_13242" x1="15658.5" y1="31906.4" x2="13077.8" y2="32527.3" gradientUnits="userSpaceOnUse">
<stop stop-color="#7468AE"/>
<stop offset="0.22" stop-color="#7165AA"/>
<stop offset="0.46" stop-color="#685E9C"/>
<stop offset="0.71" stop-color="#5A5287"/>
<stop offset="0.97" stop-color="#464068"/>
<stop offset="1" stop-color="#433E64"/>
</linearGradient>
<linearGradient id="paint5_linear_210_13242" x1="159.133" y1="211.25" x2="210.48" y2="153.234" gradientUnits="userSpaceOnUse">
<stop stop-color="#7468AE"/>
<stop offset="0.22" stop-color="#7165AA"/>
<stop offset="0.45" stop-color="#695E9C"/>
<stop offset="0.7" stop-color="#5B5287"/>
<stop offset="0.84" stop-color="#504876"/>
<stop offset="1" stop-color="#433E64"/>
</linearGradient>
<linearGradient id="paint6_linear_210_13242" x1="12931.2" y1="11980.8" x2="16194.7" y2="14076.8" gradientUnits="userSpaceOnUse">
<stop stop-color="#ADA9D4"/>
<stop offset="0.4" stop-color="#A9A5D1"/>
<stop offset="0.83" stop-color="#9F97C9"/>
<stop offset="1" stop-color="#9990C5"/>
</linearGradient>
<linearGradient id="paint7_linear_210_13242" x1="28283.2" y1="13778.4" x2="32326.2" y2="18740.1" gradientUnits="userSpaceOnUse">
<stop stop-color="#ADA9D4"/>
<stop offset="0.4" stop-color="#A9A5D1"/>
<stop offset="0.83" stop-color="#9F97C9"/>
<stop offset="1" stop-color="#9990C5"/>
</linearGradient>
<linearGradient id="paint8_linear_210_13242" x1="45344.6" y1="43583.2" x2="50035.2" y2="46588" gradientUnits="userSpaceOnUse">
<stop stop-color="#6E82C0"/>
<stop offset="1" stop-color="#4B77BB"/>
</linearGradient>
<linearGradient id="paint9_linear_210_13242" x1="5514.59" y1="98994.7" x2="5514.59" y2="69210.8" gradientUnits="userSpaceOnUse">
<stop stop-color="#02164A"/>
<stop offset="1" stop-color="#220B88"/>
</linearGradient>
<linearGradient id="paint10_linear_210_13242" x1="185.551" y1="78.706" x2="195.98" y2="88.5225" gradientUnits="userSpaceOnUse">
<stop stop-color="#ADA9D4"/>
<stop offset="0.4" stop-color="#A9A5D1"/>
<stop offset="0.83" stop-color="#9F97C9"/>
<stop offset="1" stop-color="#9990C5"/>
</linearGradient>
<linearGradient id="paint11_linear_210_13242" x1="5751.41" y1="99047.5" x2="5751.41" y2="69247.7" gradientUnits="userSpaceOnUse">
<stop stop-color="#02164A"/>
<stop offset="1" stop-color="#220B88"/>
</linearGradient>
<linearGradient id="paint12_linear_210_13242" x1="37493.4" y1="33477.6" x2="46848.2" y2="39802.7" gradientUnits="userSpaceOnUse">
<stop stop-color="#ADA9D4"/>
<stop offset="0.4" stop-color="#A9A5D1"/>
<stop offset="0.83" stop-color="#9F97C9"/>
<stop offset="1" stop-color="#9990C5"/>
</linearGradient>
<clipPath id="clip0_210_13242">
<rect width="653" height="267" fill="white"/>
</clipPath>
</defs>
</svg>
