<svg width="568" height="462" viewBox="0 0 568 462" fill="none" xmlns="http://www.w3.org/2000/svg">
<g clip-path="url(#clip0_215_6724)">
<path d="M497.783 449.006C520.143 449.006 538.27 445.055 538.27 440.181C538.27 435.307 520.143 431.355 497.783 431.355C475.423 431.355 457.297 435.307 457.297 440.181C457.297 445.055 475.423 449.006 497.783 449.006Z" fill="#FAF5FF"/>
<path d="M299.891 462C365.15 462 418.053 454.752 418.053 445.812C418.053 436.871 365.15 429.623 299.891 429.623C234.632 429.623 181.729 436.871 181.729 445.812C181.729 454.752 234.632 462 299.891 462Z" fill="#FAF5FF"/>
<path d="M76.2703 447.274C118.393 447.274 152.541 443.322 152.541 438.448C152.541 433.574 118.393 429.623 76.2703 429.623C34.1474 429.623 0 433.574 0 438.448C0 443.322 34.1474 447.274 76.2703 447.274Z" fill="#FAF5FF"/>
<path d="M387.458 340.017H195.025C188.377 340.017 183.187 334.278 183.836 327.618L189.566 270.119C192.539 240.178 217.728 217.33 247.782 217.33H334.809C364.863 217.33 390.052 240.178 393.025 270.119L398.755 327.618C399.296 334.224 394.106 340.017 387.458 340.017Z" fill="#2C1E73"/>
<path d="M369.242 322.041H209.998C204.485 322.041 200.215 317.601 200.755 312.458L205.458 267.952C207.944 244.779 228.755 227.075 253.62 227.075H325.62C350.485 227.075 371.296 244.725 373.782 267.952L378.485 312.458C379.025 317.601 374.701 322.041 369.242 322.041Z" fill="#4B77BB"/>
<path d="M382.595 429.785H199.298C187.946 429.785 178.379 422.205 177.082 412.189L170.379 359.616H412.001L404.757 412.351C403.406 422.314 393.892 429.785 382.595 429.785Z" fill="#2C1E73"/>
<path d="M166.27 326.048L170.378 359.616H209.405V308.181L166.27 326.048Z" fill="#2C1E73"/>
<path d="M182.594 331.57C197.401 331.57 209.405 319.547 209.405 304.715C209.405 289.884 197.401 277.861 182.594 277.861C167.787 277.861 155.783 289.884 155.783 304.715C155.783 319.547 167.787 331.57 182.594 331.57Z" fill="url(#paint0_linear_215_6724)"/>
<path d="M182.594 316.898C189.311 316.898 194.756 311.444 194.756 304.716C194.756 297.988 189.311 292.534 182.594 292.534C175.877 292.534 170.432 297.988 170.432 304.716C170.432 311.444 175.877 316.898 182.594 316.898Z" fill="#4B77BB"/>
<path d="M373.082 359.616H209.406V337.418C209.406 331.137 214.487 325.993 220.812 325.993H361.731C368.001 325.993 373.136 331.083 373.136 337.418V359.616H373.082Z" fill="#4B77BB"/>
<path d="M407.513 326.048L403.405 359.616H364.432V308.181L407.513 326.048Z" fill="#2C1E73"/>
<path d="M179.297 384.63H398.702" stroke="#96BCE4" stroke-width="2.93393" stroke-miterlimit="10" stroke-linecap="round"/>
<path d="M391.242 331.57C406.05 331.57 418.053 319.547 418.053 304.715C418.053 289.884 406.05 277.861 391.242 277.861C376.435 277.861 364.432 289.884 364.432 304.715C364.432 319.547 376.435 331.57 391.242 331.57Z" fill="#F0884E"/>
<path d="M391.242 331.57C406.05 331.57 418.053 319.547 418.053 304.715C418.053 289.884 406.05 277.861 391.242 277.861C376.435 277.861 364.432 289.884 364.432 304.715C364.432 319.547 376.435 331.57 391.242 331.57Z" fill="url(#paint1_linear_215_6724)"/>
<path d="M391.244 316.898C397.961 316.898 403.406 311.444 403.406 304.716C403.406 297.988 397.961 292.534 391.244 292.534C384.527 292.534 379.082 297.988 379.082 304.716C379.082 311.444 384.527 316.898 391.244 316.898Z" fill="#4B77BB"/>
<path d="M209.405 429.785L202.648 442.996H214L228.108 429.785H209.405Z" fill="#220C88"/>
<path d="M373.621 429.785L380.377 442.996H369.026L354.918 429.785H373.621Z" fill="#220C88"/>
<path d="M303.728 183.165C303.944 180.024 303.89 177.642 303.836 176.992C299.62 176.234 294.269 177.805 288.539 178.4C282.269 179.05 276.215 174.285 276.215 174.285C275.944 180.566 272.863 188.904 272.863 188.904H271.782L270.593 185.493C270.377 185.33 266.431 182.894 267.836 188.958C267.404 188.579 264.485 185.547 265.08 174.285C265.728 162.211 273.026 163.348 273.026 163.348C282.755 154.74 303.025 163.782 303.025 163.782C303.025 163.782 312.377 157.122 315.134 168.492C317.728 179.645 305.026 182.84 303.728 183.165Z" fill="#231F20"/>
<path d="M338.541 247.649C338.541 247.649 334.811 251.385 330.541 254.471C326.541 257.287 321.136 259.127 321.136 259.127L316.217 250.248C316.217 250.248 317.622 255.337 319.568 268.223C321.136 278.619 316.92 295.999 316.92 295.999C316.92 295.999 300.001 301.413 289.244 301.413C278.487 301.413 262.325 297.515 262.325 297.515C262.325 297.515 261.298 276.94 262.217 266.761C263.136 256.691 267.028 245.538 267.028 245.538L261.839 259.94C261.839 259.94 255.568 258.532 251.19 256.583C246.811 254.634 243.893 251.547 243.893 251.547C254.757 215.434 264.433 213.593 289.46 211.807C323.676 209.424 338.541 247.649 338.541 247.649Z" fill="url(#paint2_linear_215_6724)"/>
<path d="M367.08 359.617C365.783 349.384 365.621 345.756 364.918 335.577C364.107 324.316 357.783 287.769 384.648 278.782" stroke="#96BCE4" stroke-width="2.93393" stroke-miterlimit="10" stroke-linecap="round"/>
<path d="M264.918 289.826V307.314C264.918 307.314 258.323 307.91 243.891 295.348C229.459 282.787 243.891 251.601 243.891 251.601L261.999 259.506V259.56C260.81 262.43 260.053 265.137 259.567 267.627C256.756 282.408 264.918 289.826 264.918 289.826Z" fill="#F8B3AE"/>
<path d="M323.458 298.76C323.458 298.76 368.431 297.948 368.756 326.048C369.026 347.759 308.323 346.784 271.134 344.998C247.837 343.915 245.134 339.692 245.134 339.692L243.729 327.076L280.269 315.923L323.458 298.76Z" fill="url(#paint3_linear_215_6724)"/>
<path d="M349.73 298.218L326.108 265.895L321.189 259.127L337.676 248.244L338.595 247.649C338.595 247.649 356.325 275.478 362.271 282.95C368.649 291.017 349.73 298.218 349.73 298.218Z" fill="#F8B3AE"/>
<path d="M352.346 274.721C351.121 274.844 349.904 275.91 349.779 277.135C349.049 284.34 346.881 305.899 347.003 306.795C347.15 307.872 366.293 304.427 366.762 302.758C367.232 301.035 372.335 275.515 371.983 273.576C371.668 271.977 358.02 274.153 352.346 274.721Z" fill="#F2E5FF"/>
<path d="M232.541 325.397C232.541 325.397 214.379 332.49 212.541 336.443C210.704 340.449 212.541 343.535 212.541 343.535L240.433 339.854L235.514 324.206L232.541 325.397Z" fill="#F8B3AE"/>
<path d="M280.271 410.402L270.919 411.918L264.379 412.947H264.325H264.217C264.217 412.947 264.217 412.947 264.163 412.839C262.757 410.24 230.703 349.004 232.541 319.713C233.027 311.808 241.73 307.314 247.081 305.257C249.514 304.337 251.244 303.903 251.244 303.903C251.244 303.903 272.811 302.063 279.676 314.732C279.892 315.111 280.109 315.49 280.271 315.923C281.298 318.305 282.054 321.771 282.595 326.048C282.703 326.806 282.757 327.618 282.865 328.43C282.865 328.701 282.919 329.026 282.973 329.405C282.973 329.567 282.973 329.729 283.027 329.946C285.406 358.154 280.271 410.402 280.271 410.402Z" fill="url(#paint4_linear_215_6724)"/>
<path d="M139.458 331.733H25.2422V394.592H139.458V331.733Z" fill="#22146B"/>
<path d="M132.487 338.283H32.2168V387.986H132.487V338.283Z" fill="#4B77BB"/>
<path d="M96.8109 362.053H67.8379V364.273H96.8109V362.053Z" fill="#220C88"/>
<path d="M37.1357 394.592L26.3789 440.938H37.1357L56.7032 394.592H37.1357Z" fill="#220C88"/>
<path d="M127.567 394.592L138.27 440.938H127.567L107.945 394.592H127.567Z" fill="#220C88"/>
<path d="M104.378 331.733H95.8911C90.6479 331.733 86.4316 327.51 86.4316 322.258V298.543H113.783V322.258C113.837 327.51 109.621 331.733 104.378 331.733Z" fill="#3C2A7C"/>
<path d="M118.593 306.394H113.836V308.884H116.971C118.106 308.884 118.971 309.155 118.971 310.292V312.945C118.971 313.595 118.647 313.974 118.106 314.353L113.836 317.222V320.417L120.322 316.031C121.187 315.436 121.674 314.515 121.674 313.487V309.48C121.674 307.802 120.268 306.394 118.593 306.394Z" fill="#3C2A7C"/>
<path d="M54.8642 260.535H51.9453V325.777H54.8642V260.535Z" fill="#6527B5"/>
<path d="M73.7844 331.732H32.2168C32.2168 326.697 36.3249 322.582 41.3519 322.582H64.6492C69.6763 322.528 73.7844 326.643 73.7844 331.732Z" fill="#320769"/>
<path d="M82.3233 273.962H25.2422L41.5665 188.687H67.8368L82.3233 273.962Z" fill="url(#paint5_linear_215_6724)"/>
<path d="M144.485 115.487C170.398 115.487 191.404 94.446 191.404 68.4909C191.404 42.5358 170.398 21.495 144.485 21.495C118.573 21.495 97.5664 42.5358 97.5664 68.4909C97.5664 94.446 118.573 115.487 144.485 115.487Z" fill="#220C88"/>
<path d="M144.488 104.279C164.221 104.279 180.217 88.2557 180.217 68.4904C180.217 48.725 164.221 32.702 144.488 32.702C124.755 32.702 108.758 48.725 108.758 68.4904C108.758 88.2557 124.755 104.279 144.488 104.279Z" fill="#4B77BB"/>
<path d="M144.486 41.2567H143.459V68.4905H144.486V41.2567Z" fill="#96BCE4"/>
<path d="M143.85 67.6692L143.455 68.6189L168.556 79.0848L168.951 78.1351L143.85 67.6692Z" fill="#96BCE4"/>
<path d="M303.838 176.993C299.622 176.235 294.271 177.805 288.541 178.401C282.433 178.996 276.541 174.502 276.217 174.286C276.163 175.098 276.109 175.91 276.001 176.722C275.946 177.155 275.892 177.534 275.838 177.967C275.784 178.401 275.676 178.78 275.622 179.213C275.568 179.646 275.46 180.025 275.352 180.458C274.973 182.082 274.541 183.652 274.163 185.006C273.946 185.818 273.676 186.576 273.46 187.172C273.406 187.28 273.406 187.388 273.352 187.497C273.082 188.363 272.865 188.904 272.865 188.904H271.784L270.595 185.493C270.541 185.439 270.163 185.223 269.676 185.06C269.622 185.06 269.568 185.006 269.514 185.006C268.974 184.844 268.379 184.789 268.001 185.168C267.946 185.168 267.946 185.223 267.892 185.277C267.46 185.764 267.298 186.847 267.838 188.958C267.892 189.283 268.001 189.608 268.109 189.933C268.973 192.965 271.406 193.236 271.406 193.236C272.595 199.787 275.46 206.501 282.055 208.721C283.46 209.208 285.082 209.479 286.865 209.479C288.811 209.479 290.541 209.1 292.109 208.504C301.136 204.768 303.352 191.341 303.838 183.219C303.946 180.025 303.838 177.643 303.838 176.993Z" fill="#F8B3AE"/>
<path d="M294.001 214.677C294.001 214.731 294.001 214.731 294.001 214.677C293.838 214.893 292.541 216.517 287.784 216.68C287.622 216.68 287.46 216.68 287.298 216.68C286.811 216.68 286.379 216.68 285.946 216.626C285.73 216.626 285.568 216.572 285.352 216.572C285.298 216.572 285.298 216.572 285.244 216.572C281.514 216.084 280.541 214.352 280.541 214.352L280.649 213.864L281.028 212.511L282.217 208.613C283.622 209.1 285.244 209.371 287.028 209.371C288.973 209.371 290.703 208.992 292.271 208.396L293.19 211.699L293.73 213.594L294.001 214.677Z" fill="#F8B3AE"/>
<path d="M275.62 454.962C268.593 455.774 266.269 449.71 265.728 444.133C265.242 439.044 268.539 428.378 268.539 428.378L266.701 421.502L264.377 412.947L280.269 410.402V426.916C280.269 426.916 283.404 434.929 284.593 440.343C285.782 445.758 282.972 454.096 275.62 454.962Z" fill="#F8B3AE"/>
<path d="M337.622 248.298C337.622 248.298 332.271 252.792 329.406 257.882C326.811 262.484 326.108 265.895 326.108 265.895L321.189 259.127L337.622 248.298Z" fill="#F49B9F"/>
<path d="M367.946 289.829C367.946 289.829 369.729 291.833 369.513 294.865C369.297 297.897 366.378 302.228 364.81 302.445C363.243 302.661 353.243 302.499 353.892 298.384C354.54 294.269 356.702 293.294 358.594 292.212C360.486 291.129 367.946 289.829 367.946 289.829Z" fill="#F8B3AE"/>
<path d="M262.053 259.452V259.561C260.864 262.43 260.107 265.137 259.621 267.628C258.594 265.679 256.54 262.376 253.999 259.94C249.026 255.175 244.216 251.818 243.945 251.656L262.053 259.452Z" fill="#F49B9F"/>
<path opacity="0.68" d="M320.647 317.873C320.647 317.873 344.431 316.952 345.08 314.732C345.674 312.567 322.377 306.936 322.377 306.936L318.053 317.331L320.647 317.873Z" fill="url(#paint6_linear_215_6724)"/>
<path d="M280.269 410.402V411.864L266.701 421.502L264.377 412.947L280.269 410.402Z" fill="#F49B9F"/>
<path d="M226.107 341.749L232.54 325.398L235.026 340.558L226.107 341.749Z" fill="#F49B9F"/>
<path d="M287.243 299.951C289.781 299.951 291.838 297.89 291.838 295.349C291.838 292.807 289.781 290.746 287.243 290.746C284.706 290.746 282.648 292.807 282.648 295.349C282.648 297.89 284.706 299.951 287.243 299.951Z" fill="#FCF0E6"/>
<path d="M522.053 397.841H472.27V404.5H522.053V397.841Z" fill="#6527B5"/>
<path d="M504.378 398.165C504.378 398.165 518.486 389.286 519.783 377.266C521.135 365.301 510.324 370.553 511.567 360.32C512.865 350.141 521.027 348.571 520.108 337.526C519.189 326.48 508.973 335.955 508.648 325.073C508.324 314.19 514.108 313.053 510.702 306.014C507.297 299.03 498.594 306.285 498.054 298.38C497.513 290.475 503.351 288.635 498.973 281.704C495.459 276.128 488.919 283.166 486.054 277.319C483.189 271.471 484.594 267.519 478 265.407C469.675 262.7 462.54 273.8 467.405 280.08C469.729 283.112 471.892 285.765 470.054 288.581C466.378 294.211 458.919 298.868 461.351 306.772C463.729 314.731 466.702 310.183 468.702 314.948C470.702 319.767 460.108 324.423 462.973 331.841C465.837 339.258 472.702 336.226 473.405 342.832C474.108 349.437 470.27 350.357 470.378 355.988C470.486 361.673 478.919 362.594 479.027 369.524C479.135 376.454 468.756 379.594 472.27 387.499C475.838 395.404 484.648 397.949 484.648 397.949H504.378V398.165Z" fill="#9990C5"/>
<path d="M496.054 398.166C496 388.204 495.622 378.241 495.027 368.279C494.432 358.317 493.513 348.409 492.324 338.5C491.081 328.592 489.513 318.738 487.351 308.993C486.27 304.12 485.027 299.301 483.513 294.537C482 289.772 480.324 285.062 478.162 280.568C480.324 285.062 482.054 289.772 483.568 294.482C485.081 299.247 486.378 304.066 487.459 308.939C489.676 318.684 491.297 328.538 492.54 338.446C493.784 348.354 494.703 358.263 495.405 368.225C496.054 378.187 496.486 388.149 496.595 398.166H496.054Z" fill="#ADA9D4"/>
<path d="M493.403 397.841C493.403 397.841 483.782 389.828 486.593 379.053C489.403 368.279 497.349 372.989 499.62 363.839C501.89 354.689 495.079 353.227 499.62 343.319C504.16 333.411 510.106 341.911 514.052 332.112C517.998 322.312 513.187 321.283 518.593 315.003C523.998 308.722 529.349 315.219 532.485 308.126C535.62 301.034 531.025 299.355 537.241 293.129C542.268 288.094 545.782 294.482 550.322 289.176C554.863 283.87 549.403 281.813 556.052 279.593C561.349 277.806 572.593 285.982 566.052 291.667C562.971 294.374 560.106 296.811 560.809 299.301C562.214 304.391 567.349 308.56 562.485 315.652C557.674 322.799 556.539 318.684 553.133 323.016C549.728 327.347 557.674 331.516 552.593 338.23C547.512 344.943 542.376 342.182 539.566 348.084C536.755 353.985 539.836 354.852 537.89 359.941C535.89 365.03 527.998 365.897 525.566 372.123C523.133 378.35 531.403 381.219 525.566 388.312C519.728 395.405 510.971 397.733 510.971 397.733H493.403V397.841Z" fill="#ADA9D4"/>
<path d="M500.648 397.841C500.648 397.841 527.459 326.047 556.432 291.992L500.648 397.841Z" fill="#ADA9D4"/>
<path d="M500.648 397.841C500.648 397.841 527.459 326.047 556.432 291.992" stroke="#9B92C7" stroke-width="0.570725" stroke-miterlimit="10"/>
<path d="M505.244 440.614H487.892C480.325 440.614 474.217 434.496 474.217 426.916V404.446H518.974V426.862C518.974 434.441 512.811 440.614 505.244 440.614Z" fill="#4B168F"/>
<path d="M561.298 243.588H410.865V58.799C410.865 26.3134 437.136 0 469.514 0H502.595C535.027 0 561.298 26.3134 561.298 58.799V243.588Z" fill="#8667E0"/>
<path d="M550.431 233.193H421.729V62.3725C421.729 33.6769 444.972 10.3955 473.62 10.3955H498.485C527.134 10.3955 550.377 33.6769 550.377 62.3725V233.193H550.431Z" fill="#F2E5FF"/>
<path d="M491.297 2.49023H480.811V242.397H491.297V2.49023Z" fill="#8667E0"/>
<path d="M207.296 359.617C208.593 349.384 208.756 345.756 209.458 335.577C210.269 324.316 216.593 287.769 189.729 278.782" stroke="#96BCE4" stroke-width="2.93393" stroke-miterlimit="10" stroke-linecap="round"/>
<path d="M316.648 251.06C316.648 251.06 316.918 267.086 291.459 268.44C271.135 269.523 264.972 253.496 264.972 253.496C264.972 253.496 262.918 257.936 262.108 269.631C261.729 274.72 263.243 290.638 263.243 290.638H321.189C321.189 290.638 320.108 276.02 320.108 271.093C320.054 263.188 316.648 251.06 316.648 251.06Z" fill="#9990C5"/>
<path d="M317.567 319.767H255.296C253.729 319.767 252.432 318.576 252.269 317.06L247.837 274.287C247.675 272.5 249.08 270.93 250.864 270.93H323.026C324.864 270.93 326.269 272.554 326.053 274.341L320.594 317.114C320.377 318.63 319.08 319.767 317.567 319.767Z" fill="#3C2A7C"/>
</g>
<defs>
<linearGradient id="paint0_linear_215_6724" x1="39488.3" y1="42690.7" x2="39488.3" y2="29912.6" gradientUnits="userSpaceOnUse">
<stop stop-color="#02164A"/>
<stop offset="1" stop-color="#220B88"/>
</linearGradient>
<linearGradient id="paint1_linear_215_6724" x1="39697" y1="42690.7" x2="39697" y2="29912.6" gradientUnits="userSpaceOnUse">
<stop stop-color="#02164A"/>
<stop offset="1" stop-color="#220B88"/>
</linearGradient>
<linearGradient id="paint2_linear_215_6724" x1="70768.5" y1="38905.9" x2="73614.1" y2="55798.5" gradientUnits="userSpaceOnUse">
<stop stop-color="#ADA9D4"/>
<stop offset="0.4" stop-color="#A9A5D1"/>
<stop offset="0.83" stop-color="#9F97C9"/>
<stop offset="1" stop-color="#9990C5"/>
</linearGradient>
<linearGradient id="paint3_linear_215_6724" x1="163.053" y1="329.436" x2="171.972" y2="293.676" gradientUnits="userSpaceOnUse">
<stop stop-color="#7468AE"/>
<stop offset="0.22" stop-color="#7165AA"/>
<stop offset="0.46" stop-color="#685E9C"/>
<stop offset="0.71" stop-color="#5A5287"/>
<stop offset="0.97" stop-color="#464068"/>
<stop offset="1" stop-color="#433E64"/>
</linearGradient>
<linearGradient id="paint4_linear_215_6724" x1="36794.3" y1="87707.1" x2="48042.3" y2="83327.2" gradientUnits="userSpaceOnUse">
<stop stop-color="#7468AE"/>
<stop offset="0.22" stop-color="#7165AA"/>
<stop offset="0.46" stop-color="#685E9C"/>
<stop offset="0.71" stop-color="#5A5287"/>
<stop offset="0.97" stop-color="#464068"/>
<stop offset="1" stop-color="#433E64"/>
</linearGradient>
<linearGradient id="paint5_linear_215_6724" x1="6747.62" y1="78999.2" x2="8189.01" y2="79654.7" gradientUnits="userSpaceOnUse">
<stop stop-color="#ADA9D4"/>
<stop offset="0.4" stop-color="#A9A5D1"/>
<stop offset="0.83" stop-color="#9F97C9"/>
<stop offset="1" stop-color="#9990C5"/>
</linearGradient>
<linearGradient id="paint6_linear_215_6724" x1="331.579" y1="317.887" x2="331.579" y2="306.978" gradientUnits="userSpaceOnUse">
<stop stop-color="#231F20"/>
<stop offset="0.4236" stop-color="#281F22"/>
<stop offset="0.892" stop-color="#351F28"/>
<stop offset="1" stop-color="#391F2A"/>
</linearGradient>
<clipPath id="clip0_215_6724">
<rect width="568" height="462" fill="white"/>
</clipPath>
</defs>
</svg>
