<svg width="754" height="384" viewBox="0 0 754 384" fill="none" xmlns="http://www.w3.org/2000/svg">
<g clip-path="url(#clip0_210_11868)">
<path d="M540.191 373.028H210.353C203.895 373.028 198.713 367.767 198.713 361.38V11.6468C198.713 5.18415 203.97 -0.000976562 210.353 -0.000976562H540.191C546.649 -0.000976562 551.831 5.2593 551.831 11.6468V361.305C551.906 367.767 546.649 373.028 540.191 373.028Z" fill="#3C2A7C"/>
<path d="M531.104 358.825H221.769C218.464 358.825 215.836 356.195 215.836 352.888V46.7403C215.836 43.4338 218.464 40.8037 221.769 40.8037H531.104C534.408 40.8037 537.037 43.4338 537.037 46.7403V352.888C537.037 356.195 534.408 358.825 531.104 358.825Z" fill="white"/>
<path opacity="0.4" d="M531.104 358.825H221.769C218.464 358.825 215.836 356.195 215.836 352.888V46.7403C215.836 43.4338 218.464 40.8037 221.769 40.8037H531.104C534.408 40.8037 537.037 43.4338 537.037 46.7403V352.888C537.037 356.195 534.408 358.825 531.104 358.825Z" fill="#F2E5FF"/>
<path d="M235.586 169.831L266.076 144.131L302.8 141.05L342.002 102.35L378.726 119.483L417.928 151.12L456.078 104.829L492.802 125.645L523.743 118.431L523.818 169.756L235.586 169.831Z" fill="#9B92C7"/>
<path d="M223.271 27.428C226.921 27.428 229.88 24.4673 229.88 20.8151C229.88 17.1629 226.921 14.2021 223.271 14.2021C219.621 14.2021 216.662 17.1629 216.662 20.8151C216.662 24.4673 219.621 27.428 223.271 27.428Z" fill="#8667E0"/>
<path d="M251.958 27.9534C255.608 27.9534 258.567 24.9927 258.567 21.3405C258.567 17.6882 255.608 14.7275 251.958 14.7275C248.308 14.7275 245.35 17.6882 245.35 21.3405C245.35 24.9927 248.308 27.9534 251.958 27.9534Z" fill="#8667E0"/>
<path d="M278.695 28.0295C282.345 28.0295 285.303 25.0688 285.303 21.4166C285.303 17.7644 282.345 14.8037 278.695 14.8037C275.045 14.8037 272.086 17.7644 272.086 21.4166C272.086 25.0688 275.045 28.0295 278.695 28.0295Z" fill="#8667E0"/>
<path d="M355.222 197.26L353.494 194.254L350.791 194.63L348.538 191.774L349.664 188.918L346.66 186.889L344.407 189.144L341.403 188.618L340.202 185.086L336.597 185.462L336.372 188.543L333.668 189.895L330.814 187.866L327.885 189.97L329.387 193.202L327.66 195.832L324.506 195.682L323.68 199.589L326.684 200.716L326.909 203.948L323.83 205.751L325.332 209.133L328.561 208.607L330.664 211.087L329.537 214.168L332.466 216.272L334.794 213.792L337.949 214.619L338.925 217.925L342.455 217.7L342.905 214.769L345.909 213.041L348.387 214.994L351.542 212.665L349.965 209.884L351.542 207.104L354.696 207.329L355.672 203.722L352.969 202.219L352.593 198.913L355.222 197.26ZM342.905 207.931C339.451 209.884 335.095 208.682 333.142 205.3C331.19 201.844 332.391 197.485 335.771 195.531C339.225 193.578 343.581 194.78 345.534 198.161C347.561 201.543 346.36 205.977 342.905 207.931Z" fill="#8667E0"/>
<path d="M340.011 204.362C341.569 203.926 342.478 202.309 342.042 200.75C341.605 199.191 339.989 198.282 338.432 198.718C336.874 199.155 335.965 200.772 336.401 202.331C336.838 203.889 338.454 204.799 340.011 204.362Z" fill="#8667E0"/>
<path d="M663.353 70.2619L661.176 66.5045L657.796 67.0306L655.017 63.4987L656.444 60.0419L652.689 57.5621L649.911 60.4177L646.231 59.7413L644.729 55.3828L640.223 55.8337L639.997 59.6662L636.618 61.3946L633.088 58.9147L629.484 61.5449L631.361 65.6028L629.183 68.8341L625.278 68.6087L624.227 73.418L627.906 74.8458L628.207 78.9038L624.377 81.083L626.179 85.2161L630.159 84.6149L632.788 87.6208L631.436 91.3781L635.041 93.9331L637.895 90.8521L641.8 91.9042L643.001 95.9621L647.357 95.6615L647.958 91.9793L651.713 89.8L654.792 92.2799L658.697 89.3492L656.745 85.8924L658.622 82.4357L662.527 82.7362L663.729 78.3026L660.349 76.4991L659.899 72.4411L663.353 70.2619ZM648.108 83.4126C643.903 85.8173 638.495 84.3895 636.017 80.1061C633.614 75.8979 635.041 70.4873 639.322 68.0075C643.527 65.6028 648.934 67.0306 651.413 71.3139C653.816 75.5222 652.314 80.9327 648.108 83.4126Z" fill="#8667E0"/>
<path d="M644.481 78.9946C646.438 78.4461 647.58 76.4141 647.032 74.4559C646.484 72.4977 644.453 71.3549 642.496 71.9034C640.54 72.4519 639.397 74.4839 639.946 76.4421C640.494 78.4002 642.524 79.543 644.481 78.9946Z" fill="#8667E0"/>
<path d="M158.986 69.5854L155.832 64.0246L150.875 64.776L146.745 59.5909L148.848 54.4809L143.29 50.7987L139.16 55.007L133.678 54.0301L131.5 47.6426L124.891 48.3189L124.515 53.9549L119.559 56.4347L114.302 52.7526L108.97 56.585L111.749 62.5216L108.594 67.2559L102.887 66.9553L101.385 74.0191L106.867 76.1232L107.318 82.0598L101.685 85.2911L104.389 91.4531L110.247 90.5514L114.152 95.0602L112.124 100.621L117.456 104.378L121.662 99.8696L127.444 101.448L129.247 107.459L135.705 107.009L136.531 101.598L142.089 98.4418L146.595 102.049L152.302 97.7655L149.373 92.7306L152.227 87.6958L158.01 88.1467L159.812 81.5338L154.856 78.8285L154.18 72.8167L158.986 69.5854ZM136.531 88.9733C130.298 92.5804 122.338 90.4011 118.733 84.1639C115.128 77.9267 117.306 69.9612 123.539 66.3541C129.772 62.7471 137.733 64.9263 141.338 71.1635C144.943 77.4007 142.765 85.3663 136.531 88.9733Z" fill="#8667E0"/>
<path d="M131.307 82.521C134.182 81.7151 135.86 78.7292 135.055 75.8519C134.25 72.9746 131.266 71.2954 128.39 72.1013C125.515 72.9072 123.837 75.8931 124.642 78.7704C125.447 81.6477 128.431 83.3269 131.307 82.521Z" fill="#8667E0"/>
<path d="M265.928 81.5332V170.056" stroke="#B9D1ED" stroke-width="0.750842" stroke-miterlimit="10" stroke-linecap="round"/>
<path d="M303.326 81.0068V169.905" stroke="#B9D1ED" stroke-width="0.750842" stroke-miterlimit="10" stroke-linecap="round"/>
<path d="M342.152 81.0068V169.905" stroke="#B9D1ED" stroke-width="0.750842" stroke-miterlimit="10" stroke-linecap="round"/>
<path d="M379.553 81.0068V169.905" stroke="#B9D1ED" stroke-width="0.750842" stroke-miterlimit="10" stroke-linecap="round"/>
<path d="M418.68 81.0068V169.905" stroke="#B9D1ED" stroke-width="0.750842" stroke-miterlimit="10" stroke-linecap="round"/>
<path d="M456.08 81.0068V169.905" stroke="#B9D1ED" stroke-width="0.750842" stroke-miterlimit="10" stroke-linecap="round"/>
<path d="M492.879 169.905V81.0068" stroke="#B9D1ED" stroke-width="0.750842" stroke-miterlimit="10" stroke-linecap="round"/>
<path d="M311.663 375.507H118.957C115.277 375.507 112.273 372.501 112.273 368.819V257.452C112.273 253.77 115.277 250.764 118.957 250.764H311.663C315.343 250.764 318.347 253.77 318.347 257.452V368.819C318.422 372.501 315.418 375.507 311.663 375.507Z" fill="#F2E5FF"/>
<path d="M194.058 336.055H130.374C127.37 336.055 124.967 333.651 124.967 330.645V266.92C124.967 263.914 127.37 261.51 130.374 261.51H194.058C197.062 261.51 199.466 263.914 199.466 266.92V330.645C199.466 333.651 197.062 336.055 194.058 336.055Z" fill="white"/>
<path d="M300.173 363.032H131.199C127.143 363.032 123.764 359.726 123.764 355.593C123.764 351.535 127.068 348.153 131.199 348.153H300.248C304.303 348.153 307.683 351.46 307.683 355.593C307.608 359.726 304.303 363.032 300.173 363.032Z" fill="white"/>
<path d="M301.976 275.637H213.884C210.805 275.637 208.252 273.157 208.252 270.001C208.252 266.92 210.73 264.365 213.884 264.365H301.976C305.055 264.365 307.609 266.845 307.609 270.001C307.609 273.157 305.13 275.637 301.976 275.637Z" fill="white"/>
<path d="M239.043 295.476H213.734C210.655 295.476 208.102 292.996 208.102 289.84C208.102 286.759 210.58 284.204 213.734 284.204H239.043C242.122 284.204 244.675 286.684 244.675 289.84C244.675 292.996 242.197 295.476 239.043 295.476Z" fill="white"/>
<path d="M285.379 295.777H260.07C256.991 295.777 254.438 293.297 254.438 290.141C254.438 287.06 256.916 284.505 260.07 284.505H285.379C288.458 284.505 291.011 286.985 291.011 290.141C291.011 293.297 288.458 295.777 285.379 295.777Z" fill="white"/>
<path d="M301.976 334.703H213.884C210.805 334.703 208.252 332.223 208.252 329.067C208.252 325.986 210.73 323.431 213.884 323.431H301.976C305.055 323.431 307.609 325.911 307.609 329.067C307.609 332.148 305.13 334.703 301.976 334.703Z" fill="white"/>
<path d="M41.6803 377.009L41.3799 382.119C41.3799 382.119 23.2058 382.344 19.3757 382.119C15.3954 381.969 0 368.968 0 368.968L2.02769 363.783L20.8777 376.032L41.6803 377.009Z" fill="#7A73A0"/>
<path d="M11.0393 353.414L2.02734 363.784C2.02734 363.784 17.6481 377.01 21.7034 377.01C25.7588 377.01 41.6799 377.01 41.6799 377.01C41.6799 377.01 41.3795 373.027 33.5692 372.727C29.2134 372.576 21.9287 363.333 21.9287 363.333L11.0393 353.414Z" fill="#9B92C7"/>
<path d="M33.3441 252.867C33.3441 252.867 31.0912 284.955 32.1425 305.169L10.6641 353.038L22.6049 363.934C22.6049 363.934 55.3483 323.054 57.7515 312.158C60.1547 301.262 67.9651 244.075 67.9651 244.075C67.9651 244.075 40.7039 237.086 33.3441 252.867Z" fill="url(#paint0_linear_210_11868)"/>
<path d="M95.1507 361.154L80.5063 359.801L85.0874 300.736C72.6208 297.354 61.0555 287.66 52.0436 277.816C50.5416 276.163 49.1147 274.51 47.7629 272.931C39.1264 262.636 33.7192 253.468 33.3438 252.792C37.6244 237.838 77.5023 248.283 77.5023 248.283C77.5023 248.283 79.2296 250.237 81.783 253.468C81.8581 253.544 81.9332 253.694 82.0083 253.769C89.5933 263.162 104.088 282.175 105.514 292.47C108.218 311.782 95.1507 361.154 95.1507 361.154Z" fill="url(#paint1_linear_210_11868)"/>
<path d="M89.4437 167.2C89.4437 167.2 93.0485 166.298 94.6256 164.42C96.2778 162.541 102.136 147.436 110.997 149.465C119.859 151.494 123.689 158.483 123.839 161.263C123.99 164.044 118.207 183.432 110.397 184.183C102.586 184.86 98.7561 176.518 98.7561 176.518L94.2501 179.599C94.3252 179.524 88.7678 174.64 89.4437 167.2Z" fill="#F6D1C5"/>
<path d="M112.798 258.503C112.798 258.503 115.651 260.757 119.782 259.48C123.912 258.277 125.715 259.029 125.339 260.908C124.964 262.786 120.157 262.861 120.007 264.439C119.857 266.018 128.343 264.214 129.094 270.451C129.845 276.688 117.003 276.087 115.051 274.209C113.173 272.405 109.643 266.544 107.841 264.89C106.039 263.237 111.07 256.925 111.07 256.925L112.798 258.503Z" fill="#F6D1C5"/>
<path opacity="0.43" d="M81.783 253.468C79.0794 254.37 74.4232 255.497 69.3916 257.677C60.6049 261.509 51.1424 269.324 47.7629 272.931C39.1264 262.636 33.7192 253.468 33.3438 252.792C37.6244 237.838 77.5023 248.283 77.5023 248.283C77.5023 248.283 79.2296 250.312 81.783 253.468Z" fill="#1B144E"/>
<path d="M93.6493 176.443L89.5188 194.027L79.0048 238.965L77.8783 245.653L77.4277 248.283C77.4277 248.283 40.9293 262.186 31.4668 250.688C31.4668 250.688 38.4511 219.427 53.0955 193.727C67.7399 168.027 82.3092 167.35 89.8943 166.975L93.6493 176.443Z" fill="url(#paint2_linear_210_11868)"/>
<path d="M81.1829 359.801L79.0801 373.928H119.409C119.409 373.928 119.033 370.998 111.148 370.021C105.215 369.269 94.4755 361.003 94.4755 361.003L81.1829 359.801Z" fill="#9B92C7"/>
<path d="M79.0801 374.004L79.6809 379.565H119.108L119.484 374.004H79.0801Z" fill="#7A73A0"/>
<path d="M116.704 162.315C116.704 162.315 120.534 163.292 123.989 165.697C127.443 168.102 130.673 158.408 130.673 158.408C130.673 158.408 125.416 156.604 123.013 152.321C120.609 148.037 115.352 142.326 111.372 145.407C111.372 145.407 103.036 140.899 99.4313 146.91C95.8265 152.922 95.3008 162.917 95.3008 162.917C95.3008 162.917 98.9056 165.697 102.285 161.639C105.589 157.506 106.19 157.431 107.467 157.807C108.744 158.182 110.546 161.489 107.767 165.772C104.989 170.055 98.6052 170.882 98.5301 172.235C98.455 173.663 97.8542 174.339 98.9056 176.368C99.957 178.397 102.886 184.183 106.716 184.784C110.546 185.385 115.653 183.582 116.329 181.478C117.005 179.374 111.297 179.599 109.495 179.073C107.692 178.547 106.716 174.113 107.617 170.882C108.368 167.726 116.704 162.315 116.704 162.315Z" fill="#231F20"/>
<path d="M53.6221 245.428C41.0805 245.428 34.2464 242.272 33.7207 242.047L34.3215 239.943C34.4717 240.018 52.1201 247.683 78.9307 239.041L78.6303 241.22C68.8673 244.376 60.5313 245.428 53.6221 245.428Z" fill="#4772B2"/>
<path d="M55.6483 235.958C43.7825 235.958 36.7983 233.629 36.3477 233.479L37.0236 231.525C37.1738 231.6 54.5218 237.386 80.8817 230.623L81.4074 232.577C71.3441 235.132 62.6325 235.958 55.6483 235.958Z" fill="#4772B2"/>
<path opacity="0.8" d="M89.5199 194.027L79.006 238.965L77.8795 245.653C75.0257 244.676 68.7173 240.994 66.239 227.918C63.0098 210.86 73.4486 187.264 73.4486 187.264L89.5199 194.027Z" fill="url(#paint3_linear_210_11868)"/>
<path d="M117.456 256.85C117.456 256.85 117.005 265.492 107.167 268.573C107.167 268.573 74.4238 236.861 71.7202 227.468C69.0166 218.075 70.5186 193.051 75.4752 180.952C80.2816 169.304 98.8312 171.935 97.8549 187.866C96.8786 203.797 93.8746 223.635 93.8746 223.635L117.456 256.85Z" fill="url(#paint4_linear_210_11868)"/>
<path d="M523.743 73.793H235.586V169.831H523.743V73.793Z" stroke="#B9D1ED" stroke-width="0.750842" stroke-miterlimit="10" stroke-linecap="round"/>
<path d="M727.718 152.621H593.064V230.323H727.718V152.621Z" fill="#F2E5FF"/>
<path d="M727.642 152.471H592.988V165.246H727.642V152.471Z" fill="#8667E0"/>
<path d="M601.475 161.789C602.968 161.789 604.179 160.578 604.179 159.084C604.179 157.59 602.968 156.379 601.475 156.379C599.982 156.379 598.771 157.59 598.771 159.084C598.771 160.578 599.982 161.789 601.475 161.789Z" fill="white"/>
<path d="M611.612 161.789C613.105 161.789 614.315 160.578 614.315 159.084C614.315 157.59 613.105 156.379 611.612 156.379C610.119 156.379 608.908 157.59 608.908 159.084C608.908 160.578 610.119 161.789 611.612 161.789Z" fill="white"/>
<path d="M621.752 161.789C623.246 161.789 624.456 160.578 624.456 159.084C624.456 157.59 623.246 156.379 621.752 156.379C620.259 156.379 619.049 157.59 619.049 159.084C619.049 160.578 620.259 161.789 621.752 161.789Z" fill="white"/>
<path d="M715.25 220.779H680.404C677.4 220.779 674.922 218.374 674.922 215.293V178.321C674.922 175.315 677.325 172.835 680.404 172.835H715.25C718.254 172.835 720.733 175.24 720.733 178.321V215.293C720.733 218.374 718.254 220.779 715.25 220.779Z" fill="white"/>
<path d="M659.902 183.581H607.332C604.328 183.581 601.85 181.176 601.85 178.095C601.85 175.089 604.253 172.609 607.332 172.609H659.902C662.906 172.609 665.384 175.014 665.384 178.095C665.384 181.176 662.906 183.581 659.902 183.581Z" fill="white"/>
<path d="M659.902 202.518H607.332C604.328 202.518 601.85 200.114 601.85 197.033C601.85 194.027 604.253 191.547 607.332 191.547H659.902C662.906 191.547 665.384 193.952 665.384 197.033C665.384 200.114 662.906 202.518 659.902 202.518Z" fill="white"/>
<path d="M659.902 220.328H607.332C604.328 220.328 601.85 217.923 601.85 214.842C601.85 211.836 604.253 209.356 607.332 209.356H659.902C662.906 209.356 665.384 211.761 665.384 214.842C665.384 217.923 662.906 220.328 659.902 220.328Z" fill="white"/>
<path d="M753.852 364.311L754.002 367.918L732.824 375.658H715.026L714.5 371.9" fill="#8667E0"/>
<path d="M697.979 237.388C697.979 237.388 701.959 272.331 708.793 293.974C715.627 315.616 733.801 355.293 733.801 355.293L748.445 351.386L729.22 286.234C729.22 286.234 736.279 247.383 736.73 236.862C737.181 226.342 698.88 229.197 697.979 237.388Z" fill="#3D2276"/>
<path d="M734.024 238.59C734.024 238.59 730.119 244.827 725.088 253.093C716.526 267.146 704.51 286.909 702.483 291.418C699.253 298.482 688.739 355.443 688.739 355.443L674.996 354.241C674.996 354.241 680.103 289.014 681.455 281.95C682.506 276.239 693.546 247.683 697.676 237.012C698.652 234.532 699.253 232.954 699.253 232.954L734.024 238.59Z" fill="#381F6F"/>
<path d="M725.164 167.276L725.314 161.414C725.314 161.414 712.397 162.241 716.452 138.044C716.452 138.044 716.452 129.853 729.97 133.009C743.488 136.165 739.207 145.333 738.306 150.819C737.48 156.304 735.152 162.015 735.978 167.201C735.978 167.201 728.243 170.732 725.164 167.276Z" fill="#F6D1C5"/>
<path d="M728.468 148.189C728.468 148.189 729.219 143.529 726.816 141.801C724.413 140.073 719.005 139.998 716.227 137.443C713.448 134.888 712.472 128.65 715.926 126.02C719.456 123.39 725.314 127.824 725.314 127.824C725.314 127.824 736.278 122.263 740.859 131.28C740.859 131.28 749.045 133.309 745.44 141.576C741.836 149.842 739.808 151.796 738.907 157.131C738.006 162.466 736.053 160.362 736.053 160.362C736.053 160.362 734.175 153.524 734.175 151.495C734.175 149.466 739.282 145.709 736.353 143.304C733.424 140.899 729.369 149.241 728.468 148.189Z" fill="#231F20"/>
<path opacity="0.8" d="M734.024 238.59C734.024 238.59 730.119 244.827 725.087 253.093C705.111 251.59 697.901 237.388 697.901 237.388L697.676 236.937C698.652 234.457 699.253 232.879 699.253 232.879L734.024 238.59Z" fill="#320769"/>
<path d="M705.111 196.734C707.439 190.496 715.55 174.64 720.506 169.756C725.463 164.871 736.052 165.848 736.052 165.848C736.052 165.848 741.384 171.259 742.06 186.439C742.736 201.618 737.779 211.087 738.004 219.804C738.154 228.521 738.155 236.862 738.155 236.862C738.155 236.862 714.799 248.66 696.174 236.486C696.249 236.486 699.704 211.162 705.111 196.734Z" fill="url(#paint5_linear_210_11868)"/>
<path d="M688.816 355.444L689.642 370.774H647.887C647.887 370.774 652.017 364.687 660.503 363.109C668.915 361.531 675.148 354.316 675.148 354.316L689.342 355.594" fill="#3C2A7C"/>
<path d="M689.641 370.773L689.115 374.982H648.111L647.811 370.773H689.641Z" fill="#8667E0"/>
<path d="M748.369 351.46L753.851 364.31C753.851 364.31 732.899 371.75 731.246 371.9C729.594 372.05 714.574 371.9 714.574 371.9C714.574 371.9 717.578 367.166 725.313 364.836C733.049 362.507 733.8 355.292 733.8 355.292" fill="#3C2A7C"/>
<path opacity="0.73" d="M735.525 189.896C735.525 189.896 731.62 201.318 725.312 208.832C719.003 216.347 700.078 219.353 700.078 219.353L735.525 189.896Z" fill="#4772B2"/>
<path d="M725.312 161.415L730.569 160.813L725.162 165.623L725.312 161.415Z" fill="#F79F8B"/>
<path d="M712.772 191.247L696.175 207.779L672.894 224.838C672.894 224.838 661.028 224.011 661.028 225.815C661.028 227.618 665.609 228.069 665.609 228.069C665.609 228.069 662.68 230.774 660.578 230.925C658.7 231.075 653.293 231 653.293 231C653.293 231 656.748 234.757 662.605 234.607C672.518 234.306 677.175 230.399 677.175 230.399C677.175 230.399 698.202 221.306 703.084 217.849C707.965 214.392 723.962 200.866 723.962 200.866L712.772 191.247Z" fill="#F6D1C5"/>
<path d="M710.143 190.496C710.143 190.496 712.396 194.479 716.376 199.514C720.356 204.549 722.91 206.277 722.91 206.277C722.91 206.277 744.538 186.213 735.301 176.519C726.064 166.825 710.143 190.496 710.143 190.496Z" fill="url(#paint6_linear_210_11868)"/>
<path d="M743.261 361.981C744.464 361.981 745.439 361.005 745.439 359.801C745.439 358.598 744.464 357.622 743.261 357.622C742.059 357.622 741.084 358.598 741.084 359.801C741.084 361.005 742.059 361.981 743.261 361.981Z" fill="#6E82C0"/>
<path d="M680.779 365.212C681.982 365.212 682.956 364.236 682.956 363.033C682.956 361.829 681.982 360.854 680.779 360.854C679.576 360.854 678.602 361.829 678.602 363.033C678.602 364.236 679.576 365.212 680.779 365.212Z" fill="#6E82C0"/>
<path d="M503.92 277.217H372.271C370.694 277.217 369.342 275.939 369.342 274.286V231.377C369.342 229.799 370.619 228.446 372.271 228.446H503.92C505.497 228.446 506.849 229.724 506.849 231.377V274.286C506.849 275.864 505.572 277.217 503.92 277.217Z" fill="#F2E5FF"/>
<path d="M496.26 271.28H466.37C464.793 271.28 463.441 270.002 463.441 268.349V238.666C463.441 237.088 464.718 235.735 466.37 235.735H496.26C497.837 235.735 499.189 237.013 499.189 238.666V268.349C499.189 269.927 497.837 271.28 496.26 271.28Z" fill="white"/>
<path d="M452.102 242.273H381.583C380.006 242.273 378.654 240.996 378.654 239.342V238.666C378.654 237.088 379.931 235.735 381.583 235.735H452.102C453.679 235.735 455.031 237.013 455.031 238.666V239.342C454.956 240.92 453.679 242.273 452.102 242.273Z" fill="white"/>
<path d="M452.102 256.251H381.583C380.006 256.251 378.654 254.973 378.654 253.32V252.644C378.654 251.066 379.931 249.713 381.583 249.713H452.102C453.679 249.713 455.031 250.99 455.031 252.644V253.32C454.956 254.898 453.679 256.251 452.102 256.251Z" fill="white"/>
<path d="M452.102 270.979H381.583C380.006 270.979 378.654 269.702 378.654 268.048V267.372C378.654 265.794 379.931 264.441 381.583 264.441H452.102C453.679 264.441 455.031 265.719 455.031 267.372V268.048C454.956 269.702 453.679 270.979 452.102 270.979Z" fill="white"/>
<path d="M283.953 365.663L282.15 379.941C282.15 379.941 277.87 380.166 272.387 381.068C267.656 381.895 253.387 382.646 248.956 382.195C248.881 382.195 248.881 382.195 248.806 382.195C248.28 382.12 247.905 382.045 247.755 381.97C247.755 381.97 247.755 381.97 247.68 381.895C249.782 379.866 273.138 365.062 275.767 363.108C275.842 363.033 276.067 363.183 276.218 363.183C279.071 363.784 283.953 365.663 283.953 365.663Z" fill="#1B144E"/>
<path d="M366.938 381.52L366.562 383.999H337.799L337.424 381.52" fill="#8667E0"/>
<path d="M350.94 366.64C350.94 366.64 350.339 371.75 352.968 374.456C355.671 377.161 366.936 378.589 367.237 381.369H337.723V366.265" fill="#1B144E"/>
<path d="M350.941 366.641L337.724 366.265L334.795 334.327C333.894 334.778 310.012 346.576 301.751 347.553C297.17 348.079 295.067 340.565 295.743 333.125C296.269 326.888 298.747 320.651 303.103 319.298C303.103 319.298 341.779 307.049 348.838 315.315C355.898 323.657 350.941 366.641 350.941 366.641Z" fill="url(#paint7_linear_210_11868)"/>
<path d="M308.51 231.901C308.51 231.901 311.965 249.411 308.51 251.064C305.056 252.717 300.4 252.867 300.4 252.867L300.024 263.463L294.542 265.492L287.482 261.509L287.708 259.48C287.708 259.48 290.336 255.122 290.336 251.44C290.336 247.757 284.854 234.306 290.111 230.624C295.368 226.942 307.083 227.468 308.51 231.901Z" fill="#F6D1C5"/>
<path d="M312.566 228.07C313.167 221.682 303.854 222.058 301.677 224.763C301.677 224.763 289.586 217.624 284.704 228.446C284.704 228.446 275.842 227.694 278.02 234.833C280.198 241.972 290.111 252.718 290.111 252.718C290.111 252.718 293.341 244.301 293.341 242.122C293.341 239.943 289.886 235.584 292.514 233.931C295.143 232.278 298.147 237.613 298.147 237.613C298.147 237.613 311.965 234.457 312.566 228.07Z" fill="#231F20"/>
<path d="M318.348 282.176L331.04 292.621C331.04 292.621 356.724 278.644 359.653 277.367C359.653 277.367 365.586 268.349 368.965 267.522V273.158C368.965 273.158 372.795 274.586 374.898 274.586C377.001 274.586 379.704 272.858 380.38 275.037C381.056 277.141 380.831 282.402 374.147 283.754C367.538 285.182 363.258 284.731 363.258 284.731C363.258 284.731 339.676 305.998 331.491 307.275C323.305 308.553 307.984 296.755 307.984 296.755L318.348 282.176Z" fill="#F6D1C5"/>
<path opacity="0.43" d="M334.721 334.252C333.819 334.703 309.938 346.501 301.677 347.478C297.096 348.004 294.993 340.489 295.669 333.05C306.633 338.611 333.744 334.402 334.721 334.252Z" fill="#1B144E"/>
<path d="M336.973 382.045C329.688 382.421 281.173 381.068 281.173 381.068L282.675 364.536L282.751 363.484C282.751 363.484 262.624 362.281 258.719 346.952C256.391 337.784 272.312 337.483 285.604 338.76C294.691 339.587 302.502 341.24 302.502 341.24C302.502 341.24 343.281 363.108 344.858 369.42C346.435 375.733 344.257 381.594 336.973 382.045Z" fill="url(#paint8_linear_210_11868)"/>
<path opacity="0.43" d="M282.751 363.484C282.751 363.484 262.624 362.281 258.719 346.952C256.391 337.784 272.312 337.483 285.604 338.76C285.154 344.246 284.328 350.483 286.28 355.293C288.834 361.68 314.743 367.993 314.743 367.993L282.751 363.484Z" fill="#1B144E"/>
<path d="M322.028 283.603C317.372 288.713 314.218 292.095 311.139 300.887L306.858 298.558C306.858 298.558 305.582 304.344 304.455 311.859C302.953 321.778 301.827 334.703 304.23 340.94C304.23 340.94 291.238 342.594 285.605 345.224C280.498 347.628 269.534 356.12 256.166 344.397C256.166 344.397 268.708 315.09 271.336 299.985C273.965 284.806 278.471 259.481 287.933 257.678L300.024 263.239C300.024 263.239 317.297 278.493 322.028 283.603Z" fill="url(#paint9_linear_210_11868)"/>
<path d="M277.869 363.634L249.632 382.271C249.632 382.271 248.43 382.195 248.28 382.12C247.905 382.045 247.004 381.669 247.079 381.594C249.031 380.016 274.866 362.657 275.617 362.808C275.692 362.808 277.869 363.634 277.869 363.634Z" fill="#8667E0"/>
<path opacity="0.73" d="M306.859 298.633C306.859 298.633 305.582 304.419 304.456 311.934C296.495 304.87 289.661 283.303 289.436 282.552C291.313 285.783 306.859 298.633 306.859 298.633Z" fill="#9990C5"/>
<path d="M300.398 252.868L294.916 252.492L300.098 260.232L300.398 252.868Z" fill="#F79F8B"/>
<path d="M503.918 339.437H372.269C370.692 339.437 369.34 338.16 369.34 336.507V293.598C369.34 292.02 370.617 290.667 372.269 290.667H503.918C505.495 290.667 506.847 291.945 506.847 293.598V336.507C506.847 338.16 505.571 339.437 503.918 339.437Z" fill="#F2E5FF"/>
<path d="M496.258 333.5H466.368C464.791 333.5 463.439 332.223 463.439 330.57V300.887C463.439 299.309 464.716 297.956 466.368 297.956H496.258C497.835 297.956 499.187 299.234 499.187 300.887V330.57C499.187 332.223 497.835 333.5 496.258 333.5Z" fill="white"/>
<path d="M452.1 304.494H381.581C380.004 304.494 378.652 303.216 378.652 301.563V300.887C378.652 299.309 379.929 297.956 381.581 297.956H452.1C453.677 297.956 455.029 299.234 455.029 300.887V301.563C454.954 303.216 453.677 304.494 452.1 304.494Z" fill="white"/>
<path d="M452.1 318.471H381.581C380.004 318.471 378.652 317.194 378.652 315.541V314.864C378.652 313.286 379.929 311.934 381.581 311.934H452.1C453.677 311.934 455.029 313.211 455.029 314.864V315.541C454.954 317.194 453.677 318.471 452.1 318.471Z" fill="white"/>
<path d="M452.1 333.275H381.581C380.004 333.275 378.652 331.998 378.652 330.344V329.668C378.652 328.09 379.929 326.737 381.581 326.737H452.1C453.677 326.737 455.029 328.015 455.029 329.668V330.344C454.954 331.922 453.677 333.275 452.1 333.275Z" fill="white"/>
<path d="M496.408 381.217H499.938L521.191 326.06H517.737L496.408 381.217Z" fill="#22146B"/>
<path d="M605.454 316.065H509.477V325.835H605.454V316.065Z" fill="#22146B"/>
<path d="M589.382 381.217H585.853L564.6 326.06H568.054L589.382 381.217Z" fill="#22146B"/>
<path d="M599.669 340.789H571.957C571.131 340.789 570.455 340.113 570.455 339.286C570.455 338.46 571.131 337.783 571.957 337.783H599.669C600.495 337.783 601.171 338.46 601.171 339.286C601.246 340.113 600.57 340.789 599.669 340.789Z" fill="#22146B"/>
<path d="M608.081 362.431H580.369C579.543 362.431 578.867 361.754 578.867 360.928C578.867 360.101 579.543 359.425 580.369 359.425H608.081C608.907 359.425 609.583 360.101 609.583 360.928C609.583 361.754 608.907 362.431 608.081 362.431Z" fill="#22146B"/>
<path d="M543.944 341.014H516.232C515.406 341.014 514.73 340.337 514.73 339.511C514.73 338.684 515.406 338.008 516.232 338.008H543.944C544.77 338.008 545.446 338.684 545.446 339.511C545.521 340.337 544.845 341.014 543.944 341.014Z" fill="#22146B"/>
<path d="M535.61 362.656H507.898C507.072 362.656 506.396 361.98 506.396 361.153C506.396 360.327 507.072 359.65 507.898 359.65H535.61C536.436 359.65 537.112 360.327 537.112 361.153C537.112 361.98 536.436 362.656 535.61 362.656Z" fill="#22146B"/>
<path d="M526.598 381.217H530.052L551.305 326.06H547.851L526.598 381.217Z" fill="#22146B"/>
<path d="M619.497 381.217H616.042L594.789 326.06H598.244L619.497 381.217Z" fill="#22146B"/>
<path d="M481.989 81.009H381.806C380.905 81.009 380.154 80.2575 380.154 79.3558V58.7655C380.154 57.8638 380.905 57.1123 381.806 57.1123H481.989C482.891 57.1123 483.642 57.8638 483.642 58.7655V79.2806C483.642 80.2575 482.891 81.009 481.989 81.009Z" fill="#A28AE7"/>
<path d="M401.407 80.9337H382.332C380.98 80.9337 379.854 79.8065 379.854 78.4538V59.3666C379.854 58.0139 380.98 56.8867 382.332 56.8867H401.407C402.759 56.8867 403.885 58.0139 403.885 59.3666V78.4538C403.885 79.8065 402.759 80.9337 401.407 80.9337Z" fill="#E2E8F5"/>
<path d="M398.252 76.8002L394.947 70.8636C396.299 69.8115 397.2 68.2334 397.2 66.3548C397.2 63.2737 394.722 60.7188 391.568 60.7188C388.489 60.7188 385.936 63.1986 385.936 66.3548C385.936 69.4358 388.414 71.9908 391.568 71.9908C392.469 71.9908 393.295 71.7653 394.046 71.3896L397.351 77.251C397.426 77.4013 397.651 77.4765 397.801 77.4765C397.876 77.4765 397.951 77.4765 398.027 77.4013C398.327 77.3262 398.402 77.0256 398.252 76.8002ZM387.062 66.4299C387.062 63.8749 389.09 61.846 391.643 61.846C394.196 61.846 396.224 63.8749 396.224 66.4299C396.224 68.9849 394.196 71.0139 391.643 71.0139C389.09 71.0139 387.062 68.9097 387.062 66.4299Z" fill="#B9D1ED"/>
<path d="M588.858 298.259L574.514 274.437L586.229 268.351L599.296 292.848C599.296 292.848 599.972 297.958 596.743 299.386C593.364 300.889 588.858 298.259 588.858 298.259Z" fill="#F6D1C5"/>
<path d="M545.676 301.867L545 274.062L558.218 274.589L557.391 302.318C557.391 302.318 555.439 307.127 551.909 306.751C548.304 306.376 545.676 301.867 545.676 301.867Z" fill="#F6D1C5"/>
<path d="M582.398 287.664C582.398 287.664 585.778 286.988 588.331 285.334C590.885 283.681 593.288 281.352 593.288 281.352L601.774 297.734L592.387 304.422L582.398 287.664Z" fill="#422CA8"/>
<path d="M545.375 289.543C545.375 289.543 548.679 290.67 551.683 290.445C554.687 290.294 557.917 289.468 557.917 289.468L557.166 307.879L545.675 309.006L545.375 289.543Z" fill="#422CA8"/>
<path d="M571.734 312.839L571.885 316.295C571.885 316.295 582.849 316.371 585.102 316.295C589.984 316.145 606.956 304.497 606.956 304.497L605.604 300.515" fill="black"/>
<path d="M588.632 298.409C588.632 298.409 592.462 299.462 595.241 297.733C598.019 296.005 599.221 292.849 599.221 292.849C599.221 292.849 603.427 296.005 605.68 300.514C605.68 300.514 590.134 311.034 586.379 312.086C582.549 313.138 572.41 313.289 571.81 312.913C571.134 312.537 578.418 308.93 582.474 306.225C586.529 303.519 588.632 298.409 588.632 298.409Z" fill="#1B144E"/>
<path d="M545.674 301.866C545.674 301.866 548.302 304.722 551.532 304.647C554.761 304.571 557.389 302.392 557.389 302.392C557.389 302.392 559.492 307.202 559.192 312.236C559.192 312.236 520.44 313.589 520.065 312.913C519.689 312.236 529.753 308.103 536.211 305.624C540.792 303.67 545.674 301.866 545.674 301.866Z" fill="#1B144E"/>
<path d="M520.366 312.688L520.141 316.295L558.366 316.22L559.192 312.162" fill="black"/>
<path d="M592.987 263.467C586.904 272.334 577.967 276.167 568.129 278.496C568.129 278.496 553.785 239.345 552.058 232.506C550.331 225.593 552.584 192.453 552.584 192.453L559.267 192.603L574.362 192.904C574.362 192.904 574.137 196.887 573.987 202.372C573.687 211.09 573.536 223.564 574.438 229.576C575.864 239.345 592.987 263.467 592.987 263.467Z" fill="#4772B2"/>
<path d="M545.9 73.045C545.9 73.045 539.216 89.2767 542.746 93.1843C546.2 97.092 549.655 96.7914 549.655 96.7914L550.106 105.058L561.521 102.728C561.521 102.728 567.153 81.1608 562.121 74.6231C557.09 68.0853 545.9 73.045 545.9 73.045Z" fill="#F6D1C5"/>
<path d="M564.15 278.872C564.15 278.872 547.253 284.733 533.51 278.196L533.735 229.275L530.581 196.586L530.355 194.031L564.451 194.858C564.451 194.858 563.474 200.118 562.273 206.43C560.696 214.621 558.818 224.466 558.293 226.87C557.241 231.079 564.15 278.872 564.15 278.872Z" fill="#4B77BB"/>
<path d="M514.733 103.78L488.223 80.785C488.223 80.785 487.772 75.5998 486.571 73.12C485.369 70.7153 483.792 70.1141 483.792 70.1141L483.717 75.9756C483.717 75.9756 478.986 69.8887 476.207 69.8887C473.428 69.8887 470.424 73.3454 471.1 76.6519C471.776 79.9583 481.464 85.5943 481.464 85.5943C481.464 85.5943 503.468 114.826 510.227 120.087C516.986 125.497 514.733 103.78 514.733 103.78Z" fill="#F6D1C5"/>
<path opacity="0.43" d="M564.373 194.858C564.373 194.858 563.396 200.118 562.195 206.43L561.669 207.407C554.535 209.587 533.056 197.939 530.503 196.586L530.277 194.031L564.373 194.858Z" fill="#1B144E"/>
<path d="M578.418 192.077C578.418 192.077 557.24 197.262 547.327 196.886C537.414 196.511 521.793 193.129 521.793 193.129C521.793 193.129 524.196 172.389 526.674 164.047C529.078 155.631 533.959 145.411 533.734 138.122C533.584 131.058 529.528 125.422 529.303 125.046C529.303 125.046 515.109 127.827 509.552 131.058C509.552 131.058 509.251 115.578 514.809 102.953C514.809 102.953 524.196 105.433 533.584 104.832C542.971 104.23 559.493 99.4962 565.876 106.56C572.26 113.624 564.75 136.544 565.876 146.839C567.003 157.059 578.418 192.077 578.418 192.077Z" fill="url(#paint10_linear_210_11868)"/>
<path d="M554.836 76.9522C554.836 76.9522 541.394 78.6806 542.52 70.0387C543.647 61.3969 555.362 66.8826 555.362 66.8826C555.362 66.8826 571.884 62.3738 573.311 80.4841C573.311 80.4841 589.833 107.161 568.279 116.705C560.694 118.884 556.714 110.768 554.987 102.051C554.987 102.051 554.536 93.1839 557.014 88.9006C559.493 84.4669 554.236 86.1953 554.836 76.9522Z" fill="#231F20"/>
<path d="M536.21 305.473C536.21 305.473 535.835 308.254 539.44 307.652C543.044 307.051 547.625 303.444 547.625 303.444" fill="#96BCE4"/>
<path d="M582.398 306.15C582.398 306.15 583.45 308.705 586.304 306.376C589.082 304.046 591.335 298.636 591.335 298.636" fill="#96BCE4"/>
<path opacity="0.46" d="M543.196 167.052C543.196 167.052 542.445 180.955 541.018 183.51C539.591 186.065 526.974 186.065 526.449 182.533C525.848 178.926 528.476 166.677 528.476 166.677" fill="url(#paint11_linear_210_11868)"/>
<path d="M528.853 164.197L543.722 164.949C543.722 164.949 544.849 169.533 535.311 169.232C525.698 168.932 528.853 164.197 528.853 164.197Z" fill="#311D92"/>
<path opacity="0.55" d="M551.082 119.109L533.734 138.046C533.584 130.983 529.528 125.347 529.303 124.971C529.228 124.971 548.904 121.063 551.082 119.109Z" fill="#311D92"/>
<path d="M549.654 96.7909L553.258 96.5654L549.955 101.375L549.654 96.7909Z" fill="#F79F8B"/>
<path d="M547.402 281.276L546.426 281.201C546.426 281.201 548.303 277.744 546.801 272.184C545.149 266.097 544.849 264.594 547.026 257.229C548.228 253.021 547.102 250.767 545.975 248.437C545.149 246.784 544.323 245.131 544.248 242.801C544.173 240.697 544.773 238.368 545.374 236.113C546.05 233.558 546.726 230.853 546.426 228.598C546.125 226.419 545.299 224.616 544.548 222.887C543.722 221.159 542.971 219.506 542.821 217.552C542.596 215.297 543.497 213.268 544.323 211.315C544.924 209.812 545.6 208.309 545.75 206.731C545.975 204.777 544.849 202.297 543.947 200.193C543.196 198.465 542.52 197.563 542.596 196.511L543.647 196.586C543.572 197.413 544.173 198.239 544.849 199.817C545.9 202.072 547.026 204.627 546.801 206.881C546.576 208.609 545.975 210.187 545.299 211.766C544.473 213.719 543.722 215.523 543.872 217.477C544.022 219.205 544.773 220.783 545.524 222.436C546.351 224.24 547.177 226.043 547.477 228.448C547.777 230.928 547.102 233.708 546.351 236.339C545.75 238.593 545.149 240.772 545.224 242.726C545.299 244.83 546.05 246.333 546.876 247.986C548.078 250.466 549.355 252.946 548.003 257.53C545.975 264.669 546.2 266.022 547.777 271.958C549.43 277.97 547.477 281.126 547.402 281.276Z" fill="#96BCE4"/>
</g>
<defs>
<linearGradient id="paint0_linear_210_11868" x1="27.0768" y1="331.63" x2="75.1575" y2="305.641" gradientUnits="userSpaceOnUse">
<stop stop-color="#7468AE"/>
<stop offset="0.22" stop-color="#7165AA"/>
<stop offset="0.45" stop-color="#695E9C"/>
<stop offset="0.7" stop-color="#5B5287"/>
<stop offset="0.84" stop-color="#504876"/>
<stop offset="1" stop-color="#433E64"/>
</linearGradient>
<linearGradient id="paint1_linear_210_11868" x1="37871.2" y1="83386.1" x2="31538.3" y2="84804.8" gradientUnits="userSpaceOnUse">
<stop stop-color="#7468AE"/>
<stop offset="0.22" stop-color="#7165AA"/>
<stop offset="0.46" stop-color="#685E9C"/>
<stop offset="0.71" stop-color="#5A5287"/>
<stop offset="0.97" stop-color="#464068"/>
<stop offset="1" stop-color="#433E64"/>
</linearGradient>
<linearGradient id="paint2_linear_210_11868" x1="23137.8" y1="44400.1" x2="16944.7" y2="56082" gradientUnits="userSpaceOnUse">
<stop stop-color="#6E82C0"/>
<stop offset="1" stop-color="#4B77BB"/>
</linearGradient>
<linearGradient id="paint3_linear_210_11868" x1="84.6707" y1="184.741" x2="48.034" y2="215.807" gradientUnits="userSpaceOnUse">
<stop stop-color="#6E82C0"/>
<stop offset="1" stop-color="#4B77BB"/>
</linearGradient>
<linearGradient id="paint4_linear_210_11868" x1="17312.3" y1="49389.6" x2="16788.9" y2="56895.2" gradientUnits="userSpaceOnUse">
<stop stop-color="#6E82C0"/>
<stop offset="1" stop-color="#4B77BB"/>
</linearGradient>
<linearGradient id="paint5_linear_210_11868" x1="40340.2" y1="42582.5" x2="44715.8" y2="45129.7" gradientUnits="userSpaceOnUse">
<stop stop-color="#6E82C0"/>
<stop offset="1" stop-color="#4B77BB"/>
</linearGradient>
<linearGradient id="paint6_linear_210_11868" x1="24396.5" y1="18030.4" x2="26476.7" y2="19749.1" gradientUnits="userSpaceOnUse">
<stop stop-color="#6E82C0"/>
<stop offset="1" stop-color="#4B77BB"/>
</linearGradient>
<linearGradient id="paint7_linear_210_11868" x1="258.831" y1="347.757" x2="278.539" y2="316.448" gradientUnits="userSpaceOnUse">
<stop stop-color="#7468AE"/>
<stop offset="0.22" stop-color="#7165AA"/>
<stop offset="0.46" stop-color="#685E9C"/>
<stop offset="0.71" stop-color="#5A5287"/>
<stop offset="0.97" stop-color="#464068"/>
<stop offset="1" stop-color="#433E64"/>
</linearGradient>
<linearGradient id="paint8_linear_210_11868" x1="62290.4" y1="35495.2" x2="68233.9" y2="25733.2" gradientUnits="userSpaceOnUse">
<stop stop-color="#7468AE"/>
<stop offset="0.22" stop-color="#7165AA"/>
<stop offset="0.46" stop-color="#685E9C"/>
<stop offset="0.71" stop-color="#5A5287"/>
<stop offset="0.97" stop-color="#464068"/>
<stop offset="1" stop-color="#433E64"/>
</linearGradient>
<linearGradient id="paint9_linear_210_11868" x1="44569.7" y1="39566.9" x2="55605.6" y2="47090.7" gradientUnits="userSpaceOnUse">
<stop stop-color="#ADA9D4"/>
<stop offset="0.4" stop-color="#A9A5D1"/>
<stop offset="0.83" stop-color="#9F97C9"/>
<stop offset="1" stop-color="#9990C5"/>
</linearGradient>
<linearGradient id="paint10_linear_210_11868" x1="22595.2" y1="43081.4" x2="17373.4" y2="50716.4" gradientUnits="userSpaceOnUse">
<stop stop-color="#4B35AD"/>
<stop offset="1" stop-color="#B7A7FF"/>
</linearGradient>
<linearGradient id="paint11_linear_210_11868" x1="5925.65" y1="8673.47" x2="4985.65" y2="10371.1" gradientUnits="userSpaceOnUse">
<stop stop-color="#3820A2"/>
<stop offset="1" stop-color="#AD9DF8"/>
</linearGradient>
<clipPath id="clip0_210_11868">
<rect width="754" height="384" fill="white"/>
</clipPath>
</defs>
</svg>
